<?xml version="1.0" encoding="UTF-8"?>
<svg width="161px" height="188px" viewBox="0 0 161 188" version="1.1" xmlns="http://www.w3.org/2000/svg" xmlns:xlink="http://www.w3.org/1999/xlink">
    <title>Group</title>
    <defs>
        <path d="M48.7542413,95 L34.1940652,95 C17.0520283,95.0220185 2.67441676,82.2633785 0.916739797,65.4697946 C-0.305579932,53.5201734 -0.305579932,41.4798266 0.916739797,29.5302054 C2.67441676,12.7366215 17.0520283,-0.022018464 34.1940652,4.00889648e-13 L48.7542413,4.00889648e-13 C65.8288372,-0.0194138138 80.1727663,12.6397326 82.0186435,29.357322 C83.3271188,41.4166973 83.3271188,53.5790601 82.0186435,65.6384354 C80.1748072,82.3577068 65.8303147,95.01918 48.7542413,95 L48.7542413,95 Z" id="path-1"></path>
    </defs>
    <g id="Page-1" stroke="none" stroke-width="1" fill="none" fill-rule="evenodd">
        <g id="Group" transform="translate(80.476164, 93.861424) rotate(19.000000) translate(-80.476164, -93.861424) translate(22.597736, 14.766812)">
            <path d="M102.922238,140.656844 C102.922238,132.173616 86.8822027,131.011572 73.2545506,127.646077 C70.4874479,126.962711 68.9096824,117.05723 66.3832128,117.05723 C63.8415424,117.05723 62.1661024,123.512968 59.8333852,123.958978 C48.4276877,126.13972 39.2793813,127.063515 39.2793813,135.536379 C39.2793813,139.906021 53.7034636,147.817581 67.0466551,149.519 C84.8678765,151.791422 102.922238,146.492955 102.922238,140.656844 Z" id="Oval" fill-opacity="0.117214816" fill="#000000" transform="translate(71.100810, 133.557230) rotate(-16.000000) translate(-71.100810, -133.557230) "></path>
            <path d="M60.9631384,23.253498 C63.4173479,36.7843119 55.3732927,49.5513842 55.3732927,49.5513842 C55.3732927,49.5513842 43.3544269,40.377951 40.895925,26.8492704 C38.437423,13.3205899 46.4857707,0.551384203 46.4857707,0.551384203 C46.4857707,0.551384203 58.508929,9.72268403 60.9631384,23.253498 Z" id="Path" fill="#038765" fill-rule="nonzero"></path>
            <path d="M58.9218661,23.3919508 C56.4676566,36.9227647 64.5117118,49.689837 64.5117118,49.689837 C64.5117118,49.689837 76.5305777,40.5164039 78.9890796,26.9877233 C81.4475815,13.4590427 73.3992339,0.689837031 73.3992339,0.689837031 C73.3992339,0.689837031 61.3760756,9.86113685 58.9218661,23.3919508 Z" id="Path" fill="#038765" fill-rule="nonzero"></path>
            <path d="M55.0479117,24.7012399 C61.6540205,38.508219 57.084987,54.6941577 57.084987,54.6941577 C57.084987,54.6941577 41.8095375,48.4951278 35.2013362,34.6881486 C28.5931349,20.8811695 33.1642609,4.69415772 33.1642609,4.69415772 C33.1642609,4.69415772 48.4428492,10.8931877 55.0479117,24.7012399 L55.0479117,24.7012399 Z" id="Path" fill="#01A27E" fill-rule="nonzero"></path>
            <path d="M63.9855632,25.3660855 C57.3793932,39.1730646 61.9474227,55.3590033 61.9474227,55.3590033 C61.9474227,55.3590033 77.2230137,49.1599733 83.8312763,35.3529942 C90.4395388,21.5460151 85.8694168,5.35900331 85.8694168,5.35900331 C85.8694168,5.35900331 70.5906869,11.5580333 63.9855632,25.3660855 Z" id="Path" fill="#01A27E" fill-rule="nonzero"></path>
            <path d="M70.6753607,27.5005298 C70.6753607,42.6887656 59.1753607,55 59.1753607,55 C59.1753607,55 47.6753607,42.6940639 47.6753607,27.5005298 C47.6753607,12.3069957 59.1753607,-2.30274156e-13 59.1753607,-2.30274156e-13 C59.1753607,-2.30274156e-13 70.6753607,12.3122941 70.6753607,27.5005298 Z" id="Path" fill="#01C8A1" fill-rule="nonzero"></path>
            <g id="Path-2" transform="translate(18.562275, 37.863748)">
                <mask id="mask-2" fill="white">
                    <use xlink:href="#path-1"></use>
                </mask>
                <use id="Path" fill="#FECB00" fill-rule="nonzero" xlink:href="#path-1"></use>
                <path d="M54.4915992,95.6917839 C65.6990601,88.1219531 70.8475781,72.6746982 69.9371533,49.350019 C69.0267285,26.0253399 64.0819575,9.59018761 55.1028404,0.0445621864 L87.2863503,2.93709745 L87.9458731,93.310678 L54.4915992,95.6917839 Z" id="Path-3" fill="#F2B906" mask="url(#mask-2)"></path>
                <path d="M82.7780144,50.003908 C79.9593066,47.2003351 77.0910149,44.4454914 74.1744544,41.7406402 C76.8813861,38.9826818 79.6342954,36.2830648 82.4331823,33.6417892 C82.3174305,32.2129093 82.1812802,30.7857016 82.0247718,29.3605891 C81.9964676,29.1057277 81.960532,28.8517436 81.9170118,28.5989683 C79.4692937,26.326251 76.9905884,24.0860905 74.4815704,21.8790965 C75.8676748,20.6188898 77.2613958,19.3668252 78.6626592,18.1229692 C78.3393791,17.4865173 77.9934695,16.8670374 77.6378614,16.2602865 C76.0530707,17.6597736 74.4769008,19.0762328 72.9093518,20.509664 C69.8345992,17.8344443 66.712073,15.1967046 63.5417732,12.5964448 C65.5622736,10.7751315 67.609714,8.98988376 69.6679304,7.22479036 C69.1123444,6.78248321 68.5404731,6.36037356 67.9534684,5.95931174 C65.9161423,7.71069823 63.8983942,9.48403076 61.9005881,11.2789893 C58.6598851,8.6624646 55.3631469,6.09332023 52.0103735,3.57155618 C53.111897,2.58620888 54.22368,1.61203236 55.3455461,0.649180987 C54.4618434,0.464351683 53.5686506,0.32660701 52.6698648,0.236547974 C51.8853719,0.905883272 51.100879,1.60598042 50.327162,2.29547003 C49.2987987,1.52184213 48.2639074,0.756658914 47.2225958,1.13639509e-12 L43.6999208,1.13639509e-12 C45.3924715,1.21491605 47.075683,2.44645057 48.7495553,3.69460356 C45.4348571,6.67956319 42.1945133,9.75574761 38.9843423,12.8743622 C35.5036937,10.3525981 31.9666507,7.87573927 28.3732132,5.44378566 C30.2762551,3.6051467 32.1929467,1.79055148 34.1232878,1.13639509e-12 C33.0456877,1.13639509e-12 31.9795819,0.0516233247 30.9249705,0.154869974 C29.4726641,1.51350844 28.0332866,2.88547587 26.6070265,4.27059257 C25.4152007,3.46866312 24.2118804,2.67628044 22.9970658,1.89344454 C22.1920985,2.16181512 21.3968295,2.47049431 20.6263454,2.80993535 C22.1206177,3.77734231 23.6120163,4.75500322 25.1005414,5.74291808 C21.9216208,8.87072582 18.7886778,12.0529856 15.7017125,15.2896973 C13.5056124,13.8770789 11.2964397,12.4842517 9.07447126,11.1113903 C8.60463758,11.6258556 8.15527829,12.1509284 7.72639341,12.6961556 C9.92110582,14.0546269 12.1025278,15.4300703 14.2706594,16.8224857 C11.2706205,20.0231319 8.31548152,23.2785836 5.40524259,26.5888409 C4.21341677,25.8463136 3.02159095,25.1037863 1.82006673,24.3867171 C1.62994574,25.0877267 1.46604007,25.7953724 1.32868104,26.5082236 C2.24066029,27.0544037 3.14661577,27.6102709 4.04638874,28.1757277 C2.89694853,29.5136912 1.75397392,30.8548368 0.617464913,32.1991648 C0.512578494,33.393573 0.418468077,34.5872739 0.335133661,35.7802678 C2.14334679,33.5993591 3.97275273,31.4382511 5.82335147,29.2969439 C9.52666879,31.6395682 13.1864438,34.0482291 16.8008647,36.5217343 C14.023703,39.7461623 11.3052035,43.0191069 8.64666398,46.3390056 C5.82335147,44.4671297 2.96555574,42.6320266 0.0732768134,40.8336962 C0.0420264077,41.6366864 0.0215520039,42.4386159 -1.57498124e-12,43.2309986 C2.47848045,44.78677 4.9318169,46.3683531 7.36000935,47.9757478 C4.93140475,51.0299131 2.55105896,54.1209661 0.21983044,57.247792 C0.282331252,58.4825087 0.366384067,59.7172255 0.460135284,60.9604283 C4.04638874,63.3068145 7.57660699,65.7111885 11.05079,68.1735504 C8.84458322,71.2398344 6.68399482,74.3443056 4.56902484,77.4869639 C4.9246329,78.1764535 5.31149137,78.8341205 5.72960025,79.4833015 C8.01985987,76.0669689 10.3546603,72.7050883 12.7340015,69.3976596 C16.2541622,71.9300312 19.7111036,74.5165012 23.1048258,77.1570696 C20.3547901,81.0677133 17.6679736,85.0504881 15.0443764,89.1053942 C15.6090389,89.4957514 16.1941758,89.867015 16.7900887,90.2266104 C19.3720187,86.2445427 22.0204008,82.3197557 24.7352349,78.4522494 C28.1016579,81.1168615 31.4062986,83.8334506 34.6491567,86.6020165 C32.8314874,89.2606133 31.0507668,91.9435082 29.3074926,94.6499514 C30.0704335,94.7623913 30.8441504,94.8444229 31.6286434,94.8960462 C33.1372837,92.5708751 34.6703495,90.2658583 36.227841,87.9809958 C38.8737087,90.2863662 41.4804236,92.6260342 44.0479857,95 L48.7517105,95 C48.9187386,95 49.0965426,95 49.2635706,94.9893925 C51.2195603,92.0850588 53.2201755,89.210087 55.2647261,86.3654686 C57.3660465,88.3929216 59.4393493,90.4476007 61.4846345,92.5295057 C62.1742986,92.2515883 62.8434883,91.9535167 63.501902,91.6342299 C61.2030216,89.2779434 58.8613964,86.9524187 56.4770263,84.6576558 C58.875455,81.3835463 61.332771,78.1516287 63.8478117,74.9634319 C67.0569051,78.0919468 70.1930809,81.2742066 73.256339,84.5102111 C73.7369487,84.0052926 74.197084,83.4908273 74.6356673,82.9562076 C71.5422363,79.6834303 68.3748101,76.4689944 65.1333887,73.3128999 C67.7153188,70.0818455 70.3532841,66.9091325 73.0472846,63.794761 C75.6716003,66.3978495 78.2502975,69.0355892 80.7833764,71.7079802 C81.0155073,70.9293083 81.2210849,70.1432033 81.3997637,69.3509865 C79.1109409,66.9466125 76.7797325,64.5694644 74.4061384,62.2195424 C77.1547373,59.0712268 79.9600898,55.9876171 82.822196,52.9687134 L82.9159472,53.0609989 C82.9579736,51.959937 82.978448,50.8694827 83,49.7673601 C82.924568,49.8490381 82.8512912,49.9349591 82.7780144,50.003908 L82.7780144,50.003908 Z M72.9298262,23.2729262 C75.9514171,25.9177377 78.9205649,28.6071007 81.8372694,31.3410154 C78.7115104,34.2743517 75.6482523,37.272394 72.6474949,40.3351422 C69.6697241,37.5918158 66.644457,34.8988758 63.5730236,32.2575062 C66.636528,29.2089513 69.7559756,26.2153665 72.9298262,23.27823 L72.9298262,23.2729262 Z M50.2754372,43.1811432 C47.4535615,46.2983434 44.6830514,49.4714099 41.9639069,52.7003428 C38.6923127,50.0449238 35.3715081,47.4379459 32.0014931,44.8794091 C34.7817016,41.6476475 37.6078877,38.4710452 40.4800514,35.3496019 C43.7940312,37.9222821 47.0591598,40.5327959 50.2754372,43.1811432 L50.2754372,43.1811432 Z M41.8906301,33.8263603 C44.8497202,30.6568296 47.8605352,27.5679161 50.9230749,24.5235543 C54.1752723,27.0962345 57.3721529,29.7127592 60.5137167,32.3731283 C57.5122409,35.4090041 54.5668004,38.5032213 51.6773951,41.65578 C48.4776409,39.0017754 45.2153859,36.3919688 41.8906301,33.8263603 L41.8906301,33.8263603 Z M30.3247472,43.6436316 C26.8890821,41.0723413 23.4071628,38.5614937 19.880646,36.1122835 C22.7240738,32.8508209 25.6127607,29.6469925 28.5467068,26.5007984 C32.0280739,28.9808394 35.4537649,31.508968 38.8237799,34.0851841 C35.9408402,37.2129918 33.1078293,40.399141 30.3247472,43.6436316 Z M30.6383288,46.4535669 C34.0156227,49.0021409 37.3438426,51.6131179 40.621217,54.2851081 C37.9767862,57.4673679 35.3840801,60.6856932 32.8441764,63.9793321 C29.5187022,61.3239131 26.1346784,58.7303714 22.692105,56.198707 C25.2984606,52.8955214 27.9504347,49.6471414 30.6480272,46.4535669 L30.6383288,46.4535669 Z M42.2419277,55.6015029 C45.4617971,58.2470215 48.6295825,60.9501744 51.7452839,63.7109615 C49.1590434,66.8932212 46.6115965,70.1019998 44.1341937,73.3850311 C40.9633804,70.6181701 37.7393347,67.9109907 34.4638095,65.264965 C37.0076644,61.9928948 39.6018073,58.7717408 42.2462381,55.6015029 L42.2419277,55.6015029 Z M43.5695312,54.0103731 C46.271351,50.7991631 49.0355455,47.6393043 51.8605871,44.5325428 C55.0158906,47.1682685 58.1213481,49.8612753 61.1753632,52.6101788 C58.4145515,55.7217216 55.7069014,58.8845342 53.0524129,62.0986166 C49.9496427,59.3597517 46.790119,56.6626098 43.5738416,54.0071908 L43.5695312,54.0103731 Z M53.2614674,42.9986936 C56.1573383,39.850378 59.1027788,36.7596966 62.097789,33.7266495 C65.1818807,36.3813613 68.2138885,39.0809783 71.1938122,41.8255005 C68.2656133,44.8408684 65.386984,47.9170528 62.5579243,51.0540538 C59.5162181,48.3279179 56.4188359,45.6417371 53.2657778,42.9955113 L53.2614674,42.9986936 Z M61.990029,14.0093681 C65.1689495,16.6032634 68.2914757,19.2378209 71.3576075,21.9130406 C68.1708508,24.8517205 65.0451634,27.8539199 61.9824858,30.9177749 C58.8452324,28.2524556 55.6483518,25.6316879 52.391844,23.0554718 C55.5326894,19.965144 58.7335212,16.9487154 61.9943394,14.0061859 L61.990029,14.0093681 Z M50.4273788,4.97387197 C53.7844626,7.50624356 57.0916177,10.0824596 60.3488439,12.7025201 C57.0940835,15.65786 53.8966266,18.6737715 50.7582021,21.7486238 C47.441309,19.1529351 44.081623,16.6106786 40.680485,14.1228687 C43.8845496,11.0021327 47.134951,7.95140634 50.4316892,4.97068971 L50.4273788,4.97387197 Z M39.168612,15.5814044 C42.6004094,18.0819534 45.9743756,20.6305899 49.2905106,23.2273138 C46.2138654,26.2785866 43.1960465,29.3867945 40.238669,32.5502741 C36.872246,29.9783011 33.4533797,27.4537084 29.9820703,24.9764959 C32.9936036,21.7857502 36.057221,18.6536994 39.1729224,15.5803437 L39.168612,15.5814044 Z M26.8581073,6.92565795 C30.4544184,9.34417535 33.9946942,11.8143161 37.4789349,14.3360801 C34.3538943,17.4122645 31.2902769,20.5722485 28.268686,23.776784 C24.7159685,21.269503 21.1191108,18.8233878 17.4797528,16.4395538 C20.5545054,13.1950632 23.6806235,10.0237646 26.8581073,6.92565795 L26.8581073,6.92565795 Z M7.18220532,27.7164216 C10.0776055,24.4158573 13.0332248,21.1669493 16.0476221,17.9712815 C19.6963764,20.3593906 23.2926875,22.8019518 26.8365553,25.2989649 C23.8911148,28.4578881 20.9988358,31.6719704 18.1597185,34.9412119 C14.5435467,32.4692021 10.8838182,30.0595109 7.18220532,27.7132393 L7.18220532,27.7164216 Z M18.535801,37.6875021 C22.0614385,40.1379159 25.5433363,42.6487481 28.9799021,45.2188501 C26.2679214,48.422148 23.6119646,51.671006 21.0132038,54.9639902 C17.5325552,52.4224254 13.9818626,49.9388485 10.3611259,47.5132594 C13.0378848,44.177544 15.7627765,40.9015844 18.535801,37.6853806 L18.535801,37.6875021 Z M12.2630902,66.4996818 C8.7199408,63.9793321 5.10638814,61.5166166 1.42243226,59.1115354 C3.92138712,55.7362186 6.48715319,52.4224254 9.08524726,49.1404549 C12.6916159,51.5695798 16.2390758,54.0496209 19.7276268,56.5805782 C17.1880823,59.8321405 14.6999035,63.1385083 12.2630902,66.4996818 L12.2630902,66.4996818 Z M24.2966516,75.4630467 C20.9086766,72.8189424 17.462152,70.2377762 13.9570778,67.719548 C16.3924542,64.3640319 18.8734491,61.0604927 21.4000623,57.8089304 C24.8613142,60.3611027 28.2557548,62.9613625 31.5833842,65.6097098 C29.1156797,68.8566755 26.6695273,72.1290993 24.2966516,75.4630467 Z M35.8377498,84.9037506 C32.5887679,82.1253264 29.2834616,79.411373 25.9238279,76.7635302 C28.2951406,73.4395798 30.7244114,70.156062 33.2105605,66.9144363 C36.5037067,69.5804628 39.7339929,72.2938696 42.9014191,75.0546567 C40.4998074,78.2850039 38.145251,81.5669745 35.8377498,84.9005683 L35.8377498,84.9037506 Z M46.8777638,94.8133074 C43.780874,91.9053872 40.6228212,89.0612451 37.4056581,86.2827298 C39.7160329,82.9378213 42.0788509,79.6516077 44.4941121,76.4240891 C47.6407047,79.2018483 50.7212045,82.0351202 53.7356114,84.9239049 C51.4051214,88.1634453 49.1191722,91.4588521 46.8777638,94.8101252 L46.8777638,94.8133074 Z M54.9597653,83.225639 C51.9381743,80.3552407 48.8576745,77.5286869 45.718266,74.7459775 C48.196028,71.4739073 50.7226413,68.259825 53.2981058,65.1037305 C56.3714215,67.8510814 59.3887021,70.6535915 62.3499474,73.5112607 C59.8276653,76.7047583 57.3635192,79.9423398 54.9586877,83.2224567 L54.9597653,83.225639 Z M63.6366021,71.8649717 C60.6762561,69.0194089 57.6649694,66.2256543 54.6041572,63.485021 C57.2496657,60.2635134 59.957675,57.1205016 62.7174091,54.0071908 C65.717448,56.7439342 68.6628886,59.5259363 71.5537307,62.3531973 C68.8640406,65.4703975 66.2246385,68.6399282 63.6355245,71.8617894 L63.6366021,71.8649717 Z M72.9104294,60.781161 C70.0231792,57.9595574 67.0816899,55.187102 64.0859613,52.4637948 C66.9186131,49.314772 69.7968832,46.2343446 72.7207717,43.2225125 C75.6438032,45.9333616 78.517854,48.694935 81.3415733,51.5059346 C78.4718928,54.5441828 75.6606529,57.6354134 72.9093518,60.7779788 L72.9104294,60.781161 Z" id="Shape" fill="#F38D01" fill-rule="nonzero" mask="url(#mask-2)"></path>
            </g>
            <path d="M13.7332536,46.0562721 L11.1558499,50.3995002 C11.088969,50.5092796 10.9690096,50.5659834 10.8496321,50.5442469 C10.7302546,50.5225103 10.6337919,50.4263999 10.6033938,50.2989078 L9.79102221,46.6574601 C9.77266541,46.5685668 9.7878975,46.475375 9.83329629,46.398822 C9.87869508,46.322269 9.95045359,46.2687743 10.0324499,46.2503564 L13.4222252,45.5556766 C13.541409,45.5287344 13.6637441,45.5827929 13.7319255,45.6925299 C13.8001069,45.8022668 13.8006316,45.945949 13.7332536,46.0562721 L13.7332536,46.0562721 Z" id="Path" fill="#01C8A1" fill-rule="nonzero"></path>
            <path d="M110.494604,50.070424 L106.285986,50.070424 C106.127311,50.0669119 105.985206,49.9548298 105.923103,49.7842087 C105.861,49.6135876 105.890488,49.4162643 105.998404,49.2803196 L109.129084,45.2255318 C109.224782,45.1000786 109.371115,45.0449786 109.51151,45.0815335 C109.651905,45.1180885 109.764359,45.2405696 109.805399,45.4016254 L110.869453,49.4564132 C110.911087,49.5979459 110.89165,49.7542556 110.817266,49.8760986 C110.742881,49.9979416 110.622708,50.0703171 110.494604,50.070424 L110.494604,50.070424 Z" id="Path" fill="#F93030" fill-rule="nonzero"></path>
            <path d="M111.240862,87.0757661 L115.241947,89.7006533 C115.72306,90.0183046 115.898043,90.7382212 115.63359,91.3119582 C115.507829,91.5898671 115.293221,91.7958618 115.038192,91.8834586 C114.783163,91.9710554 114.509205,91.9328729 114.278137,91.7775271 L110.276032,89.1526399 C110.04246,89.0028967 109.869361,88.7477793 109.795698,88.4447115 C109.722034,88.1416437 109.753996,87.8160923 109.884389,87.541335 C110.152378,86.9698132 110.757857,86.7620006 111.240862,87.0757661 Z" id="Path" fill="#BFF3FE" fill-rule="nonzero"></path>
            <circle id="Oval" fill="#01C8A1" fill-rule="nonzero" cx="100.924166" cy="124.174905" r="2.5"></circle>
            <circle id="Oval" fill="#BFF3FE" fill-rule="nonzero" cx="19.9488455" cy="122.443565" r="2.5"></circle>
            <path d="M19.2312126,18.3079019 C19.1226593,18.1997915 19.0616367,18.0528925 19.0616367,17.8996834 C19.0616367,17.7464742 19.1226593,17.5995752 19.2312126,17.4914648 C19.4232396,17.2994265 19.4188505,17.0997067 19.3584991,16.621257 C19.1616766,15.973642 19.3378313,15.2702622 19.8166502,14.7918747 C20.2954691,14.3134873 20.9989767,14.1379974 21.6463648,14.3354528 C22.1247866,14.3947103 22.3244948,14.3990997 22.5165219,14.2070614 C22.7085489,14.0150232 22.7041598,13.8153033 22.6449057,13.3368537 C22.4468069,12.6898186 22.6220563,11.9862726 23.1005167,11.5077843 C23.5789771,11.029296 24.2824821,10.8540364 24.9294795,11.0521467 C25.406804,11.1125016 25.6054149,11.1179884 25.797442,10.9259501 C25.9894691,10.7339119 25.9850799,10.534192 25.9247285,10.0579371 C25.7266297,9.41090205 25.9018791,8.70735599 26.3803395,8.22886772 C26.8587999,7.75037945 27.562305,7.57511983 28.2093023,7.77323016 C28.6855295,7.83358505 28.8852377,7.8379745 29.0761675,7.64703357 C29.3016072,7.42158072 29.6671172,7.42158072 29.8925569,7.64703359 C30.1179967,7.87248645 30.1179967,8.23801776 29.892557,8.46347063 C29.3990542,8.9148359 28.7106813,9.08580349 28.0633617,8.91777835 C27.5871345,8.85742346 27.3874263,8.85303401 27.1964965,9.04397494 C27.0055667,9.23491586 27.0088586,9.43573304 27.06921,9.91198799 C27.2670153,10.5590726 27.0917211,11.2625043 26.6134028,11.7410802 C26.1350845,12.2196562 25.431778,12.3952983 24.7846362,12.1977923 C24.3073117,12.1374374 24.1087008,12.1319506 23.9166737,12.3239889 C23.7246466,12.5160272 23.7290358,12.715747 23.7893872,13.1920019 C23.986831,13.8394277 23.8113514,14.5429763 23.3329918,15.0218231 C22.8546322,15.5006699 22.1512933,15.6768349 21.5037161,15.4800009 C21.024197,15.4207434 20.8255861,15.4152566 20.6324617,15.6083923 C20.4393373,15.8015279 20.4448238,16.0001504 20.5040779,16.4796974 C20.671225,17.1276115 20.4990096,17.8161001 20.0465047,18.3089992 C19.9384425,18.4173476 19.7916514,18.4781494 19.6386305,18.4779439 C19.4856096,18.4777375 19.3389828,18.4165407 19.2312126,18.3079019 L19.2312126,18.3079019 Z" id="Path" fill="#FECB00" fill-rule="nonzero"></path>
            <path d="M94.6896656,17.3039378 C94.5865076,17.3038365 94.487634,17.2628539 94.4148835,17.1900418 C92.4678865,15.2527448 91.5708351,12.9237306 92.2315952,11.5261092 C92.5277082,10.9201737 93.0914106,10.486965 93.7551926,10.3552154 C93.6548682,9.58170475 93.6797758,8.79718245 93.8289668,8.03152347 C93.8930744,7.07603901 94.5046549,6.24293857 95.3996085,5.89198119 C97.7336527,5.16496259 101.47796,8.73193084 101.897083,9.14067922 C102.037706,9.29301187 102.033755,9.52833467 101.888095,9.67590239 C101.742435,9.82347012 101.506169,9.83151184 101.350726,9.69419264 C100.305057,8.67338615 97.2396864,6.12828884 95.6326922,6.63283762 C95.0980966,6.7978272 94.7613014,7.30450487 94.5934384,8.18054631 C94.4601913,8.86159082 94.4374498,9.55949563 94.5260794,10.2477061 C94.831994,10.2319165 95.1386729,10.2393893 95.4434453,10.2700595 C98.3740982,10.5468162 100.081596,12.0966538 100.468644,13.5113064 C100.723504,14.2028608 100.508677,14.9792226 99.934048,15.4432811 C98.9105602,16.0092593 97.6433537,15.893533 96.7403741,15.1516221 C95.3175971,14.2143275 94.303823,12.7757074 93.9027409,11.124812 C93.4880591,11.2125674 93.1348396,11.4809958 92.9404689,11.8560884 C92.4326032,12.9290528 93.3050631,14.9866326 94.9719321,16.6461084 C95.0826989,16.7573192 95.1155653,16.9238676 95.0552923,17.0685323 C94.9950194,17.213197 94.8533936,17.3076887 94.6960807,17.3081956 L94.6896656,17.3039378 Z M94.6768353,11.0173026 C95.0413253,12.4446207 95.9277967,13.6851108 97.1627046,14.4959216 C97.805962,15.0440133 98.7110122,15.168753 99.4796418,14.8152563 C99.7845506,14.5354479 99.8814884,14.095848 99.7223481,13.7146161 C99.4015908,12.5564957 97.931453,11.2802215 95.3707403,11.0385916 C95.1400597,11.017929 94.9083562,11.0108203 94.6768353,11.0173026 L94.6768353,11.0173026 Z M5.8013936,90.794554 C5.72985457,90.794554 5.65840512,90.7895149 5.58755538,90.7796517 C4.42106788,90.6146622 3.35401516,89.1946873 2.6515566,88.0025046 C1.95100578,88.1502184 1.26400145,88.3556548 0.59764048,88.6166916 C0.370889269,88.7034037 0.116463852,88.5906949 0.0293654054,88.3649494 C-0.0577330413,88.1392039 0.0554778921,87.885907 0.282229103,87.7991948 C0.90900243,87.5552264 1.55207071,87.354981 2.2067731,87.1999101 C1.94909804,86.6974902 1.80048048,86.348351 1.79513452,86.3334487 C1.43016139,85.470353 1.50200494,84.4855087 1.98841171,83.6839707 C2.47481847,82.8824326 3.31706799,82.3609649 4.25427407,82.2810918 C4.38364619,82.2683184 4.50981075,82.2598028 4.63276772,82.2512872 C4.4306906,81.7382228 4.24465135,81.1868383 4.07785754,80.6013914 C3.71445849,79.7403515 3.86019204,78.7497423 4.45635119,78.0286184 C5.63246141,76.8215334 8.19852007,77.4197536 8.48720167,77.496394 C8.63999575,77.5344231 8.76080463,77.6507165 8.80412078,77.8014677 C8.84743693,77.9522189 8.80667959,78.1145252 8.69720167,78.2272473 C8.58772374,78.3399694 8.42615752,78.3859822 8.27336345,78.3479531 C7.62543364,78.1850924 5.78856331,77.9221735 5.08610475,78.6459988 C4.72695382,79.1508974 4.66542096,79.8081233 4.9246569,80.370406 C5.10126976,81.0002977 5.31548888,81.6191332 5.56617156,82.2236115 C9.09450222,82.2236115 9.83117489,83.7628046 9.97872327,84.2790623 C10.2099712,85.0003811 9.88346424,85.782413 9.20676729,86.1280101 C8.68352023,86.3884585 8.06883129,86.3939575 7.54096754,86.1429123 C6.37574507,85.4467116 5.48121505,84.3787119 5.00270785,83.1124263 C4.78886962,83.1216516 4.56647787,83.1372635 4.33553259,83.1592621 C3.67719706,83.2143707 3.08539311,83.580597 2.74436705,84.1439238 C2.40334099,84.7072507 2.35450594,85.3992695 2.61306572,86.004534 C2.74457623,86.3238687 2.91457761,86.6772657 3.1081012,87.0391783 C5.21975364,86.7464549 6.53485871,87.3031616 7.11542948,88.0929827 C7.48161259,88.6017993 7.53898664,89.2692413 7.26496918,89.8326032 C6.99095171,90.3959651 6.42942017,90.7650377 5.8013936,90.794554 L5.8013936,90.794554 Z M3.58709882,87.8609329 C4.24465135,88.899835 5.0444063,89.8173899 5.70944317,89.9121259 C5.99162419,89.9420863 6.26525061,89.8046303 6.40869415,89.5608578 C6.63736019,89.2812295 6.63466954,88.8794219 6.40227901,88.6028537 C6.00240153,88.0589204 5.03799115,87.7257479 3.58709882,87.8609329 Z M5.97246418,83.1028463 C6.35996373,84.0320948 7.03386551,84.8148264 7.89700818,85.338189 C8.18612649,85.4835272 8.52739422,85.4835272 8.81651253,85.338189 C9.11169961,85.1777793 9.24731162,84.8285521 9.13726986,84.5121766 C8.94267708,83.8596695 7.99858133,83.1858733 5.97246418,83.1028463 L5.97246418,83.1028463 Z" id="Shape" fill="#FC4D92" fill-rule="nonzero"></path>
        </g>
    </g>
</svg>