<?xml version="1.0" encoding="UTF-8"?>
<svg width="1699px" height="401px" viewBox="0 0 1699 401" version="1.1" xmlns="http://www.w3.org/2000/svg" xmlns:xlink="http://www.w3.org/1999/xlink">
    <title>background</title>
    <g id="Page-1" stroke="none" stroke-width="1" fill="none" fill-rule="evenodd">
        <g id="background" transform="translate(0.000000, 0.920995)" fill-rule="nonzero">
            <path d="M130.964583,286.428758 C190.152586,242.426415 218.274306,235.702196 261.929167,229.803758 C304.994097,223.905321 348.059028,235.702196 391.713889,267.553758 C435.604722,299.405321 479.023611,348.952196 522.678472,330.431102 C566.333333,311.202196 609.988194,223.905321 653.643056,217.181102 C682.588981,213.012873 729.802696,250.762873 795.2842,330.431102 C845.5864,267.278498 885.28912,221.152717 914.392361,192.053758 C958.401181,148.405321 1001.70208,122.452196 1045.35694,135.428758 C1074.53884,144.0798 1118.1937,175.538133 1176.32153,229.803758 C1234.52801,175.538133 1278.18287,154.579019 1307.28611,166.926415 C1350.46903,186.155321 1394.59583,273.452196 1437.07083,292.681102 C1481.19764,311.202196 1473.94027,274.277977 1517.59513,229.803758 C1546.85568,200.468863 1607.32397,257.093863 1699,399.678758 L1677.17257,399.678758 C1655.46312,399.678758 1611.69028,399.678758 1568.03542,399.678758 C1524.73451,399.678758 1480.72569,399.678758 1437.07083,399.678758 C1394.0059,399.678758 1350.94097,399.678758 1307.28611,399.678758 C1263.39528,399.678758 1219.97639,399.678758 1176.32153,399.678758 C1132.66667,399.678758 1089.01181,399.678758 1045.35694,399.678758 C1001.93806,399.678758 958.047222,399.678758 914.392361,399.678758 C871.327431,399.678758 828.2625,399.678758 784.607639,399.678758 C740.598819,399.678758 697.297917,399.678758 653.643056,399.678758 C609.870208,399.678758 566.333333,399.678758 522.678472,399.678758 C479.259583,399.678758 435.36875,399.678758 391.713889,399.678758 C348.530972,399.678758 304.404167,399.678758 261.929167,399.678758 C217.802361,399.678758 174.619444,399.678758 130.964583,399.678758 C87.07375,399.678758 43.6548611,399.678758 21.2375,399.678758 L0,399.678758 C47.8510537,353.513654 91.5059148,315.763654 130.964583,286.428758 Z" id="Path" fill="#5865F2"></path>
            <g id="Group" opacity="0.550339472" transform="translate(1417.000000, 251.079005)" fill="#808AFF" stroke="#808AFF">
                <path d="M76.8177475,0.605042922 C76.1500285,-0.14336914 75.0045204,-0.206037814 74.2602546,0.464896262 C73.51527,1.13619154 73.4529185,2.28698345 74.1204577,3.03557611 C87.5952268,18.141255 91.6834778,35.7684901 85.6321403,52.6698884 C79.3490059,70.2183814 62.8312282,84.305288 45.4633488,86.9263556 C32.5585486,88.8739607 21.1031082,84.1196297 13.2081764,73.5398211 C1.3198687,57.6086134 2.58882216,45.4945961 5.74665109,38.1376189 C9.80255838,28.6876524 19.4765765,21.7791083 30.3922355,20.5371127 C39.9703005,19.4468223 48.4889277,22.9698131 53.7647337,30.2012724 C60.6629386,39.655754 59.4106961,46.8131667 57.1455549,51.1526563 C53.9296869,57.3135107 46.6751616,61.4781783 39.498441,61.2703061 C36.3776277,61.1816308 30.7207044,60.1003704 27.8965552,53.855717 C25.7528828,49.1156535 25.7891797,45.0654873 28.0013131,42.1433572 C30.5473059,38.7807403 35.9393698,37.0074155 41.116707,37.8293323 C44.7154892,38.4011163 47.2542946,40.0920869 48.0824745,42.4688008 C49.0538653,45.2565635 49.0332013,47.5523681 48.0201229,49.2926429 C46.5662709,51.7905404 43.4203014,52.6245575 42.7116137,52.7842091 C41.6485822,52.7363497 37.1143466,52.2445722 37.1143466,47.3280612 C37.1143466,46.4362517 37.2532451,45.2849179 37.9150343,44.8632138 C38.9399721,44.2090756 41.1680977,44.8944578 42.0889964,45.3302489 C42.9913872,45.7629698 44.0716687,45.3800949 44.5027392,44.473476 C44.934708,43.5666765 44.5535907,42.4798175 43.6515593,42.0456518 C43.1820357,41.8197195 38.9735737,39.8905357 35.9871667,41.7810708 C34.8490257,42.5016703 33.4920254,44.0490628 33.4920254,47.3282418 C33.4920254,54.5273735 39.6261988,56.4296477 42.8693794,56.4296477 C42.9701841,56.4296477 43.0715279,56.4211594 43.1708951,56.4043635 C43.3919108,56.3667984 48.6183027,55.4357983 51.1279987,51.16277 C52.7198506,48.4530271 52.8452726,45.1230991 51.5012097,41.2656345 C50.2180609,37.5844369 46.6392241,35.0215229 41.6821838,34.2337397 C36.2417839,33.3686592 29.0111571,34.7986608 25.1189451,39.9391175 C22.9785071,42.7664319 21.1505457,47.7376651 24.5989294,55.3628354 C27.2563285,61.2383396 32.6492908,64.7183474 39.3958394,64.910146 C39.5947535,64.9157447 39.7938473,64.9186343 39.9924021,64.9186343 C48.3015136,64.9184537 56.6088282,60.018558 60.353337,52.8447105 C64.2324317,45.4131449 62.9298767,36.6072029 56.6855548,28.0492265 C50.620022,19.7359651 40.8876054,15.6776718 29.9848839,16.9203898 C17.8015292,18.3066858 6.98200297,26.0691132 2.42063461,36.6962394 C-2.57953073,48.3446663 0.222337173,62.2056406 10.3101757,75.7243752 C17.760201,85.7080188 28.0796568,91 39.8211598,91 C41.8413869,91 43.9045593,90.8430574 46.0011536,90.5266438 C64.6275646,87.7157642 82.3258895,72.6552356 89.0400943,53.9024927 C95.5638304,35.6825239 91.222759,16.7544171 76.8177475,0.605042922 Z" id="Path"></path>
            </g>
            <g id="Group" opacity="0.550339472" transform="translate(1371.000000, 63.579005) scale(-1, 1) rotate(-56.000000) translate(-1371.000000, -63.579005) translate(1325.000000, 18.079005)" fill="#5865F2" stroke="#5865F2">
                <path d="M76.8177475,0.605042922 C76.1500285,-0.14336914 75.0045204,-0.206037814 74.2602546,0.464896262 C73.51527,1.13619154 73.4529185,2.28698345 74.1204577,3.03557611 C87.5952268,18.141255 91.6834778,35.7684901 85.6321403,52.6698884 C79.3490059,70.2183814 62.8312282,84.305288 45.4633488,86.9263556 C32.5585486,88.8739607 21.1031082,84.1196297 13.2081764,73.5398211 C1.3198687,57.6086134 2.58882216,45.4945961 5.74665109,38.1376189 C9.80255838,28.6876524 19.4765765,21.7791083 30.3922355,20.5371127 C39.9703005,19.4468223 48.4889277,22.9698131 53.7647337,30.2012724 C60.6629386,39.655754 59.4106961,46.8131667 57.1455549,51.1526563 C53.9296869,57.3135107 46.6751616,61.4781783 39.498441,61.2703061 C36.3776277,61.1816308 30.7207044,60.1003704 27.8965552,53.855717 C25.7528828,49.1156535 25.7891797,45.0654873 28.0013131,42.1433572 C30.5473059,38.7807403 35.9393698,37.0074155 41.116707,37.8293323 C44.7154892,38.4011163 47.2542946,40.0920869 48.0824745,42.4688008 C49.0538653,45.2565635 49.0332013,47.5523681 48.0201229,49.2926429 C46.5662709,51.7905404 43.4203014,52.6245575 42.7116137,52.7842091 C41.6485822,52.7363497 37.1143466,52.2445722 37.1143466,47.3280612 C37.1143466,46.4362517 37.2532451,45.2849179 37.9150343,44.8632138 C38.9399721,44.2090756 41.1680977,44.8944578 42.0889964,45.3302489 C42.9913872,45.7629698 44.0716687,45.3800949 44.5027392,44.473476 C44.934708,43.5666765 44.5535907,42.4798175 43.6515593,42.0456518 C43.1820357,41.8197195 38.9735737,39.8905357 35.9871667,41.7810708 C34.8490257,42.5016703 33.4920254,44.0490628 33.4920254,47.3282418 C33.4920254,54.5273735 39.6261988,56.4296477 42.8693794,56.4296477 C42.9701841,56.4296477 43.0715279,56.4211594 43.1708951,56.4043635 C43.3919108,56.3667984 48.6183027,55.4357983 51.1279987,51.16277 C52.7198506,48.4530271 52.8452726,45.1230991 51.5012097,41.2656345 C50.2180609,37.5844369 46.6392241,35.0215229 41.6821838,34.2337397 C36.2417839,33.3686592 29.0111571,34.7986608 25.1189451,39.9391175 C22.9785071,42.7664319 21.1505457,47.7376651 24.5989294,55.3628354 C27.2563285,61.2383396 32.6492908,64.7183474 39.3958394,64.910146 C39.5947535,64.9157447 39.7938473,64.9186343 39.9924021,64.9186343 C48.3015136,64.9184537 56.6088282,60.018558 60.353337,52.8447105 C64.2324317,45.4131449 62.9298767,36.6072029 56.6855548,28.0492265 C50.620022,19.7359651 40.8876054,15.6776718 29.9848839,16.9203898 C17.8015292,18.3066858 6.98200297,26.0691132 2.42063461,36.6962394 C-2.57953073,48.3446663 0.222337173,62.2056406 10.3101757,75.7243752 C17.760201,85.7080188 28.0796568,91 39.8211598,91 C41.8413869,91 43.9045593,90.8430574 46.0011536,90.5266438 C64.6275646,87.7157642 82.3258895,72.6552356 89.0400943,53.9024927 C95.5638304,35.6825239 91.222759,16.7544171 76.8177475,0.605042922 Z" id="Path"></path>
            </g>
            <g id="Group" opacity="0.550339472" transform="translate(1580.000000, 38.079005) rotate(175.000000) translate(-1580.000000, -38.079005) translate(1557.000000, 15.079005)" fill="#5865F2" stroke="#5865F2" stroke-width="2">
                <path d="M38.4088737,0.305845873 C38.0750143,-0.0724723126 37.5022602,-0.104150983 37.1301273,0.235002506 C36.757635,0.574338581 36.7264592,1.15605757 37.0602289,1.53446704 C43.7976134,9.17030472 45.8417389,18.0807752 42.8160702,26.6243392 C39.674503,35.495006 31.4156141,42.6158598 22.7316744,43.9407951 C16.2792743,44.9252988 10.5515541,42.5220106 6.60408822,37.1739755 C0.659934352,29.1208375 1.29441108,22.9972684 2.87332555,19.2783568 C4.90127919,14.5014507 9.73828825,11.0092196 15.1961178,10.3813976 C19.9851503,9.83026181 24.2444638,11.6111143 26.8823669,15.2665773 C30.3314693,20.0457657 29.7053481,23.6637986 28.5727775,25.8573867 C26.9648434,28.9716648 23.3375808,31.0768813 19.7492205,30.9718031 C18.1888139,30.9269782 15.3603522,30.380407 13.9482776,27.223769 C12.8764414,24.827693 12.8945898,22.7803562 14.0006565,21.3032355 C15.2736529,19.6034512 17.9696849,18.7070452 20.5583535,19.1225196 C22.3577446,19.4115533 23.6271473,20.2663296 24.0412372,21.4677455 C24.5269327,22.8769442 24.5166006,24.0374608 24.0100614,24.9171601 C23.2831355,26.1798336 21.7101507,26.6014247 21.3558069,26.6821277 C20.8242911,26.657935 18.5571733,26.4093442 18.5571733,23.9240749 C18.5571733,23.4732701 18.6266226,22.8912772 18.9575172,22.6781081 C19.4699861,22.3474448 20.5840488,22.6939017 21.0444982,22.9141917 C21.4956936,23.1329298 22.0358344,22.9393886 22.2513696,22.4810978 C22.467354,22.0227156 22.2767954,21.4733144 21.8257796,21.253846 C21.5910178,21.1396384 19.4867868,20.1644466 17.9935833,21.1201017 C17.4245129,21.4843608 16.7460127,22.2665592 16.7460127,23.9241662 C16.7460127,27.5632877 19.8130994,28.5248768 21.4346897,28.5248768 C21.485092,28.5248768 21.5357639,28.5205861 21.5854475,28.5120958 C21.6959554,28.4931069 24.3091514,28.0224915 25.5639993,25.8624991 C26.3599253,24.492739 26.4226363,22.8094787 25.7506049,20.8595515 C25.1090305,18.9987263 23.319612,17.7031874 20.8410919,17.3049673 C18.120892,16.8676739 14.5055785,17.5905318 12.5594726,20.1890045 C11.4892535,21.6181963 10.5752728,24.1311274 12.2994647,27.9856091 C13.6281642,30.9556442 16.3246454,32.714769 19.6979197,32.8117222 C19.7973768,32.8145522 19.8969237,32.8160129 19.996201,32.8160129 C24.1507568,32.8159216 28.3044141,30.3390513 30.1766685,26.7127108 C32.1162159,22.9560952 31.4649384,18.5047399 28.3427774,14.1787299 C25.310011,9.9764219 20.4438027,7.92497693 14.9924419,8.55316405 C8.90076459,9.25392911 3.49100149,13.1777935 1.21031731,18.5497474 C-1.28976537,24.4379632 0.111168587,31.4446095 5.15508785,38.2782556 C8.88010052,43.3249326 14.0398284,46 19.9105799,46 C20.9206935,46 21.9522797,45.9206664 23.0005768,45.7607211 C32.3137823,44.3398368 41.1629447,36.7268224 44.5200472,27.2474139 C47.7819152,18.0373198 45.6113795,8.46926579 38.4088737,0.305845873 Z" id="Path"></path>
            </g>
            <g id="Group" opacity="0.550339472" transform="translate(422.500000, 43.079005) scale(-1, 1) rotate(-300.000000) translate(-422.500000, -43.079005) translate(391.000000, 13.079005)" fill="#5865F2" stroke="#5865F2" stroke-width="2">
                <path d="M55.5852929,15.4776092 C51.7571449,11.672297 46.5482059,9.53912088 41.1194938,9.55354353 C35.6903716,9.53861156 30.4809156,11.6718445 26.6526443,15.4776092 C23.5333658,18.5442606 21.7848041,22.7171808 21.796749,27.0661408 C21.7849213,31.4150779 23.5334651,35.5879552 26.6526443,38.6546724 C29.1966586,41.1707129 32.580975,42.555937 36.178518,42.555937 C39.776061,42.555937 43.1593269,41.1707129 45.7043917,38.6546724 C49.9878312,34.4190433 49.9878312,27.5282283 45.7043917,23.2925992 C42.19403,19.8233085 36.4862786,19.8233085 32.9759169,23.2925992 C30.0873788,26.1492346 30.0873788,30.797108 32.9759169,33.6537434 C35.3748315,36.019828 39.2583725,36.019828 41.6572871,33.6537434 C41.9225986,33.3914575 42.0262145,33.0091676 41.9291038,32.6508785 C41.8319931,32.2925894 41.5489091,32.0127337 41.1864869,31.9167305 C40.8240646,31.8207272 40.4373647,31.9231615 40.1720533,32.1854473 C38.5939623,33.741932 36.0392417,33.741932 34.4611507,32.1854473 C32.3903907,30.1343409 32.3903907,26.8130401 34.4611507,24.7619337 C37.1522179,22.1036325 41.529141,22.1025941 44.2191578,24.7619337 C47.6843533,28.1876116 47.6843533,33.7617368 44.2191578,37.1874148 C42.0711358,39.3109405 39.2151594,40.4801777 36.178518,40.4801777 C33.1418766,40.4801777 30.2859001,39.3109405 28.1378781,37.1874148 C25.4136767,34.5094321 23.8867169,30.8651326 23.8975041,27.0671792 C23.8975041,23.2437945 25.4037454,19.6498959 28.1378781,16.9469436 C31.5732632,13.5321429 36.2478271,11.6180558 41.1194938,11.6313797 C46.022656,11.6313797 50.6338133,13.5191889 54.1000591,16.9469436 C58.4673784,21.2405297 60.915653,27.0829574 60.8991528,33.1719263 C60.9159338,39.2612548 58.4676377,45.1041078 54.1000591,49.3979473 C48.5341087,54.8993847 41.1499547,57.9232022 33.2889294,57.9232022 L33.1198186,57.9232022 C25.3459746,57.8806279 18.0952187,54.8557719 12.7036309,49.4062545 C-0.0363980205,36.5249163 -1.4806671,15.9988854 9.3476747,1.66067356 C9.69486902,1.20073308 9.59916907,0.549630811 9.13392287,0.20639593 C8.66867667,-0.136838951 8.0100635,-0.042230379 7.66286917,0.417710092 C-3.77679235,15.5679499 -2.25479533,37.2517955 11.2026414,50.8579362 C16.9891711,56.7072371 24.7693174,59.9543104 33.1082645,60 L33.2889294,60 C41.7108563,60 49.6233502,56.7601955 55.5852929,50.8662434 C60.3481471,46.1838666 63.0180811,39.8123072 63,33.1719263 C63.0180811,26.5315453 60.3481471,20.1599859 55.5852929,15.4776092 Z" id="Path"></path>
            </g>
            <g id="Group" opacity="0.550339472" transform="translate(140.500000, 114.079005) rotate(-241.000000) translate(-140.500000, -114.079005) translate(113.000000, 88.079005)" fill="#5865F2" stroke="#5865F2" stroke-width="2">
                <path d="M48.526843,13.413928 C45.184809,10.1159907 40.6373226,8.26723809 35.8979708,8.27973772 C31.1582609,8.26679668 26.6103232,10.1155985 23.2681815,13.413928 C20.5450019,16.0716925 19.0184797,19.6882233 19.0289079,23.457322 C19.018582,27.2264009 20.5450885,30.8428945 23.2681815,33.5007161 C25.4891464,35.6812845 28.4437083,36.8818121 31.5844204,36.8818121 C34.7251326,36.8818121 37.6787775,35.6812845 39.9006594,33.5007161 C43.6401701,29.8298376 43.6401701,23.8577979 39.9006594,20.1869193 C36.8360579,17.1802007 31.8531003,17.1802007 28.7884989,20.1869193 C26.2667592,22.66267 26.2667592,26.6908269 28.7884989,29.1665776 C30.8827894,31.2171842 34.2731823,31.2171842 36.3674729,29.1665776 C36.599094,28.9392632 36.6895524,28.6079453 36.6047732,28.297428 C36.5199939,27.9869108 36.2728571,27.7443692 35.9564568,27.6611664 C35.6400564,27.5779636 35.3024613,27.66674 35.0708402,27.8940544 C33.6931417,29.2430077 31.4628301,29.2430077 30.0851316,27.8940544 C28.2773252,26.1164288 28.2773252,23.2379681 30.0851316,21.4603425 C32.434476,19.1564815 36.2555993,19.1555816 38.6040267,21.4603425 C41.6291973,24.4292634 41.6291973,29.2601719 38.6040267,32.2290928 C36.7287694,34.0694818 34.2354566,35.0828206 31.5844204,35.0828206 C28.9333843,35.0828206 26.4400715,34.0694818 24.5648142,32.2290928 C22.1865432,29.9081745 20.853483,26.7497815 20.8629004,23.458222 C20.8629004,20.1446219 22.177873,17.0299098 24.5648142,14.6873511 C27.5639599,11.7278572 31.6449284,10.0689817 35.8979708,10.0805291 C40.1785092,10.0805291 44.2041228,11.7166304 47.2302104,14.6873511 C51.0429494,18.4084591 53.180332,23.4718965 53.165927,28.7490028 C53.1805771,34.0264208 51.0431757,39.0902268 47.2302104,42.8115544 C42.3710473,47.5794667 35.9245637,50.2001086 29.0617638,50.2001086 L28.9141274,50.2001086 C22.1274382,50.1632108 15.7974131,47.541669 11.0904714,42.8187539 C-0.0317760496,31.6549275 -1.29264588,13.8657007 8.16066839,1.43925042 C8.46377454,1.04063534 8.38022696,0.476346703 7.97405965,0.178876473 C7.56789233,-0.118593758 6.99291258,-0.0365996618 6.68980642,0.362015413 C-3.29719967,13.4922232 -1.96847212,32.2848894 9.78008376,44.076878 C14.8318161,49.1462722 21.6240072,51.9604024 28.9040404,52 L29.0617638,52 C36.4142397,52 43.3219724,49.1921694 48.526843,44.0840776 C52.6848903,40.0260177 55.0157851,34.5039996 55,28.7490028 C55.0157851,22.994006 52.6848903,17.4719878 48.526843,13.413928 Z" id="Path"></path>
            </g>
            <path d="M356.773983,110.824885 C356.309491,109.007466 350.956771,108.16327 349.117234,107.886787 C345.94689,107.407549 346.241805,106.467505 345.427101,103.746907 L344.026251,99.0798659 C343.701844,97.9960506 342.323113,95.8173607 340.922263,96.1049035 C339.97116,96.2965988 339.668871,97.4799481 339.550905,98.4421106 C339.255989,100.904657 338.725141,103.356144 338.441285,105.803944 C338.271708,107.249031 338.883658,108.911619 337.785097,110.072849 C336.328951,111.613784 331.035213,112.948278 329.612245,114.640357 C328.996609,115.37396 328.753303,116.513072 329.317329,117.290912 C330.806654,119.344263 334.93916,117.383073 336.959333,118.26782 C342.031883,120.501807 341.906544,128.405548 342.846588,130.293009 C343.499089,131.601697 345.194855,132.578606 346.429814,131.804452 C347.28507,131.266231 347.546808,130.163983 347.709011,129.168643 C348.534775,124.107151 346.455619,118.61066 349.530116,115.632011 C350.849864,114.352814 352.766816,113.976796 354.506819,113.394338 C355.7086,112.988829 357.087331,112.045098 356.773983,110.824885 L356.773983,110.824885 Z" id="Path" fill="#FF62A5"></path>
            <path d="M1443.51599,167.909592 C1443.20633,166.697979 1439.63785,166.135182 1438.41149,165.95086 C1436.29793,165.631368 1436.49454,165.004672 1435.9514,163.19094 L1435.0175,160.079579 C1434.80123,159.357036 1433.88208,157.904576 1432.94818,158.096271 C1432.31411,158.224068 1432.11258,159.012967 1432.03394,159.654409 C1431.83733,161.296106 1431.48343,162.930431 1431.29419,164.562298 C1431.18114,165.525689 1431.58911,166.634081 1430.85673,167.408235 C1429.88597,168.435525 1426.35681,169.325187 1425.40816,170.45324 C1424.99774,170.942308 1424.83554,171.701716 1425.21155,172.220276 C1426.20444,173.589177 1428.95944,172.281717 1430.30622,172.871549 C1433.68792,174.360873 1433.60436,179.630034 1434.23106,180.888341 C1434.66606,181.7608 1435.79657,182.412072 1436.61988,181.89597 C1437.19005,181.537156 1437.36454,180.802324 1437.47267,180.138764 C1438.02318,176.764436 1436.63708,173.100108 1438.68674,171.114342 C1439.56658,170.261544 1440.84454,170.010866 1442.00455,169.62256 C1442.80573,169.352221 1443.72489,168.723067 1443.51599,167.909592 L1443.51599,167.909592 Z" id="Path" fill="#FF62A5" transform="translate(1434.273038, 170.079005) scale(-1, 1) translate(-1434.273038, -170.079005) "></path>
            <path d="M1147.19625,50.8347976 C1146.60437,48.5264677 1139.19543,48.3489038 1137.87241,47.3949334 C1136.91496,46.7055679 1136.80006,45.2223875 1136.47975,44.1500412 L1135.15673,39.74228 C1134.85034,38.7186766 1133.54821,36.6610251 1132.22518,36.9325933 C1131.32692,37.1136388 1131.04142,38.2312465 1130.93001,39.1399555 C1130.65148,41.4656937 1130.15012,43.7809869 1129.88204,46.0927985 C1129.72188,47.457603 1130.29983,49.0278244 1129.2623,50.1245422 C1127.90446,51.5624612 1122.85608,52.875041 1121.5435,54.4382991 C1120.96206,55.1311462 1120.73228,56.2069742 1121.26497,56.9416011 C1122.67155,58.8808768 1126.57447,57.0286422 1128.48242,57.8642367 C1133.27316,59.974113 1133.15478,67.4387576 1134.0426,69.2213593 C1134.65885,70.4573429 1136.26041,71.3799786 1137.42676,70.6488334 C1138.2345,70.1405133 1138.4817,69.0995018 1138.63489,68.1594579 C1139.41478,63.3791608 1137.45113,58.1880296 1140.35482,55.3748613 C1141.60125,54.1667309 1143.41171,53.8116032 1145.05504,53.2615034 C1146.19006,52.8785226 1147.49219,51.9872218 1147.19625,50.8347976 L1147.19625,50.8347976 Z" id="Path" fill="#6ADBC6" transform="translate(1134.102072, 53.908134) rotate(4.000000) translate(-1134.102072, -53.908134) "></path>
            <path d="M1207.67204,141.084712 C1207.23683,139.387411 1201.78908,139.256849 1200.81627,138.5554 C1200.11226,138.048514 1200.02778,136.95794 1199.79226,136.16945 L1198.81944,132.928449 C1198.59416,132.1758 1197.63671,130.662821 1196.6639,130.862503 C1196.00341,130.995625 1195.79349,131.817395 1195.71156,132.485564 C1195.50676,134.195665 1195.13812,135.898087 1194.94099,137.597948 C1194.82323,138.601481 1195.2482,139.756055 1194.48531,140.562466 C1193.4869,141.619759 1189.77485,142.584891 1188.80972,143.734346 C1188.38219,144.243792 1188.21323,145.034842 1188.60491,145.575009 C1189.63917,147.000947 1192.50896,145.63901 1193.91186,146.253417 C1197.43447,147.804797 1197.34743,153.293506 1198.00023,154.604243 C1198.45336,155.513054 1199.63097,156.191463 1200.48858,155.653856 C1201.08251,155.280091 1201.26427,154.514642 1201.37692,153.823433 C1201.95036,150.308509 1200.50651,146.4915 1202.64157,144.422994 C1203.55806,143.534663 1204.88928,143.27354 1206.09762,142.869055 C1206.93219,142.587451 1207.88964,141.932083 1207.67204,141.084712 L1207.67204,141.084712 Z" id="Path" fill="#628BF7" transform="translate(1198.043962, 143.344518) rotate(9.000000) translate(-1198.043962, -143.344518) "></path>
            <path d="M726.672036,116.084712 C726.23683,114.387411 720.789081,114.256849 719.816269,113.5554 C719.11226,113.048514 719.027779,111.95794 718.792256,111.16945 L717.819444,107.928449 C717.594161,107.1758 716.636709,105.662821 715.663897,105.862503 C715.003408,105.995625 714.793486,106.817395 714.711565,107.485564 C714.506762,109.195665 714.138117,110.898087 713.940995,112.597948 C713.823233,113.601481 714.248199,114.756055 713.485309,115.562466 C712.486897,116.619759 708.77485,117.584891 707.809717,118.734346 C707.382192,119.243792 707.21323,120.034842 707.604915,120.575009 C708.639168,122.000947 711.508964,120.63901 712.911862,121.253417 C716.434466,122.804797 716.347425,128.293506 717.000234,129.604243 C717.453359,130.513054 718.630974,131.191463 719.488585,130.653856 C720.082512,130.280091 720.264275,129.514642 720.376916,128.823433 C720.950363,125.308509 719.506505,121.4915 721.641572,119.422994 C722.558064,118.534663 723.889281,118.27354 725.097616,117.869055 C725.932186,117.587451 726.889638,116.932083 726.672036,116.084712 L726.672036,116.084712 Z" id="Path" fill="#628BF7" transform="translate(717.043962, 118.344518) scale(-1, 1) rotate(9.000000) translate(-717.043962, -118.344518) "></path>
            <path d="M490.081549,208.604264 C489.820425,207.585883 486.551776,207.507546 485.968089,207.086677 C485.545683,206.782545 485.494995,206.128201 485.353681,205.655107 L484.769994,203.710506 C484.634824,203.258917 484.060353,202.351129 483.476665,202.470939 C483.080372,202.550812 482.954419,203.043874 482.905266,203.444775 C482.782384,204.470836 482.561198,205.492289 482.442924,206.512206 C482.372267,207.114325 482.627247,207.80707 482.169513,208.290916 C481.570465,208.925292 479.343237,209.504372 478.764158,210.194044 C478.507643,210.499712 478.406265,210.974342 478.641276,211.298442 C479.261828,212.154005 480.983706,211.336843 481.825444,211.705487 C483.939007,212.636315 483.886782,215.929541 484.278467,216.715983 C484.550343,217.26127 485.256912,217.668315 485.771478,217.345751 C486.127835,217.121492 486.236892,216.662222 486.304477,216.247497 C486.648545,214.138542 485.78223,211.848337 487.063271,210.607234 C487.613165,210.074235 488.411896,209.917561 489.136897,209.67487 C489.637639,209.505908 490.21211,209.112687 490.081549,208.604264 L490.081549,208.604264 Z" id="Path" fill="#FFD04D" transform="translate(484.304705, 209.960148) rotate(4.000000) translate(-484.304705, -209.960148) "></path>
            <path d="M130.330478,220.544266 C129.912681,218.914857 124.682842,218.789518 123.748942,218.116127 C123.073093,217.629516 122.991992,216.582565 122.76589,215.825615 L121.83199,212.714254 C121.615718,211.99171 120.696564,210.53925 119.762664,210.730946 C119.128596,210.858742 118.92707,211.647642 118.848426,212.289084 C118.651815,213.930781 118.297916,215.565106 118.108679,217.196973 C117.995628,218.160364 118.403594,219.268756 117.67122,220.042909 C116.712744,221.057911 113.149179,221.984438 112.222652,223.087914 C111.812228,223.576983 111.650024,224.336391 112.026042,224.854951 C113.018925,226.223852 115.773929,224.916392 117.120711,225.506223 C120.502411,226.995548 120.418852,232.264709 121.045548,233.523016 C121.480549,234.395475 122.611059,235.046747 123.434365,234.530644 C124.004536,234.17183 124.179027,233.436999 124.287163,232.773438 C124.837672,229.399111 123.451569,225.734783 125.501233,223.749017 C126.381065,222.896219 127.659033,222.645541 128.819035,222.257235 C129.620222,221.986896 130.539376,221.357742 130.330478,220.544266 L130.330478,220.544266 Z" id="Path" fill="#FFD04D" transform="translate(121.087527, 222.713680) rotate(4.000000) translate(-121.087527, -222.713680) "></path>
        </g>
    </g>
</svg>