<?xml version="1.0" encoding="UTF-8"?>
<svg width="2284px" height="416px" viewBox="0 0 2284 416" version="1.1" xmlns="http://www.w3.org/2000/svg" xmlns:xlink="http://www.w3.org/1999/xlink">
    <title>Group 7</title>
    <defs>
        <rect id="path-1" x="0" y="0" width="2284" height="416"></rect>
    </defs>
    <g id="Page-1" stroke="none" stroke-width="1" fill="none" fill-rule="evenodd">
        <g id="Group-4" transform="translate(-695.000000, -52.000000)">
            <g id="Group-7" transform="translate(695.000000, 52.000000)">
                <mask id="mask-2" fill="white">
                    <use xlink:href="#path-1"></use>
                </mask>
                <g id="Rectangle"></g>
                <g id="Group-6" mask="url(#mask-2)">
                    <g transform="translate(12.000000, -72.605089)">
                        <g id="Group" transform="translate(1573.000000, 260.605089)">
                            <path d="M103.425123,309.95979 C103.425123,309.95979 42.9358064,312.822221 37.4379319,270.245133 C31.9375179,227.665513 16.2869865,134.498551 15.0172695,126.910956 C13.7475525,119.32083 82.6982632,94.4498171 154.183329,107.939437 C225.668395,121.429058 216.363909,129.439311 212.133212,141.663488 C207.905054,153.890197 175.334274,283.312095 168.988229,291.745006 C162.644723,300.175386 144.878843,309.95979 103.425123,309.95979 L103.425123,309.95979 Z" id="Path" fill="#FF4B3D" fill-rule="nonzero"></path>
                            <path d="M165.209296,122.624125 C165.209296,122.624125 128.765565,112.685566 79.6116767,119.231784 C30.4603248,125.775439 22.7875599,128.924188 32.8572713,134.501166 C42.9269826,140.07558 177.437528,147.832067 191.824279,143.955105 C206.21103,140.07558 194.700615,127.472891 165.209296,122.624125 L165.209296,122.624125 Z" id="Path" fill="#171D8F" fill-rule="nonzero"></path>
                            <path d="M111.811705,66 C110.62394,66.010311 109.276085,66.9754269 107.739737,69.0818304 C107.739737,69.0818304 96.7477488,113.29588 91,141.263813 C100.401417,141.91233 110.117849,142.49957 119.777476,143 C120.337791,116.85251 120.503045,65.9183952 111.811705,66 L111.811705,66 Z" id="Path" fill="#FFC517" fill-rule="nonzero"></path>
                            <path d="M44.8714874,37 L36,47.3623452 C36,47.3623452 57.2134336,114.904953 59.435745,138.74472 C71.2145028,139.927531 85.6569899,141.046613 100.609391,142 C85.2789941,112.404224 44.8740243,37 44.8740243,37 L44.8714874,37 Z M95.3478912,48.6114348 C95.3478912,48.6114348 94.9927273,67.6026948 96.9106125,74.1107065 C98.8310345,80.616169 115.379136,82.7855062 123.771152,80.1343773 C132.163169,77.4832484 135.760472,57.0007283 135.998939,49.0498908 C136.239943,41.096504 95.3478912,48.6114348 95.3478912,48.6114348 L95.3478912,48.6114348 Z" id="Shape" fill="#7738C7" fill-rule="nonzero"></path>
                            <path d="M56.6651459,59.0197031 C56.6651459,59.0197031 39.3435974,76.7028957 22.5030617,64.9933106 C5.66252598,53.2837254 19.1334275,16.2438202 6.86378529,12.1838906 C-5.40331192,8.11890511 -1.55521006,4.05644758 21.0574785,0.234147774 C43.672712,-3.59068001 89.0533366,40.446663 56.6626009,59.0197031 L56.6651459,59.0197031 Z M96.0827396,48.7257846 C94.8789352,13.5995572 91.0308334,3.0831768 100.892867,1.41218462 C110.757446,-0.261335534 146.123334,2.60538932 147.808151,10.7303044 C149.490423,18.8552194 139.62839,47.7702096 136.981547,50.8770922 C134.334705,53.9839748 97.5257778,53.2660296 96.0827396,48.7283126 L96.0827396,48.7257846 Z" id="Shape" fill="#FFC517" fill-rule="nonzero"></path>
                            <path d="M190.910543,70 L192.094249,70.1700119 C192.094249,70.1700119 181.610357,82.7204405 179.581869,83.3979505 C177.553381,84.077998 158.958067,73.392625 145.600905,87.3006111 C134.257055,99.1151675 118.732295,129.54983 114,143.023905 C146.597444,144.840749 178.694089,145.688271 188.72271,144.333251 C194.557774,134.3736 199.659345,123.916601 202.067226,117.661687 C207.816294,102.736167 192.769569,96.9684505 194.122737,88.8281805 C195.475905,80.6853731 209,71.1875456 209,71.1875456 L190.910543,70 Z" id="Path" fill="#7738C7" fill-rule="nonzero"></path>
                            <path d="M187.316495,53.9628461 C181.373534,61.5074928 175.770897,63.6871132 181.203372,69.7218273 C186.635848,75.7590496 209.554342,89.1703615 216.343032,85.3152677 C223.134261,81.4576658 225.341284,71.2317599 220.07643,66.2028315 C214.816656,61.1713949 193.427077,49.6036054 187.313955,53.9628461 L187.316495,53.9628461 Z" id="Path" fill="#FFC517" fill-rule="nonzero"></path>
                            <path d="M34.8114851,19.5883809 C36.7302374,22.4360402 48.4864023,31.3381144 48.9660903,35.6096034 C49.4457784,39.8836035 44.7681852,31.4561391 39.2479653,26.4714798 C33.7302834,21.4868204 29.2938032,19.2317957 26.6542498,21.3687957 C24.0146963,23.5032846 21.7355435,26.5920156 22.2126935,29.4396749 C22.6949196,32.2873342 21.7355435,31.2200898 26.8928248,39.0524084 C32.0526441,46.8872383 34.2099715,49.6168729 33.7302834,50.6841173 C33.2505953,51.7538729 26.5324242,44.0370678 22.8167452,37.8671393 C19.0959901,31.6946996 16.0960361,28.7265045 16.5757241,34.7784083 C17.0554122,40.8303121 18.7355895,48.1930432 21.2558554,51.9899223 C23.7735833,55.7893125 24.9740725,57.2131422 24.3750969,56.9745817 C23.7735833,56.7385323 16.0960361,52.3465075 15.0173724,45.699458 C13.9387087,39.0524084 8.06062629,24.216455 12.8600451,22.4360402 C17.6569258,20.6556253 22.3345191,18.4006006 24.7329594,18.0440154 C27.1339378,17.6899413 34.8089471,19.5883809 34.8089471,19.5883809 L34.8114851,19.5883809 Z" id="Path" fill="#FFAC17" fill-rule="nonzero"></path>
                            <path d="M24.4542114,0.00479107371 C23.3003456,-0.0207613194 22.1873245,0.05589586 21.1228066,0.234762612 C-1.55882683,4.10083969 -5.42121416,8.20710927 6.8858376,12.3133789 C15.6853413,15.2493488 5.19333079,47.1923955 7.24322969,55.3027251 C9.29312858,63.4130547 15.9942302,50.6649657 16.4971319,50.4886542 C19.9102263,49.2928022 22.2970949,42.6312933 23.4918056,33.9204825 C24.6865163,25.2096717 28.7837613,25.2096717 40.2152024,21.9645177 C46.4338247,20.2014026 43.9091049,12.0450787 40.3224201,4.96451058 C34.8441099,1.94932819 29.299427,0.104445407 24.4542114,0.00479107371 L24.4542114,0.00479107371 Z" id="Path" fill="#FF4B3D" fill-rule="nonzero"></path>
                            <path d="M101.66583,17.302808 C101.66583,17.8012416 99.397732,44.4549769 100.154603,45.955262 C100.911474,47.455547 104.60782,10.7234848 104.60782,10.7234848 C104.60782,10.7234848 110.323327,11.720352 110.240348,14.5539469 C110.154854,17.3850496 108.304166,19.3015266 107.884241,24.7145152 C107.464316,30.129996 106.541487,37.6239448 106.961412,39.3759388 C107.381337,41.1229485 111.751575,13.1383955 111.751575,13.1383955 C111.751575,13.1383955 116.036319,14.3047301 116.036319,16.5526655 C116.036319,18.8030931 115.784867,18.8853346 115.364942,22.8827719 C114.945017,26.8802091 113.685242,42.4562583 113.768221,43.4556176 C113.8512,44.4549769 118.558384,17.0535912 118.641363,15.4685725 C118.726857,13.888538 121.163428,13.7215628 122.003278,14.3047301 C122.843128,14.8878973 123.685493,13.6368291 123.265568,18.9675761 C122.843128,24.3008154 122.591676,26.7979676 122.591676,32.2109562 C122.591676,37.626437 119.901138,48.3701726 121.585867,45.0381442 C123.265568,41.7061158 125.113741,13.8038043 125.113741,13.8038043 C125.113741,13.8038043 126.793441,12.0543025 128.558635,14.5539469 C130.323829,17.0535912 131.835056,15.802523 131.583604,19.7177187 C131.332152,23.6304222 130.577795,26.2148003 130.492302,31.5455474 C130.406808,36.8762944 127.467333,48.1184637 129.483979,43.8718096 C131.500625,39.6251556 134.608573,13.220637 134.608573,13.220637 C134.608573,13.220637 138.304919,14.6361884 137.38209,20.1339107 C136.459261,25.631633 135.533917,23.8821312 135.616896,30.1275039 C135.70239,36.3753687 136.039336,34.8775758 135.282465,39.6226634 C134.525594,44.3727354 136.879186,36.4576102 137.719036,32.3779314 C138.558886,28.2982526 138.978811,15.6380399 139.232778,14.8878973 C139.48423,14.1377548 141.669349,15.0548726 137.296596,12.9714203 C132.923844,10.8879679 132.7604,9.22319979 123.51702,9.14095825 C114.271125,9.05622454 117.381588,8.64252467 111.246156,8.89174146 C105.110724,9.14095825 102.92812,6.39209709 102.002776,9.47241657 C101.077432,12.5552282 101.66583,17.302808 101.66583,17.302808 L101.66583,17.302808 Z" id="Path" fill="#FFAC17" fill-rule="nonzero"></path>
                            <path d="M147.933822,19.570273 C146.122426,23.0293459 145.520328,36.1586736 140.695892,37.8276132 C135.874007,39.4990776 138.52732,28.5209397 130.205104,26.2536058 C121.885439,23.9862719 114.410242,29.1168092 111.63702,26.4909436 C108.861247,23.8650781 107.776961,20.2873363 104.161823,24.4634725 C100.541583,28.6396086 100.661492,32.9369386 95.839607,33.2929454 C91.0177222,33.651477 92.5841969,34.3685403 92.3443783,27.089338 C92.1020084,19.8076108 90.5329824,12.5284085 91.1376315,8.47094128 C91.7397293,4.41347403 94.1506717,0 109.343436,0 C124.538751,0 142.747107,3.57774182 146.846985,5.25173111 C150.946862,6.91814579 147.931271,19.5677481 147.931271,19.5677481 L147.933822,19.570273 Z" id="Path" fill="#FF4B3D" fill-rule="nonzero"></path>
                            <path d="M135.626281,101 C134.411566,102.866774 133.199403,104.791965 132,106.79081 C133.577088,108.009928 135.937615,109.528746 139.377606,112.287001 C146.369872,117.889864 150.807664,117.889864 159.507165,121.455784 C168.204114,125.019164 174.004633,125.359501 181.509835,129.263219 C185.289231,131.229046 190.321621,132.676749 195.259589,134 C195.861843,132.851997 196.441129,131.724313 197,130.616948 C188.379608,128.386978 177.508421,124.760102 172.810333,120.945278 C166.328452,115.682752 169.059008,117.039021 158.481292,115.172247 C152.05045,114.036943 142.299556,106.635881 135.626281,101 L135.626281,101 Z" id="Path" fill="#171D8F" fill-rule="nonzero"></path>
                            <path d="M127.657667,115 C123.353957,122.729418 119.487002,130.564995 116.733649,136.909285 C119.308213,138.061873 122.043687,139.333259 124.7102,140.827074 C126.784155,141.989772 129.026682,143.301599 131.287087,144.643758 C157.645719,145.819095 181.09775,146.205818 189.424217,145.096199 C190.647707,143.031297 191.83977,140.948315 193,138.847958 C185.342715,136.057482 177.317636,133.38833 172.853015,132.551693 C162.950649,130.691375 150.317917,125.115477 140.926378,123.765736 C135.317506,122.956902 130.577039,118.48304 127.657667,115 L127.657667,115 Z" id="Shape" fill="#FFFFFF" fill-rule="nonzero"></path>
                            <path d="M88.533218,197.307214 C83.2323796,198.26018 77.4524269,208.03187 79.3790778,211.843737 C81.3082772,215.658124 100.09822,194.208812 88.533218,197.307214 Z M133.582699,217.087574 C125.152327,233.053547 112.264664,239.726835 101.420881,243.899215 C90.577099,248.071596 104.795069,239.131861 109.010255,237.820901 C113.227989,236.509942 124.790443,229.955145 126.9592,218.635515 C129.125408,207.315885 138.521654,208.866346 133.585248,217.087574 L133.582699,217.087574 Z" id="Shape" fill="#FF4B3D" fill-rule="nonzero"></path>
                            <path d="M97.5005991,207.5 L97.5005991,216.500479 C97.5005991,226.331671 105.381645,234.32211 115.170522,234.498461 L115.501198,234.501438 C125.442106,234.500115 133.500474,226.441586 133.501797,216.500479 L133.501797,207.5 L151.5,207.5 L151.5,216.500479 C151.5,226.048146 147.70728,235.204765 140.956195,241.955984 C134.33013,248.582182 125.386976,252.358512 116.031198,252.496103 L115.501198,252.5 C105.953307,252.500636 96.7962553,248.70812 90.0446521,241.956832 C83.2930489,235.205543 79.5,226.048561 79.5,216.500479 L79.5,207.5 L97.5005991,207.5 Z M151.5,180.5 L151.5,198.5 L124.501498,198.5 L124.501498,216.5 C124.501498,221.381803 120.614555,225.355791 115.766569,225.496163 L115.501198,225.5 C110.53047,225.5 106.500899,221.470563 106.500899,216.5 L106.500899,198.5 L79.5,198.5 L79.5,180.5 L151.5,180.5 Z" id="Combined-Shape" fill="#FFFFFF" fill-rule="nonzero" transform="translate(115.500000, 216.500000) rotate(-90.000000) translate(-115.500000, -216.500000) "></path>
                            <g transform="translate(184.000000, 60.000000)" fill="#FFAC17" fill-rule="nonzero" id="Shape">
                                <path d="M7.57245827,0.44969175 C2.91945904,5.82446284 -3.40488337,13.1527565 2.20244776,9.24312733 C7.81230359,5.3360822 10.9126199,-1.86817828 7.57245827,0.44969175 L7.57245827,0.44969175 Z M11.9881369,1.97685027 C9.24380145,6.86065669 6.85544699,10.2819052 7.63305077,11.9305129 C8.40812986,13.5791205 16.0453098,-4.37468211 11.9881369,1.97685027 Z M16.6436608,5.0311673 C11.6902237,12.4809101 8.58738268,18.9538916 12.7051481,15.840142 C16.8203889,12.7238084 20.5190562,0.206793441 16.6436608,5.0311673 Z M23.6824898,9.42659308 C17.5979927,16.8169033 12.7026234,23.8402821 17.716653,19.8092038 C22.7281579,15.7781254 26.3081649,7.35162135 23.6824898,9.42659308 Z M29.0525003,12.8478416 C25.7704064,20.5404827 23.2053238,25.5483223 26.4874177,21.6412772 C29.7695116,17.731648 33.2889261,9.00022902 29.0525003,12.8478416 Z"></path>
                            </g>
                            <path d="M27.0731978,7.95986741 C34.9852076,12.8742991 36.4230632,18.5118145 30.6691048,18.8695506 C24.9151464,19.2272867 20.9616774,13.714091 27.0731978,7.95986741 Z M103.649788,10.2356781 C100.682784,16.9337161 90.5138226,21.1732698 100.682784,16.9337161 C110.851745,12.6941625 124.330057,13.3715777 124.330057,13.3715777 C124.330057,13.3715777 139.099142,16.8778991 133.905617,12.777888 C128.712093,8.6778768 106.616791,3.53510288 103.649788,10.2356781 Z M27.7933936,142.50417 C27.7933936,142.50417 59.1954504,153.776663 95.6312699,154.256182 C132.069625,154.738238 187.20264,154.738238 194.156079,150.179005 C201.106983,145.622309 201.106983,159.292396 172.821548,158.812878 C144.533577,158.333359 95.3928953,158.574387 77.1749855,156.656312 C58.9545399,154.735701 11.2517141,138.668021 27.7933936,142.50417 L27.7933936,142.50417 Z M181.124086,215.705607 C181.124086,215.705607 165.868108,283.203563 158.410025,289.985327 C150.951941,296.769627 111.965006,300.501754 87.5569625,296.092212 C63.1489194,291.68267 48.2327522,283.203563 55.3510252,285.575785 C62.4692981,287.950544 117.389297,291.342694 139.086462,273.704527 C160.783628,256.068898 178.750483,202.139543 181.124086,215.705607 Z" id="Shape" fill="#CF1531" fill-rule="nonzero"></path>
                        </g>
                        <g id="Group" transform="translate(1775.000000, 97.605089)">
                            <path d="M12.2390306,210 C11.076821,211.160605 -7.18647263,244.541804 3.16272708,272.838451 C16.8325256,310.3094 78.4849773,326.226264 114.624161,327 L147,254.21351 L107.374187,247.802551 C107.374187,247.802551 76.5479614,248.963155 67.4716579,247.415683 C67.4716579,247.415683 63.3762526,230.504015 65.0365521,218.179499 L12.2390306,210 Z" id="Path" fill="#E8EDEC" fill-rule="nonzero"></path>
                            <path d="M79,248.329866 C93.9278846,264.383358 112.615385,276.863299 134.288462,285 L148,254.377415 C147.889423,254.377415 110.072115,248.274889 108.358173,248 L108.413462,248 C108.358173,248 91.4951923,248.659733 79,248.329866 L79,248.329866 Z" id="Shape" fill="#BEC9CE" fill-rule="nonzero"></path>
                            <g transform="translate(1.000000, 258.000000)" fill="#D0DBE2" fill-rule="nonzero" id="Shape">
                                <path d="M114.455319,69.2101134 L114.455319,69.3315136 L114.455319,69.2101134 Z M114.455319,69.3315136 L114.455319,69.2101134 L114.455319,69.3315136 Z M114.455319,69.0887131 C114.455319,69.0887131 114.455319,69.1494133 114.455319,69.0887131 L114.455319,69.2101134 L114.455319,69.0887131 Z"></path>
                                <path d="M114.455319,69.309974 L114.455319,68.9780827 C114.621277,67.9824087 115.229787,64.5528649 117,54.3195487 C79.106383,53.5451356 14.3829787,37.6143514 0.0553191489,0.110630445 C0.0553191489,0.0553152227 0,0 0,0 C0.331914894,5.03368526 1.21702128,10.178001 3.04255319,15.1010558 C16.706383,52.6047768 78.3319149,68.5355609 114.455319,69.309974 L114.455319,69.309974 Z M114.510638,69.0333979 L114.510638,68.9780827 L114.510638,69.0333979 Z M114.510638,69.0333979 L114.510638,68.9780827 L114.510638,69.0333979 Z"></path>
                            </g>
                            <path d="M64.0492507,224.326592 C63.7424117,233.668012 64.867488,243.119982 67.4756193,252.019204 C67.9870176,253.732719 70.4417295,253.014148 69.9303312,251.300633 C67.4244795,242.567235 66.2994032,233.446914 66.6062422,224.326592 C66.657382,222.557803 64.1003905,222.557803 64.0492507,224.326592 Z" id="Path" fill="#BEC9CE" fill-rule="nonzero"></path>
                            <path d="M147,254.043885 L122.462442,250 C116.068468,260.746763 105.466494,285.397842 110.166338,326.778417 C111.860468,326.889209 113.499949,326.944604 115.03013,327 L147,254.043885 Z" id="Path" fill="#FFB817" fill-rule="nonzero"></path>
                            <path d="M122,250 C118.888889,255.111111 114.888889,263.388889 112,275.055556 C118.722222,278.833333 125.777778,282.166667 133.222222,285 L147,254.055556 C136.111111,252.333333 132.388889,251.722222 122,250 Z" id="Path" fill="#FF5D13" fill-rule="nonzero"></path>
                            <g transform="translate(110.000000, 312.000000)" fill="#FF5D13" fill-rule="nonzero">
                                <path d="M5.62580645,15.2238842 L5.62580645,15.1012397 L5.62580645,15.2238842 Z" id="Shape"></path>
                                <path d="M0,0 C0.103225806,4.79491918 0.464516129,9.81029441 1.03225806,15.1012397 C2.63225806,15.2114677 4.18064516,15.2665817 5.62580645,15.3216958 L5.62580645,15.1563537 L5.62580645,15.2114677 L5.62580645,15.0461257 C5.78064516,14.1091875 6.29677419,10.7472326 8,0.385798095 C5.47096774,0.330684081 2.78709677,0.220456054 0,0 L0,0 Z" id="Path"></path>
                            </g>
                            <path d="M290.536147,415 C320.084868,415 344,390.932968 344,361.320536 L344,286.679464 C344,257.011578 320.029636,233 290.536147,233 L274.463853,233 C244.915132,233 221,257.067032 221,286.679464 L221,361.320536 C221,390.988422 244.970364,415 274.463853,415 L290.536147,415 Z" id="Path" fill="#D0DBE2" fill-rule="nonzero"></path>
                            <path d="M264.536147,415 C294.084868,415 318,390.932968 318,361.320536 L318,286.679464 C318,257.011578 294.029636,233 264.536147,233 L248.463853,233 C218.915132,233 195,257.067032 195,286.679464 L195,361.320536 C195,390.988422 218.970364,415 248.463853,415 L264.536147,415 Z" id="Path" fill="#BEC9CE" fill-rule="nonzero"></path>
                            <ellipse id="Oval" fill="#FFB817" fill-rule="nonzero" cx="331" cy="308.5" rx="9" ry="10.5"></ellipse>
                            <path d="M328.3125,313.83815 C326.346875,313.83815 324.4875,313.014451 323,311.641618 C324.115625,315.924855 327.409375,319 331.2875,319 C336.121875,319 340,314.277457 340,308.401734 C340,304.99711 338.671875,301.921965 336.6,300 C336.865625,300.988439 337.025,302.086705 337.025,303.239884 C337.025,309.060694 333.09375,313.83815 328.3125,313.83815 Z" id="Path" fill="#FF5D13" fill-rule="nonzero"></path>
                            <path d="M332.909091,365 C335.145455,365 337,363.116923 337,360.846154 L337,333.153846 C337,330.883077 335.145455,329 332.909091,329 L329.090909,329 C326.854545,329 325,330.883077 325,333.153846 L325,360.846154 C325,363.116923 326.854545,365 329.090909,365 L332.909091,365 Z" id="Path" fill="#FDCC00" fill-rule="nonzero"></path>
                            <path d="M329.343891,329 C326.954751,329 325,330.658986 325,332.760369 L325,361.239631 C325,363.285714 326.954751,365 329.343891,365 L332.656109,365 C335.045249,365 337,363.341014 337,361.239631 L334.176471,361.239631 C331.78733,361.239631 329.832579,359.580645 329.832579,357.479263 L329.832579,329 L329.343891,329 Z" id="Path" fill="#FCA800" fill-rule="nonzero"></path>
                            <path d="M279.260328,407.790058 C302.069343,360.703636 259.670103,252 259.670103,252 L139.353935,255.327662 C139.353935,255.383123 87.4648126,345.063623 106.000606,405.848922 C118.3763,446.224558 261.113009,445.226259 279.260328,407.790058 Z" id="Path" fill="#E8EDEC" fill-rule="nonzero"></path>
                            <path d="M279.31738,407.484506 C289.77122,385.833743 286.414987,351.071323 279.757542,320 L254.888407,336.472209 C254.888407,336.472209 266.11253,395.364486 232,432 C254.998448,427.647811 273.540258,419.439252 279.31738,407.484506 L279.31738,407.484506 Z" id="Path" fill="#D0DBE2" fill-rule="nonzero"></path>
                            <g transform="translate(56.000000, 217.000000)" fill="#BEC9CE" fill-rule="nonzero" id="Shape">
                                <path d="M0,0 C2.70809549,5.24092179 5.69252724,10.3163408 9.00856253,15.1710894 C8.62169175,10.6473464 8.45588998,5.73743017 9.00856253,1.43435754 L0,0 Z M203.217696,34.976257 L83.3982875,38.2863128 C83.3982875,38.2863128 77.2636222,48.8784916 70.0236118,65.2081006 C91.4120394,74.5314246 115.232226,79 139.991956,79 C167.128179,79 191.777374,73.7039106 213,63.5530726 C207.694344,46.4511173 203.217696,34.976257 203.217696,34.976257 Z"></path>
                            </g>
                            <path d="M323,370.865263 C323,370.865263 316.271592,284.763789 269.39334,252 L217,270.367579 L219.040583,273.566737 C219.040583,273.566737 258.197711,335.950316 272.206035,383 C272.261186,383 302.869927,373.181895 323,370.865263 L323,370.865263 Z" id="Path" fill="#E8EDEC" fill-rule="nonzero"></path>
                            <path d="M288,269.775839 C282.74238,263.061745 276.599266,256.95302 269.459971,252 L216.883771,270.326174 C214.780723,271.812081 215.3895,286.561074 230.553583,293 C252.137497,288.98255 271.452333,281.167785 288,269.775839 Z" id="Path" fill="#BEC9CE" fill-rule="nonzero"></path>
                            <path d="M284,379.532886 C283.503737,377.386577 282.897193,375.020134 282.070087,372.378523 C269.608363,331.873826 251.026059,301 251.026059,301 C251.026059,301 250.474655,329.672483 254.444762,338.037584 C261.557869,353.006711 268.174714,368.691275 272.420522,383 C272.420522,383 277.107454,381.514094 284,379.532886 L284,379.532886 Z" id="Path" fill="#D0DBE2" fill-rule="nonzero"></path>
                            <path d="M273.926805,383.280843 C270.646894,371.985326 266.38301,360.969401 261.73647,350.177149 C260.369841,346.9898 258.948546,343.802451 257.527251,340.671021 C257.19926,340 256.269952,339.832245 255.668635,340.167755 C254.957988,340.559184 254.848657,341.39796 255.176648,342.068981 C260.096515,352.805314 264.633725,363.765321 268.460287,375.004919 C269.498926,377.968595 270.428234,380.988188 271.302877,384.007782 C271.794863,385.741252 274.473457,385.014313 273.926805,383.280843 Z" id="Path" fill="#BEC9CE" fill-rule="nonzero"></path>
                            <path d="M288,269.266839 C282.750476,262.360104 277.390437,257.012953 270.538427,252 C247.219491,273.889896 244.5671,309.816062 254.347791,338 C256.337084,314.160622 268.383359,283.13601 288,269.266839 Z" id="Path" fill="#FFB817" fill-rule="nonzero"></path>
                            <path d="M270.549254,253 C260.222388,262.874608 253.926866,275.514107 251,289 C264.474627,284.54232 276.844776,278.335423 288,270.492163 C284.410448,265.357367 277.562687,258.191223 270.549254,253 Z" id="Path" fill="#FF5D13" fill-rule="nonzero"></path>
                            <path d="M268.753792,425.819102 C274.327188,433.696744 285.251044,427.705298 285.251044,427.705298 C285.251044,427.705298 281.572603,442.57296 294.837285,450.450602 C309.662517,459.326818 329.726742,428.149109 331.565962,405.681187 C333.349449,383.213264 329.448072,365.072498 323.317337,364.073923 C316.684996,363.019873 272.878105,373.504903 267.862049,378.497775 C264.07214,382.21469 275.386133,397.41521 274.438656,399.967122 C273.491179,402.574511 262.901727,417.608602 268.753792,425.819102 Z" id="Path" fill="#FFB817" fill-rule="nonzero"></path>
                            <path d="M268.727859,426.005194 C274.21884,433.829246 284.981164,427.878559 284.981164,427.878559 C284.981164,427.878559 281.357116,442.645079 294.425652,450.46913 C298.269339,452.783286 302.497395,452.342495 306.670541,450.028338 C306.780361,449.97324 306.89018,449.918141 307,449.807943 C301.893387,446.557104 296.622045,440.661516 295.2493,426.996975 C293.656915,411.238674 297.830061,404.792097 282.235673,373 C275.097398,375.203958 269.441687,377.352817 267.849302,379.005786 C264.115435,382.697416 275.262127,397.79453 274.32866,400.329081 C273.395193,402.918732 262.962328,417.850549 268.727859,426.005194 L268.727859,426.005194 Z" id="Path" fill="#FF5D13" fill-rule="nonzero"></path>
                            <path d="M180.439384,378.910017 C189.354444,379.855911 197.389004,373.234652 198.269503,364.220837 L200.911003,338.069647 C201.846534,329.055832 195.297817,320.932271 186.382757,320.042017 L138.560616,315.089983 C129.645556,314.144089 121.610996,320.765348 120.730497,329.779163 L118.088997,355.930353 C117.153466,364.944168 123.702183,373.067729 132.617243,373.957983 L180.439384,378.910017 Z" id="Path" fill="#BEC9CE" fill-rule="nonzero"></path>
                            <path d="M175.675937,370.940144 C182.447933,371.602756 188.553831,366.688383 189.219929,359.951826 L191.939829,333.447342 C192.605927,326.710786 187.6657,320.636842 180.893704,319.97423 L132.324063,315.059856 C125.552067,314.397244 119.446169,319.311617 118.780071,326.048174 L116.060171,352.552658 C115.394073,359.289214 120.3343,365.363158 127.106296,366.02577 L175.675937,370.940144 Z" id="Path" fill="#D0DBE2" fill-rule="nonzero"></path>
                            <ellipse id="Oval" fill="#FFB817" fill-rule="nonzero" transform="translate(138.422508, 341.316654) rotate(-84.150000) translate(-138.422508, -341.316654) " cx="138.422508" cy="341.316654" rx="10.673106" ry="9.06937506"></ellipse>
                            <path d="M134.243853,345.637932 C132.20151,345.422818 130.379961,344.454806 129,342.94901 C129.71758,347.251285 132.808693,350.585548 136.838181,350.961997 C141.806042,351.446003 146.332315,347.251285 146.939498,341.550771 C147.270689,338.216508 146.221918,335.097359 144.289972,333 C144.455568,334.02179 144.510766,335.097359 144.400369,336.172928 C143.737988,341.92722 139.266913,346.121938 134.243853,345.637932 Z" id="Path" fill="#FF5D13" fill-rule="nonzero"></path>
                            <path d="M177.405309,341.980586 C179.638445,342.197639 181.653713,340.569742 181.87158,338.34495 L181.980514,337.368212 C182.19838,335.143419 180.564379,333.13568 178.331243,332.918627 L159.594691,331.019414 C157.361555,330.802361 155.346287,332.430258 155.12842,334.65505 L155.019486,335.631788 C154.80162,337.856581 156.435621,339.86432 158.668757,340.081373 L177.405309,341.980586 Z" id="Path" fill="#A0CF30" fill-rule="nonzero"></path>
                            <path d="M177.405309,357.980586 C179.638445,358.197639 181.653713,356.569742 181.87158,354.34495 L181.980514,353.368212 C182.19838,351.143419 180.564379,349.13568 178.331243,348.918627 L159.594691,347.019414 C157.361555,346.802361 155.346287,348.430258 155.12842,350.65505 L155.019486,351.631788 C154.80162,353.856581 156.435621,355.86432 158.668757,356.081373 L177.405309,357.980586 Z" id="Path" fill="#FDCC00" fill-rule="nonzero"></path>
                            <path d="M179.572292,340.986857 C181.088551,341.148297 182.496506,339.802959 182.713114,338.027113 L182.983875,335.551692 C183.146331,333.775846 182.063289,332.161441 180.54703,332 L180.330421,334.152541 C180.167965,335.928386 178.76001,337.273724 177.189599,337.112284 L156.070277,334.959743 L156.016125,335.282624 C155.853669,337.05847 156.936711,338.672876 158.45297,338.834316 L179.572292,340.986857 Z" id="Path" fill="#89A520" fill-rule="nonzero"></path>
                            <path d="M178.572292,357.986857 C180.088551,358.148297 181.496506,356.802959 181.713114,355.027113 L181.983875,352.551692 C182.146331,350.775846 181.063289,349.161441 179.54703,349 L179.330421,351.152541 C179.167965,352.928386 177.76001,354.273724 176.189599,354.112284 L155.070277,351.959743 L155.016125,352.282624 C154.853669,354.05847 155.936711,355.672876 157.45297,355.834316 L178.572292,357.986857 Z" id="Path" fill="#FCA800" fill-rule="nonzero"></path>
                            <path d="M112.999938,398.783362 C130.191327,400.435229 146.009602,392.616391 150.842964,376.15278 C151.39221,374.280664 150.458492,372.298424 148.700906,371.47249 C143.318298,368.994689 135.628859,367.893444 130.026553,368.27888 C128.598515,368.389004 127.280325,369.214938 126.511381,370.48137 C122.007567,378.135021 109.759388,378.905893 103.443063,374.390789 C103.717686,365.470706 104.871102,356 104.871102,356 C79.7156501,362.772656 85.9770507,396.140374 112.999938,398.783362 L112.999938,398.783362 Z" id="Path" fill="#82D1FF" fill-rule="nonzero"></path>
                            <path d="M150.839447,376.065403 C151.400995,374.190642 150.446363,372.205601 148.649409,371.378501 C147.470159,370.8271 146.178598,370.38598 144.830883,370 C143.651632,387.865368 112.485717,401.264394 93,389.354149 C97.1554554,394.261611 103.669413,397.955992 112.092633,398.783093 C129.725241,400.437293 145.897824,392.60741 150.839447,376.065403 Z" id="Path" fill="#52B1FC" fill-rule="nonzero"></path>
                            <g transform="translate(87.000000, 364.000000)" fill="#52B1FC" fill-rule="nonzero" id="Shape">
                                <path d="M58,21.5730337 C54.0540232,13.8764045 46.6066866,8.25842697 38.4368473,5.50561798 C38.2701159,5.6741573 38.1589616,5.8988764 37.9922302,6.12359551 C37.0474188,7.75280899 35.7135675,9.1011236 34.1574076,10.1123596 C42.5495555,12.247191 50.8305492,17.9775281 53.9428689,26.1235955 C55.4990288,24.7752809 56.8328801,23.258427 58,21.5730337 L58,21.5730337 Z M33.2681734,10.7303371 C31.5452821,11.6853933 29.6556594,12.3595506 27.6548825,12.6404494 C32.4900935,17.9213483 35.5468361,27.1910112 35.7135675,34.7191011 C37.6031902,34.4382022 39.4372358,33.988764 41.2157042,33.4269663 C40.8822414,26.1797753 38.1033845,17.1348315 33.2681734,10.7303371 L33.2681734,10.7303371 Z M23.7089056,35 C26.5989168,28.3707865 27.7660367,19.5505618 26.7656482,12.8089888 C24.8760255,13.0337079 22.9308257,12.9775281 21.0967801,12.6966292 C22.2083229,18.3146067 21.2635115,27.3595506 18.0400375,33.8202247 C19.8740831,34.3258427 21.7637058,34.7752809 23.7089056,35 Z M19.8740831,12.4157303 C17.9844604,11.9662921 16.2059919,11.1797753 14.7609864,10.1685393 C12.8713636,15.7303371 8.98096396,20.7303371 4.42363862,24.1011236 C5.47960425,25.6179775 6.75787843,26.9662921 8.14730689,28.258427 C13.6494436,24.1011236 17.817729,18.3146067 19.8740831,12.4157303 L19.8740831,12.4157303 Z M15.2611806,0 C10.5371238,3.14606742 5.59075852,5.50561798 0.366507516,7.07865169 C-0.0225324526,8.98876404 -0.0781095909,11.011236 0.0886218242,12.9775281 C5.20171855,11.5730337 10.203661,9.49438202 14.7609864,6.85393258 C14.9277178,4.43820225 15.0944492,2.07865169 15.2611806,0 L15.2611806,0 Z"></path>
                            </g>
                            <ellipse id="Oval" fill="#E8EDEC" fill-rule="nonzero" transform="translate(194.070638, 147.455465) rotate(-87.940000) translate(-194.070638, -147.455465) " cx="194.070638" cy="147.455465" rx="134.989906" ry="140.188206"></ellipse>
                            <path d="M178,280.966466 C267.834393,290.199585 330.883807,236.791241 333.915029,151.923945 C336.725798,73.3042094 269.432673,8.39593225 187.148779,12.1555258 C258.465161,20.5593232 312.531136,80.4916677 310.051046,151.094623 C307.570955,222.139884 261.496383,278.75494 178,280.966466 Z" id="Path" fill="#D0DBE2" fill-rule="nonzero"></path>
                            <path d="M256,26.7961862 C256,26.7961862 253.075637,17.5218782 245.40608,12.4126785 C235.694987,5.91510944 192.546833,-11.1896024 155.799173,11.0798438 C118.6101,33.6269639 122.08623,73.5564697 122.08623,73.5564697 L190.505297,76 C207.16865,25.8520949 256,26.7961862 256,26.7961862 Z" id="Path" fill="#FFB817" fill-rule="nonzero"></path>
                            <path d="M257,26.6365217 C257,26.6365217 254.06392,17.3426087 246.363636,12.2226087 C246.252841,12.1669565 246.142045,12.1113043 246.03125,12 C225.423295,13.0017391 196.616477,23.5756522 180.772727,70.0452174 C180.107955,71.9373913 179.553977,73.773913 179,75.5547826 L191.1875,76 C207.973011,25.6904348 257,26.6365217 257,26.6365217 L257,26.6365217 Z" id="Path" fill="#FF5D13" fill-rule="nonzero"></path>
                            <path d="M285.441651,131.897475 C270.440886,81.583686 225.438593,57.835136 154.309507,60.1547618 C108.864386,61.6459498 77.6450831,71.8081201 62.4229051,117.924491 C52.8467714,146.919813 47.8096143,251.523892 169.587038,255.886998 C274.426329,259.642582 296.456972,168.790571 285.441651,131.897475 L285.441651,131.897475 Z" id="Path" fill="#000000" fill-rule="nonzero"></path>
                            <path d="M183.582383,262.047109 C162.051669,258.496745 164.804957,242.631055 144.871149,242.020836 C127.029841,241.466092 135.069443,252.172658 130.884445,252.172658 C109.023335,252.283607 137.877797,269.702581 153.901935,272.087982 C181.600016,276.137616 205.168164,265.597473 183.582383,262.047109 L183.582383,262.047109 Z" id="Path" fill="#E8EDEC" fill-rule="nonzero"></path>
                            <ellipse id="Oval" fill="#FFB817" fill-rule="nonzero" transform="translate(320.467572, 166.476293) rotate(-87.940000) translate(-320.467572, -166.476293) " cx="320.467572" cy="166.476293" rx="48.4437351" ry="28.4247487"></ellipse>
                            <ellipse id="Oval" fill="#FF5D13" fill-rule="nonzero" transform="translate(328.483209, 166.769580) rotate(-87.940000) translate(-328.483209, -166.769580) " cx="328.483209" cy="166.76958" rx="40.7568867" ry="21.7333195"></ellipse>
                            <g transform="translate(66.000000, 88.003575)" fill="#474747" fill-rule="nonzero">
                                <ellipse id="Oval" transform="translate(23.173683, 10.586165) rotate(-71.350000) translate(-23.173683, -10.586165) " cx="23.1736825" cy="10.5861648" rx="8.35243923" ry="8.35656452"></ellipse>
                                <path d="M16.4451723,21.9222743 C13.1798175,20.373576 9.2503226,21.7563424 7.70066266,25.0749816 L7.70066266,25.1302923 C-7.74059179,57.8188887 1.39133289,106.602886 23.0865721,129.059011 C23.9720921,129.943981 25.355717,128.782458 24.6915771,127.786866 C24.802267,127.952798 18.2715573,119.434957 14.0099924,104.390459 C7.42393767,81.1599847 8.08807765,52.2878234 19.4891472,30.9932216 C21.2601872,27.563961 19.7658722,23.5262833 16.4451723,21.9222743 L16.4451723,21.9222743 Z M181.926716,120.098685 C180.377056,122.034558 180.653781,124.910712 182.590856,126.45941 C184.527931,128.008109 187.405871,127.731555 188.955531,125.795682 C188.678806,126.127546 197.091246,116.448182 203.566611,101.403684 C207.274726,92.7199114 209.820595,83.6489641 210.98284,74.3567743 C211.259565,72.2549694 208.1049,71.6465522 207.606796,73.7483571 C207.717485,73.4164932 205.448341,85.1423518 197.921421,98.6381513 C190.615881,111.857398 182.646201,119.158404 181.926716,120.098685 Z M179.878951,134.368834 C180.432401,131.326748 178.439982,128.395283 175.340662,127.842177 C172.296687,127.28907 169.363402,129.280254 168.809952,132.37765 C168.256502,135.419736 170.248922,138.351201 173.348242,138.904307 C176.392217,139.457414 179.325502,137.46623 179.878951,134.368834 Z" id="Shape"></path>
                            </g>
                            <path d="M91.8724312,129.898294 C84.7218051,125.029307 76.8011116,125.969907 62.8298883,135.209916 C48.9136699,144.505255 38.7377789,154.907182 31.8621769,166.194379 C26.4167001,175.102412 25.5916278,182.350563 19.9261318,189.266738 C14.2606357,196.182913 7,202.87777 7,211.343168 C7,217.263413 16.4058236,228.771928 37.197644,232.755644 C57.9894645,236.684032 65.635134,230.321151 67.7803218,227.333363 C69.9255096,224.400905 71.6856637,206.640169 73.2808034,205.422922 C74.8759431,204.261005 82.9066462,201.660523 91.927436,190.041349 C100.948226,178.422176 104.30352,162.210662 91.927436,162.044674 C91.8724312,162.044674 104.028496,138.142375 91.8724312,129.898294 L91.8724312,129.898294 Z" id="Path" fill="#FFB817" fill-rule="nonzero"></path>
                            <path d="M35.3387654,202.989428 C37.842858,202.769351 40.3469506,202.549273 42.8510431,202.219157 C45.1325497,201.94406 47.3584097,201.558925 49.5286233,200.733634 C53.5908179,199.138073 57.152194,196.552162 60.3240445,193.636136 C61.6595606,192.42571 59.6562865,190.500032 58.376417,191.710458 C55.4827989,194.351388 52.3109484,196.77224 48.5826328,198.202743 C46.5793587,198.973015 44.4647917,199.35815 42.3502246,199.578228 C40.0130716,199.853324 37.731565,200.073402 35.394412,200.293479 C34.6710074,200.348499 34.0032494,200.898692 34.0032494,201.668964 C33.9476029,202.329196 34.6153609,203.099467 35.3387654,202.989428 L35.3387654,202.989428 Z M92.5990153,162 C92.5990153,162 89.2045787,168.272208 87.2569512,172.013525 C87.2569512,172.013525 94.4909964,166.236491 100,166.236491 C98.88707,163.650581 96.4942704,162.055019 92.5990153,162 L92.5990153,162 Z" id="Shape" fill="#FF5D13" fill-rule="nonzero"></path>
                        </g>
                        <g id="Group" transform="translate(1052.000000, 121.605089) scale(-1, 1) rotate(-56.000000) translate(-1052.000000, -121.605089) translate(964.000000, 34.605089)">
                            <path d="M146.955691,1.15689526 C145.678315,-0.2741344 143.486909,-0.393962414 142.063096,0.888922522 C140.637908,2.17249811 140.518627,4.3729134 141.795658,5.80428839 C167.573477,34.6876744 175.394479,68.3924976 163.818008,100.709457 C151.798098,134.263718 120.198871,161.199122 86.9733629,166.210834 C62.2859191,169.934826 40.3711634,160.844127 25.2678158,140.614603 C2.52496622,110.152733 4.95252934,86.9896673 10.9935934,72.92248 C18.7527204,54.8533133 37.2595376,41.6435697 58.141668,39.268765 C76.4649227,37.1840338 92.7614269,43.920302 102.854273,57.7474879 C116.050839,75.8252878 113.655245,89.5108902 109.321931,97.8083759 C103.169836,109.588471 89.2916135,117.551681 75.562235,117.154212 C69.5919834,116.984657 58.7700432,114.917192 53.367323,102.976865 C49.2663845,93.9134474 49.335822,86.1691735 53.5677293,80.5818038 C58.4383243,74.1521848 68.753577,70.7614319 78.6580483,72.3330091 C85.542675,73.4263102 90.39952,76.6595947 91.9838642,81.2040807 C93.8421772,86.5345281 93.8026459,90.9243082 91.8645829,94.2518666 C89.0833009,99.0280662 83.0649244,100.62278 81.709174,100.928048 C79.6755485,100.836537 71.0013588,99.896215 71.0013588,90.4954137 C71.0013588,88.7901955 71.2670776,86.5887442 72.5331092,85.7824087 C74.4938597,84.5316391 78.7563608,85.8421501 80.51808,86.675421 C82.2443929,87.5028213 84.3110185,86.7707308 85.1356749,85.0371959 C85.9620501,83.3033156 85.2329562,81.2251456 83.5073308,80.3949826 C82.6091118,79.9629802 74.558141,76.2742112 68.8450145,79.8890805 C66.6677014,81.26693 64.0717008,84.2256805 64.0717008,90.4957591 C64.0717008,104.261132 75.8066413,107.898447 82.0109866,107.898447 C82.2038304,107.898447 82.3977055,107.882217 82.5877993,107.850102 C83.0106119,107.778274 93.0089269,105.99812 97.8100844,97.8277141 C100.855366,92.6464474 101.095304,86.2793324 98.5240534,78.903521 C96.069334,71.8647475 89.2228635,66.9642306 79.7398298,65.4579199 C69.3321084,63.8038099 55.4996048,66.5380987 48.0536342,76.3671038 C43.9588831,81.7731775 40.4619135,91.2786124 47.0588214,105.858608 C52.1425415,117.093089 62.4595129,123.74717 75.3659537,124.113906 C75.746485,124.124611 76.1273601,124.130136 76.507204,124.130136 C92.4028955,124.129791 108.29515,114.760759 115.458558,101.043732 C122.879435,86.8339254 120.38759,69.9961901 108.441931,53.632587 C96.8383029,37.7369002 78.2197669,29.9770866 57.3623865,32.3532727 C34.0550993,35.0039927 13.3568752,49.8464362 4.63077926,70.1664357 C-4.93475445,92.439252 0.425340679,118.942653 19.7238144,144.791663 C33.9760368,163.881267 53.7176044,174 76.1796101,174 C80.0443924,174 83.9913309,173.699912 88.0022069,173.094901 C123.635341,167.720252 157.493006,138.923198 170.337572,103.066305 C182.817762,68.2281226 174.513104,32.0359184 146.955691,1.15689526 Z" id="Path" stroke="#5865F2" fill="#5865F2" fill-rule="nonzero"></path>
                        </g>
                        <g id="Group" transform="translate(275.500000, 461.105089) rotate(175.000000) translate(-275.500000, -461.105089) translate(210.000000, 395.605089)">
                            <path d="M109.381793,0.870995855 C108.431019,-0.206388542 106.799915,-0.296603886 105.740145,0.669246267 C104.679352,1.63561639 104.590569,3.2922509 105.541087,4.36989528 C124.727986,26.115433 130.5493,51.4909034 121.932722,75.8214877 C112.986085,101.083604 89.4662054,121.362557 64.7358553,125.135743 C46.360542,127.939438 30.048991,121.095291 18.8072947,105.865017 C1.87937826,82.9310808 3.68625763,65.4922208 8.18273145,54.9014074 C13.9579907,41.2976095 27.7329513,31.3523427 43.2759006,29.564415 C56.9142322,27.994876 69.0440166,33.0664343 76.5563056,43.476557 C86.3787496,57.0868546 84.5956651,67.3903828 81.370301,73.6373404 C76.7911846,82.5062627 66.4613714,88.5015533 56.2423453,88.2023088 C51.7985786,88.0746553 43.7436117,86.5181157 39.7222688,77.5285596 C36.6698657,70.7049518 36.7215493,64.8744927 39.8714349,60.6679098 C43.4967073,55.8272196 51.1745374,53.2744114 58.5466155,54.4576103 C63.6709683,55.2807278 67.2860064,57.7149822 68.4652625,61.1364056 C69.8484387,65.1495585 69.8190148,68.4545079 68.3764793,70.9597386 C66.3063206,74.5556131 61.8267335,75.7562311 60.8176239,75.9860592 C59.3039594,75.9171628 52.8476023,75.2092193 52.8476023,68.1316046 C52.8476023,66.8477908 53.0453816,65.1903764 53.987712,64.5833077 C55.4471342,63.6416363 58.6197913,64.6282854 59.9310709,65.255633 C61.215997,65.8785609 62.754224,65.3273893 63.3680308,64.0222567 C63.9831169,62.716864 63.440439,61.1522648 62.1560246,60.527257 C61.4874639,60.2020138 55.4949799,57.4248372 51.242596,60.1463767 C49.6219823,61.1837232 47.6897318,63.4112882 47.6897318,68.1318646 C47.6897318,78.4954497 56.4242614,81.2338884 61.0422685,81.2338884 C61.1858056,81.2338884 61.3301103,81.221669 61.4716006,81.1974903 C61.7863077,81.1434131 69.2282354,79.8031822 72.8018242,73.6518997 C75.068483,69.751061 75.2470729,64.9574284 73.3332443,59.404375 C71.506152,54.1050685 66.4101995,50.4155989 59.3518051,49.2815374 C51.6051488,48.0362017 41.3093649,50.0947755 35.7671936,57.4947735 C32.7193959,61.5648635 30.1165379,68.7212542 35.0267364,79.6981476 C38.8106417,88.1562911 46.489751,93.1659726 56.0962496,93.4420783 C56.379486,93.4501379 56.6629783,93.4542977 56.9457029,93.4542977 C68.7771552,93.4540377 80.6060489,86.4003418 85.9379037,76.0731547 C91.4613974,65.3749669 89.6066723,52.6982811 80.7153008,40.3785569 C72.0785096,28.4111145 58.2203947,22.568956 42.6958673,24.3579237 C25.3478296,26.3535807 9.9417651,37.528064 3.4467732,52.8264545 C-3.67302746,69.5950691 0.316588801,89.5487793 14.6807937,109.009815 C25.2889819,123.381873 39.9829896,131 56.7018689,131 C59.5784966,131 62.5162747,130.774072 65.5016426,130.318575 C92.0240323,126.272144 117.224908,104.591603 126.785352,77.5958961 C136.074585,51.3671498 129.893276,24.118996 109.381793,0.870995855 Z" id="Path" stroke="#5865F2" stroke-width="2" fill="#5865F2" fill-rule="nonzero"></path>
                        </g>
                        <g id="Group-5" transform="translate(0.000000, 130.936392)">
                            <path d="M318.941597,96.9202612 C318.340509,94.5475209 311.413692,93.4453758 309.033194,93.0844112 C304.930534,92.4587393 305.312177,91.2314598 304.257888,87.6795686 L302.445085,81.5864868 C302.025278,80.1715058 300.241097,77.3271051 298.428294,77.7025082 C297.197496,77.952777 296.806312,79.4977053 296.653655,80.7538619 C296.272012,83.9688529 295.585055,87.1694053 295.217723,90.3651449 C294.998279,92.2517863 295.790188,94.4223865 294.368568,95.9384376 C292.484206,97.9502134 285.633717,99.692469 283.792291,101.901572 C282.995611,102.859331 282.680756,104.346505 283.410648,105.362019 C285.337944,108.042782 290.685715,105.482341 293.299968,106.637427 C299.864225,109.554021 299.702027,119.872794 300.918513,122.336979 C301.762898,124.045545 303.957345,125.320953 305.555474,124.310252 C306.662238,123.607574 307.000946,122.168529 307.21085,120.869056 C308.27945,114.260999 305.588868,107.085023 309.567494,103.196232 C311.275346,101.526169 313.756025,101.035257 316.007717,100.274825 C317.562912,99.7454105 319.347092,98.5133181 318.941597,96.9202612 L318.941597,96.9202612 Z" id="Path" fill="#FF62A5" fill-rule="nonzero"></path>
                            <path d="M1731.96106,171.366537 C1731.56034,169.801538 1726.94246,169.074591 1725.35546,168.836508 C1722.62036,168.423831 1722.87478,167.614349 1722.17193,165.271612 L1720.96339,161.252771 C1720.68352,160.319486 1719.49406,158.443392 1718.28553,158.690998 C1717.465,158.856069 1717.20421,159.875064 1717.10244,160.703593 C1716.84801,162.824119 1716.39004,164.935122 1716.14515,167.04295 C1715.99885,168.28733 1716.52679,169.719003 1715.57905,170.718951 C1714.3228,172.045867 1709.75581,173.195015 1708.52819,174.652083 C1707.99707,175.283796 1707.78717,176.264698 1708.27377,176.934505 C1709.55863,178.702668 1713.12381,177.013866 1714.86665,177.775732 C1719.24282,179.699442 1719.13468,186.505442 1719.94568,188.130755 C1720.5086,189.257681 1721.97156,190.098908 1723.03698,189.432276 C1723.77483,188.968807 1724.00063,188.01965 1724.14057,187.162551 C1724.85297,182.804045 1723.05925,178.070955 1725.71166,175.506007 C1726.85023,174.404476 1728.50402,174.080683 1730.00514,173.579122 C1731.04194,173.229934 1732.23139,172.417277 1731.96106,171.366537 L1731.96106,171.366537 Z" id="Path" fill="#FF62A5" fill-rule="nonzero" transform="translate(1720.000000, 174.168697) scale(-1, 1) translate(-1720.000000, -174.168697) "></path>
                            <path d="M1346.5998,19.2356143 C1345.83062,16.2357997 1336.20225,16.0050448 1334.4829,14.7653024 C1333.23864,13.8694302 1333.08932,11.9419475 1332.67306,10.5483685 L1330.95371,4.82021569 C1330.55554,3.48998116 1328.86334,0.815938284 1327.14399,1.16885765 C1325.97664,1.40413723 1325.60562,2.85653615 1325.46084,4.03745864 C1325.09887,7.05989627 1324.44732,10.0687601 1324.09893,13.0730993 C1323.8908,14.8467453 1324.64188,16.8873432 1323.29355,18.3125945 C1321.52895,20.1812573 1314.96827,21.8870342 1313.2625,23.9185828 C1312.50689,24.8189797 1312.20826,26.2170833 1312.90053,27.1717754 C1314.72847,29.6919817 1319.80055,27.2848906 1322.28004,28.3707964 C1328.5059,31.1127083 1328.35206,40.8134663 1329.50584,43.1300652 C1330.30669,44.7363007 1332.38801,45.9353217 1333.90375,44.9851541 C1334.95346,44.3245615 1335.27471,42.9717039 1335.47379,41.75006 C1336.4873,35.5377742 1333.93543,28.7915848 1337.70895,25.1357022 C1339.32876,23.5656635 1341.68155,23.1041535 1343.81717,22.3892656 C1345.29219,21.8915588 1346.98439,20.7332593 1346.5998,19.2356143 L1346.5998,19.2356143 Z" id="Path" fill="#6ADBC6" fill-rule="nonzero" transform="translate(1329.583121, 23.229601) rotate(4.000000) translate(-1329.583121, -23.229601) "></path>
                            <path d="M1425.19175,136.520846 C1424.62617,134.3151 1417.54649,134.145427 1416.28226,133.233852 C1415.36736,132.575122 1415.25757,131.157855 1414.95149,130.133165 L1413.68727,125.921288 C1413.3945,124.943174 1412.15023,122.976966 1410.886,123.236466 C1410.02766,123.409465 1409.75485,124.477406 1409.64839,125.345731 C1409.38224,127.568112 1408.90316,129.780512 1408.64699,131.989585 C1408.49395,133.293736 1409.04622,134.794176 1408.0548,135.842155 C1406.7573,137.216171 1401.93327,138.470419 1400.67902,139.964205 C1400.12343,140.626261 1399.90385,141.654279 1400.41287,142.356258 C1401.75694,144.209351 1405.48642,142.439431 1407.30957,143.237891 C1411.8874,145.254003 1411.77429,152.386913 1412.62265,154.090295 C1413.21152,155.27135 1414.7419,156.152983 1415.85642,155.454331 C1416.62826,154.968601 1416.86447,153.973853 1417.01086,153.075585 C1417.75609,148.507728 1415.8797,143.547295 1418.65435,140.859146 C1419.84539,139.704705 1421.57539,139.36536 1423.14569,138.839707 C1424.23027,138.473746 1425.47453,137.622055 1425.19175,136.520846 L1425.19175,136.520846 Z" id="Path" fill="#628BF7" fill-rule="nonzero" transform="translate(1412.679481, 139.457601) rotate(9.000000) translate(-1412.679481, -139.457601) "></path>
                            <path d="M800.103107,104.031831 C799.537531,101.826085 792.457852,101.656412 791.193623,100.744837 C790.278721,100.086108 790.168933,98.6688409 789.862856,97.6441504 L788.598628,93.4322734 C788.305859,92.4541597 787.061592,90.4879517 785.797364,90.7474513 C784.939019,90.920451 784.666212,91.9883913 784.559751,92.8567167 C784.293597,95.0790973 783.814521,97.2914972 783.558349,99.5005701 C783.40531,100.804722 783.957579,102.305161 782.966157,103.35314 C781.66866,104.727157 776.84463,105.981405 775.590382,107.47519 C775.034787,108.137247 774.81521,109.165264 775.324229,109.867244 C776.668303,111.720337 780.397777,109.950417 782.220928,110.748877 C786.798766,112.764989 786.685651,119.897899 787.534014,121.60128 C788.122879,122.782336 789.653261,123.663969 790.767778,122.965316 C791.539623,122.479586 791.775834,121.484838 791.922218,120.586571 C792.667448,116.018713 790.791066,111.05828 793.565715,108.370131 C794.756751,107.215691 796.486748,106.876345 798.057053,106.350692 C799.141628,105.984732 800.385895,105.133041 800.103107,104.031831 L800.103107,104.031831 Z" id="Path" fill="#628BF7" fill-rule="nonzero" transform="translate(787.590842, 106.968586) scale(-1, 1) rotate(9.000000) translate(-787.590842, -106.968586) "></path>
                            <path d="M492.639437,224.266594 C492.300091,222.943146 488.052284,222.841343 487.293747,222.294397 C486.744805,221.89916 486.678932,221.0488 486.495286,220.433985 L485.736749,217.906859 C485.561088,217.319991 484.814528,216.140266 484.055991,216.295966 C483.540984,216.399766 483.3773,217.04053 483.313423,217.561525 C483.153731,218.894953 482.866285,220.222393 482.712582,221.547837 C482.620759,222.330328 482.95212,223.230592 482.357267,223.859379 C481.578768,224.683789 478.684351,225.436338 477.931802,226.332609 C477.598445,226.729843 477.466699,227.346654 477.77211,227.767841 C478.578555,228.879697 480.816239,227.817745 481.910129,228.296821 C484.656832,229.506488 484.588963,233.786234 485.097981,234.808263 C485.4513,235.516897 486.369529,236.045876 487.038239,235.626685 C487.501346,235.335247 487.643073,234.738398 487.730903,234.199437 C488.178041,231.458723 487.052212,228.482463 488.717002,226.869574 C489.431623,226.17691 490.469622,225.973302 491.411805,225.657911 C492.062549,225.438334 492.80911,224.92732 492.639437,224.266594 L492.639437,224.266594 Z" id="Path" fill="#FFD04D" fill-rule="nonzero" transform="translate(485.132078, 226.028647) rotate(4.000000) translate(-485.132078, -226.028647) "></path>
                            <path d="M25.121127,239.78335 C24.5781741,237.665834 17.7816817,237.502948 16.5680224,236.627835 C15.6897163,235.995455 15.5843195,234.634879 15.2904862,233.651176 L14.0768269,229.607774 C13.7957689,228.668785 12.6012726,226.781225 11.3876132,227.030345 C10.5636024,227.196425 10.3017075,228.221647 10.1995046,229.05524 C9.94399738,231.188725 9.48408437,233.312629 9.23815866,235.433339 C9.091242,236.685324 9.6214195,238.125747 8.66965506,239.131806 C7.42405731,240.450862 2.79298872,241.65494 1.58891089,243.088975 C1.05553954,243.724549 0.844746077,244.711445 1.33340366,245.385346 C2.62371518,247.164315 6.20401027,245.465192 7.95423481,246.231713 C12.3489592,248.167181 12.2403686,255.014775 13.0547979,256.650021 C13.6201077,257.783834 15.0892743,258.630202 16.1592108,257.959495 C16.9001818,257.493195 17.1269445,256.538236 17.2674734,255.6759 C17.9828937,251.290757 16.1815677,246.528741 18.8452306,243.948118 C19.9886255,242.839855 21.6494225,242.514083 23.1569151,242.009456 C24.1981071,241.658134 25.3926034,240.840511 25.121127,239.78335 L25.121127,239.78335 Z" id="Path" fill="#FFD04D" fill-rule="nonzero" transform="translate(13.109353, 242.602634) rotate(4.000000) translate(-13.109353, -242.602634) "></path>
                        </g>
                    </g>
                </g>
            </g>
        </g>
    </g>
</svg>