<?xml version="1.0" encoding="UTF-8"?>
<svg width="42px" height="42px" viewBox="0 0 42 42" version="1.1" xmlns="http://www.w3.org/2000/svg" xmlns:xlink="http://www.w3.org/1999/xlink">
    <title>Group 2</title>
    <defs>
        <circle id="path-1" cx="21" cy="21" r="21"></circle>
    </defs>
    <g id="Page-1" stroke="none" stroke-width="1" fill="none" fill-rule="evenodd">
        <g id="Group-2">
            <mask id="mask-2" fill="white">
                <use xlink:href="#path-1"></use>
            </mask>
            <use id="Oval" fill="#3AA55D" xlink:href="#path-1"></use>
            <g id="Group" mask="url(#mask-2)">
                <g transform="translate(22.000000, 26.320000) scale(-1, 1) translate(-22.000000, -26.320000) translate(3.000000, 2.000000)">
                    <path d="M10.5104181,35.9119001 C10.4884738,36.0117016 10.4720156,36.1115031 10.4555573,36.2113046 C8.02522689,37.6695151 8.17883694,41.1126663 10.5707649,42.6485002 C11.9971439,47.666297 22.6785285,47.7161977 27.4678705,45.8920484 C27.7476602,46.1082849 28.0713385,46.2635317 28.4279333,46.3466996 C28.8777913,47.6108517 30.0737553,48.6365892 31.3794407,48.6365892 C31.3739546,48.6365892 33.1459563,48.8306476 34.7588618,46.2912543 C35.7079525,44.7942321 36.0645472,43.3360215 36.124894,41.9277117 C36.9587772,40.741183 37.4086352,39.3217841 37.4086352,37.858029 L37.4086352,30.395096 C37.4086352,28.0220385 36.2510737,25.9262074 34.4516417,24.6454217 C35.1538591,24.3848289 36.0042004,23.8248317 36.722876,22.6327584 C38.3028651,20.4759375 38.4345309,16.5559571 37.019124,14.3048792 C36.7338482,13.744882 36.3827395,13.2569636 35.9767701,12.8743912 C34.9508744,8.77144141 32.1913795,5.20076615 28.3127257,3.12156859 C28.0384221,2.6059276 27.583078,1.95721796 26.8644024,1.48593318 C26.0744079,0.970292191 23.8799786,0 21.2027748,0 C18.59689,0 16.3914886,0.942569557 14.7840691,2.44513632 C9.49549452,4.63522441 5.88017225,9.50886348 5.38093959,15.0755684 C2.94512307,17.2878346 2.86283197,18.9345591 2.34165501,19.5721796 C1.78207554,20.259701 0.31180791,21.6846443 0.745207696,23.4256258 C-1.98685678,30.4671748 3.13713563,34.742005 10.5104181,35.9119001 Z" id="Path" fill="#FFFFFF" fill-rule="nonzero"></path>
                    <path d="M2.72225579,22.8 C2.60809044,22.9206235 0.814063505,26.3899858 1.83067877,29.3309022 C3.17348075,33.2253188 9.22968077,34.8795843 12.7796795,34.96 L15.96,27.3951819 L12.0675052,26.7288805 C12.0675052,26.7288805 9.03940518,26.849504 8.14782816,26.6886726 C8.14782816,26.6886726 7.74553121,24.9310156 7.90862457,23.6501086 L2.72225579,22.8 Z" id="Path" fill="#E8EDEC" fill-rule="nonzero"></path>
                    <path d="M9.12,26.6338782 C10.5998077,28.2826152 12.4523077,29.5643388 14.6007692,30.4 L15.96,27.2549777 C15.9490385,27.2549777 12.2001923,26.6282318 12.0302885,26.6 L12.0357692,26.6 C12.0302885,26.6 10.3586538,26.6677563 9.12,26.6338782 L9.12,26.6338782 Z" id="Shape" fill="#BEC9CE" fill-rule="nonzero"></path>
                    <g id="Group" stroke-width="1" fill="none" fill-rule="evenodd" transform="translate(1.520000, 27.360000)">
                        <path d="M11.856985,7.3938392 L11.856985,7.4962392 L11.856985,7.3938392 Z M11.856985,7.4962392 L11.856985,7.3938392 L11.856985,7.4962392 Z M11.856985,7.2914392 C11.856985,7.2914392 11.856985,7.3426392 11.856985,7.2914392 L11.856985,7.3938392 L11.856985,7.2914392 Z" id="Shape" fill="#D0DBE2" fill-rule="nonzero"></path>
                        <path d="M11.856985,7.31479049 L11.856985,7.27976356 C11.8741773,7.17468277 11.9372159,6.81273783 12.1206009,5.73274083 C8.1950162,5.65101133 1.49000295,3.9697187 0.00573078056,0.0116756432 C0.00573078056,0.00583782162 0,0 0,0 C0.0343846834,0.531241767 0.126077172,1.07415918 0.315192931,1.5937253 C1.73069573,5.55176836 8.11478527,7.23306099 11.856985,7.31479049 L11.856985,7.31479049 Z M11.8840619,7.30849336 L11.8840619,7.29849336 L11.8840619,7.30849336 Z M11.8840619,7.30849336 L11.8840619,7.29849336 L11.8840619,7.30849336 Z" id="Shape" fill="#D0DBE2" fill-rule="nonzero"></path>
                    </g>
                    <path d="M7.60623842,24.454428 C7.56737215,25.4010252 7.70988181,26.3588248 8.04024512,27.2606127 C8.10502223,27.4342489 8.4159524,27.3614337 8.35117529,27.1877975 C8.0337674,26.3028131 7.89125774,25.3786206 7.93012401,24.454428 C7.93660173,24.2751907 7.61271613,24.2751907 7.60623842,24.454428 Z" id="Path" fill="#BEC9CE" fill-rule="nonzero"></path>
                    <path d="M15.96,26.9991367 L13.5062442,26.6 C12.8668468,27.6607194 11.8066494,30.0938129 12.2766338,34.1781295 C12.4460468,34.1890647 12.6099949,34.1945324 12.763013,34.2 L15.96,26.9991367 Z" id="Path" fill="#FFD31F" fill-rule="nonzero"></path>
                    <path d="M13.2457143,26.6 C12.9079365,27.1549206 12.4736508,28.0536508 12.16,29.3203175 C12.8898413,29.7304762 13.655873,30.092381 14.464127,30.4 L15.96,27.0403175 C14.7777778,26.8533333 14.3736508,26.7869841 13.2457143,26.6 Z" id="Path" fill="#D7AF0E" fill-rule="nonzero"></path>
                    <g id="Group" stroke-width="1" fill="none" fill-rule="evenodd" transform="translate(12.160000, 32.680000)">
                        <path d="M0.51560166,2.03698557 L0.51560166,1.93458557 L0.51560166,2.03698557 Z" id="Shape" fill="#D7AF0E" fill-rule="nonzero"></path>
                        <path d="M0,0 C0.00946058091,0.614266222 0.0425726141,1.25677457 0.0946058091,1.93458557 C0.241244813,1.94870663 0.383153527,1.95576717 0.51560166,1.9628277 L0.51560166,1.9416461 L0.51560166,1.94870663 L0.51560166,1.92752504 C0.529792531,1.80749601 0.577095436,1.3768036 0.733195021,0.049423719 C0.501410788,0.0423631877 0.255435685,0.0282421251 0,0 L0,0 Z" id="Path" fill="#D7AF0E" fill-rule="nonzero"></path>
                    </g>
                    <path d="M30.4344679,43.32 C33.3557072,43.32 35.72,40.9080073 35.72,37.9402559 L35.72,30.4597441 C35.72,27.4864351 33.350247,25.08 30.4344679,25.08 L28.8455321,25.08 C25.9242928,25.08 23.56,27.4919927 23.56,30.4597441 L23.56,37.9402559 C23.56,40.9135649 25.929753,43.32 28.8455321,43.32 L30.4344679,43.32 Z" id="Path" fill="#D0DBE2" fill-rule="nonzero"></path>
                    <path d="M28.1544679,43.32 C31.0757072,43.32 33.44,40.9080073 33.44,37.9402559 L33.44,30.4597441 C33.44,27.4864351 31.070247,25.08 28.1544679,25.08 L26.5655321,25.08 C23.6442928,25.08 21.28,27.4919927 21.28,30.4597441 L21.28,37.9402559 C21.28,40.9135649 23.649753,43.32 26.5655321,43.32 L28.1544679,43.32 Z" id="Path" fill="#BEC9CE" fill-rule="nonzero"></path>
                    <ellipse id="Oval" fill="#FFD31F" fill-rule="nonzero" cx="34.96" cy="32.3" rx="1" ry="1.14"></ellipse>
                    <path d="M34.675,33.580578 C34.49925,33.580578 34.333,33.4817341 34.2,33.3169942 C34.29975,33.8309827 34.59425,34.2 34.941,34.2 C35.37325,34.2 35.72,33.6332948 35.72,32.9282081 C35.72,32.5196532 35.60125,32.1506358 35.416,31.92 C35.43975,32.0386127 35.454,32.1704046 35.454,32.3087861 C35.454,33.0072832 35.1025,33.580578 34.675,33.580578 Z" id="Path" fill="#D7AF0E" fill-rule="nonzero"></path>
                    <path d="M35.2018182,38.76 C35.4850909,38.76 35.72,38.5612308 35.72,38.3215385 L35.72,35.3984615 C35.72,35.1587692 35.4850909,34.96 35.2018182,34.96 L34.7181818,34.96 C34.4349091,34.96 34.2,35.1587692 34.2,35.3984615 L34.2,38.3215385 C34.2,38.5612308 34.4349091,38.76 34.7181818,38.76 L35.2018182,38.76 Z" id="Path" fill="#FDCC00" fill-rule="nonzero"></path>
                    <path d="M34.7502262,34.96 C34.4476018,34.96 34.2,35.1351152 34.2,35.3569278 L34.2,38.3630722 C34.2,38.5790476 34.4476018,38.76 34.7502262,38.76 L35.1697738,38.76 C35.4723982,38.76 35.72,38.5848848 35.72,38.3630722 L35.3623529,38.3630722 C35.0597285,38.3630722 34.8121267,38.187957 34.8121267,37.9661444 L34.8121267,34.96 L34.7502262,34.96 Z" id="Path" fill="#FCA800" fill-rule="nonzero"></path>
                    <path d="M29.7318933,42.8035362 C31.9929609,38.1358387 27.7899058,27.36 27.7899058,27.36 L15.8629118,27.6898726 C15.8629118,27.6953705 10.7191206,36.5854374 12.5565818,42.6111105 C13.7833898,46.6135649 27.9329418,46.5146031 29.7318933,42.8035362 Z" id="Path" fill="#E8EDEC" fill-rule="nonzero"></path>
                    <path d="M29.7416382,42.3446729 C30.771535,40.1409346 30.4408839,36.6026168 29.7850023,33.44 L27.334932,35.1166355 C27.334932,35.1166355 28.4407159,41.111028 25.08,44.84 C27.345773,44.3970093 29.1724847,43.5614953 29.7416382,42.3446729 L29.7416382,42.3446729 Z" id="Path" fill="#D0DBE2" fill-rule="nonzero"></path>
                    <g id="Group" stroke-width="1" fill="none" fill-rule="evenodd" transform="translate(6.840000, 23.560000)">
                        <path d="M0,0 C0.270555267,0.504189944 0.568718215,0.992458101 0.900010379,1.45949721 C0.861359626,1.02430168 0.844795018,0.551955307 0.900010379,0.137988827 L0,0 Z M20.3026881,3.36480447 L8.33199792,3.68324022 C8.33199792,3.68324022 7.71910742,4.70223464 6.9957862,6.27318436 C9.13262065,7.17011173 11.5124027,7.6 13.9860509,7.6 C16.6971251,7.6 19.1597302,7.09050279 21.28,6.11396648 C20.7499325,4.46871508 20.3026881,3.36480447 20.3026881,3.36480447 Z" id="Shape" fill="#BEC9CE" fill-rule="nonzero"></path>
                    </g>
                    <path d="M34.2,39.0832 C34.2,39.0832 33.5246202,30.59136 28.8191051,27.36 L23.56,29.17152 L23.7648283,29.48704 C23.7648283,29.48704 27.6953174,35.63968 29.101436,40.28 C29.1069719,40.28 32.1793965,39.31168 34.2,39.0832 L34.2,39.0832 Z" id="Path" fill="#E8EDEC" fill-rule="nonzero"></path>
                    <path d="M30.4,29.0075168 C29.9005261,28.3852349 29.3169303,27.8190604 28.6386973,27.36 L23.6439582,29.0585235 C23.4441687,29.1962416 23.5020025,30.5632215 24.9425904,31.16 C26.9930622,30.787651 28.8279716,30.0633557 30.4,29.0075168 Z" id="Path" fill="#BEC9CE" fill-rule="nonzero"></path>
                    <path d="M29.64,39.9265235 C29.5942836,39.7077047 29.538408,39.466443 29.4622141,39.1971275 C28.314225,35.0676242 26.6024006,31.92 26.6024006,31.92 C26.6024006,31.92 26.5516046,34.8431946 26.9173356,35.6960268 C27.5726037,37.2221477 28.1821555,38.8212081 28.5732845,40.28 C28.5732845,40.28 29.0050503,40.1285101 29.64,39.9265235 L29.64,39.9265235 Z" id="Path" fill="#D0DBE2" fill-rule="nonzero"></path>
                    <path d="M28.8712166,40.1057921 C28.4776273,38.9611797 27.9659612,37.8448993 27.4083764,36.7512844 C27.2443809,36.4282998 27.0738255,36.1053151 26.9032701,35.7879968 C26.8639112,35.72 26.7523942,35.7030008 26.6802362,35.7369992 C26.5949585,35.776664 26.5818389,35.86166 26.6211978,35.9296567 C27.2115818,37.0176051 27.7560469,38.1282192 28.2152345,39.2671652 C28.3398711,39.5674842 28.451388,39.8734697 28.5563452,40.1794552 C28.6153836,40.3551136 28.9368148,40.2814504 28.8712166,40.1057921 Z" id="Path" fill="#BEC9CE" fill-rule="nonzero"></path>
                    <path d="M30.4,29.0384974 C29.888508,28.3670984 29.3662477,27.8473057 28.698616,27.36 C26.4265145,29.4879016 26.1680764,32.9802591 27.1210668,35.72 C27.3148954,33.4025907 28.488635,30.3867098 30.4,29.0384974 Z" id="Path" fill="#FFD31F" fill-rule="nonzero"></path>
                    <path d="M28.6077612,27.36 C27.5471642,28.4023197 26.900597,29.736489 26.6,31.16 C27.9838806,30.6894671 29.2543284,30.0342947 30.4,29.206395 C30.0313433,28.6643887 29.3280597,27.9079624 28.6077612,27.36 Z" id="Path" fill="#D7AF0E" fill-rule="nonzero"></path>
                    <path d="M28.3045529,44.4067069 C28.8910456,45.2231171 30.0405714,44.6021854 30.0405714,44.6021854 C30.0405714,44.6021854 29.6534862,46.1430159 31.0493389,46.959426 C32.6094095,47.8793248 34.7207833,44.6481804 34.9143259,42.3196866 C35.1020036,39.9911929 34.6914587,38.1111498 34.0463167,38.0076611 C33.3483903,37.8984232 28.7385575,38.9850536 28.2107141,39.5024966 C27.811899,39.8877042 29.0024793,41.4630309 28.9027755,41.7275018 C28.8030717,41.997722 27.6887356,43.5558006 28.3045529,44.4067069 Z" id="Path" fill="#FFD31F" fill-rule="nonzero"></path>
                    <path d="M28.2841466,44.6192339 C28.8057898,45.3719274 29.8282106,44.7994563 29.8282106,44.7994563 C29.8282106,44.7994563 29.4839261,46.2200329 30.725437,46.9727264 C31.0905872,47.1953541 31.4922525,47.1529488 31.8887014,46.9303212 C31.8991343,46.9250205 31.9095671,46.9197199 31.92,46.9091185 C31.4348718,46.5963797 30.9340943,46.0292092 30.8036835,44.7146457 C30.6524069,43.1986573 31.0488558,42.5784802 29.567389,39.52 C28.8892528,39.7320264 28.3519602,39.9387521 28.2006837,40.0977718 C27.8459663,40.452916 28.9049021,41.9052965 28.8162227,42.1491268 C28.7275434,42.3982578 27.7364212,43.8347364 28.2841466,44.6192339 L28.2841466,44.6192339 Z" id="Path" fill="#D7AF0E" fill-rule="nonzero"></path>
                    <path d="M19.2090753,40.270383 C20.1070259,40.3714755 20.91629,39.6638284 21.0049765,38.700477 L21.2710359,35.9055685 C21.3652653,34.942217 20.7056596,34.0740114 19.807709,33.9788656 L14.9909247,33.449617 C14.0929741,33.3485245 13.28371,34.0561716 13.1950235,35.019523 L12.9289641,37.8144315 C12.8347347,38.777783 13.4943404,39.6459886 14.392291,39.7411344 L19.2090753,40.270383 Z" id="Path" fill="#BEC9CE" fill-rule="nonzero"></path>
                    <path d="M18.8875937,38.7543136 C19.5647933,38.8172618 20.1753831,38.3503963 20.2419929,37.7104235 L20.5139829,35.1924975 C20.5805927,34.5525247 20.08657,33.9755 19.4093704,33.9125518 L14.5524063,33.4456864 C13.8752067,33.3827382 13.2646169,33.8496037 13.1980071,34.4895765 L12.9260171,37.0075025 C12.8594073,37.6474753 13.35343,38.2245 14.0306296,38.2874482 L18.8875937,38.7543136 Z" id="Path" fill="#D0DBE2" fill-rule="nonzero"></path>
                    <ellipse id="Oval" fill="#FFD31F" fill-rule="nonzero" transform="translate(15.293729, 35.943907) rotate(-84.150000) translate(-15.293729, -35.943907) " cx="15.2937287" cy="35.9439067" rx="1.07009367" ry="1"></ellipse>
                    <path d="M14.8828143,36.0272031 C14.7103498,36.009038 14.5565301,35.9272948 14.44,35.8001386 C14.5005956,36.1634418 14.761623,36.4450018 15.1018908,36.4767908 C15.5213991,36.5176624 15.9036177,36.1634418 15.954891,35.6820651 C15.9828582,35.4005051 15.8942953,35.1371103 15.7311532,34.96 C15.7451368,35.0462845 15.749798,35.1371103 15.7404756,35.2279361 C15.6845412,35.7138541 15.3069837,36.0680747 14.8828143,36.0272031 Z" id="Path" fill="#D7AF0E" fill-rule="nonzero"></path>
                    <path d="M19.3720039,36.4773174 C19.5605798,36.5073102 19.730758,36.2823644 19.7491557,35.9749385 L19.7583545,35.8399711 C19.7767521,35.5325452 19.6387698,35.2551121 19.4501939,35.2251193 L17.8679961,34.9626826 C17.6794202,34.9326898 17.509242,35.1576356 17.4908443,35.4650615 L17.4816455,35.6000289 C17.4632479,35.9074548 17.6012302,36.1848879 17.7898061,36.2148807 L19.3720039,36.4773174 Z" id="Path" fill="#A0CF30" fill-rule="nonzero"></path>
                    <path d="M18.6120039,37.9973174 C18.8005798,38.0273102 18.970758,37.8023644 18.9891557,37.4949385 L18.9983545,37.3599711 C19.0167521,37.0525452 18.8787698,36.7751121 18.6901939,36.7451193 L17.1079961,36.4826826 C16.9194202,36.4526898 16.749242,36.6776356 16.7308443,36.9850615 L16.7216455,37.1200289 C16.7032479,37.4274548 16.8412302,37.7048879 17.0298061,37.7348807 L18.6120039,37.9973174 Z" id="Path" fill="#FDCC00" fill-rule="nonzero"></path>
                    <path d="M19.4705491,35.7188901 C19.5985887,35.7325229 19.7174827,35.6189166 19.7357741,35.4689562 L19.7586383,35.2599206 C19.7723568,35.1099603 19.6809,34.9736328 19.5528603,34.96 L19.5345689,35.1417701 C19.5208504,35.2917304 19.4019564,35.4053367 19.2693439,35.391704 L17.4859345,35.2099339 L17.4813617,35.2371994 C17.4676432,35.3871597 17.5591,35.5234873 17.6871397,35.53712 L19.4705491,35.7188901 Z" id="Path" fill="#89A520" fill-rule="nonzero"></path>
                    <path d="M18.7105491,37.9988901 C18.8385887,38.0125229 18.9574827,37.8989166 18.9757741,37.7489562 L18.9986383,37.5399206 C19.0123568,37.3899603 18.9209,37.2536328 18.7928603,37.24 L18.7745689,37.4217701 C18.7608504,37.5717304 18.6419564,37.6853367 18.5093439,37.671704 L16.7259345,37.4899339 L16.7213617,37.5171994 C16.7076432,37.6671597 16.7991,37.8034873 16.9271397,37.81712 L18.7105491,37.9988901 Z" id="Path" fill="#FCA800" fill-rule="nonzero"></path>
                    <path d="M12.9935423,41.7770263 C14.6794076,41.952201 16.2306191,41.1230405 16.7046004,39.3771321 C16.7584619,39.1786007 16.6668973,38.968391 16.4945405,38.8808036 C15.9666977,38.6180414 15.2126365,38.5012583 14.6632491,38.5421324 C14.5232092,38.5538107 14.3939415,38.6413981 14.3185354,38.7756987 C13.876871,39.5873418 12.6757594,39.66909 12.056352,39.190279 C12.0832827,38.2443353 12.1963919,37.24 12.1963919,37.24 C9.72953472,37.9582165 10.3435559,41.4967467 12.9935423,41.7770263 L12.9935423,41.7770263 Z" id="Path" fill="#5B79FD" fill-rule="nonzero"></path>
                    <path d="M15.9452734,39.3958215 C15.9967809,39.1992949 15.9092181,38.9912078 15.7443941,38.9045049 C15.6362283,38.8467029 15.5177611,38.8004614 15.394143,38.76 C15.2859773,40.6327834 12.4273106,42.0373709 10.64,40.7888487 C11.0211556,41.3032861 11.6186427,41.6905592 12.3912553,41.7772621 C14.0085911,41.950668 15.4920073,41.1298802 15.9452734,39.3958215 Z" id="Path" fill="#4665D3" fill-rule="nonzero"></path>
                    <g id="Group" stroke-width="1" fill="none" fill-rule="evenodd" transform="translate(9.880000, 38.000000)">
                        <path d="M6.08,2.34221509 C5.66635277,1.50658106 4.88566646,0.896629213 4.02924192,0.597752809 C4.01176387,0.616051364 4.00011184,0.640449438 3.98263379,0.664847512 C3.88359149,0.841733547 3.74376708,0.98812199 3.58063859,1.09791332 C4.4603672,1.32969502 5.32844377,1.95184591 5.65470074,2.83627608 C5.81782922,2.68988764 5.95765364,2.52520064 6.08,2.34221509 L6.08,2.34221509 Z M3.48742232,1.16500803 C3.30681578,1.26869984 3.1087312,1.34189406 2.89899457,1.37239165 C3.40585808,1.94574639 3.72628903,2.95216693 3.74376708,3.76950241 C3.94185166,3.73900482 4.13411023,3.69020867 4.32054279,3.62921348 C4.28558668,2.8423756 3.99428582,1.86035313 3.48742232,1.16500803 L3.48742232,1.16500803 Z M2.48534735,3.8 C2.78830025,3.08025682 2.91064661,2.12263242 2.8057783,1.39069021 C2.60769371,1.41508828 2.40378311,1.40898876 2.21152454,1.37849117 C2.32804488,1.98844302 2.22900259,2.97046549 1.89109359,3.67191011 C2.08335216,3.72680578 2.28143674,3.77560193 2.48534735,3.8 Z M2.08335216,1.34799358 C1.88526757,1.29919743 1.69883502,1.21380417 1.54735857,1.10401284 C1.34927398,1.70786517 0.941452774,2.25072231 0.463719358,2.61669342 C0.574413686,2.78138042 0.708412083,2.92776886 0.854062515,3.06805778 C1.43083822,2.61669342 1.86778952,1.98844302 2.08335216,1.34799358 L2.08335216,1.34799358 Z M1.59979272,0 C1.10458126,0.341573034 0.586065721,0.597752809 0.0384200982,0.768539326 C-0.00236202261,0.975922953 -0.00818803988,1.19550562 0.00929001191,1.40898876 C0.5452836,1.2565008 1.06962515,1.03081862 1.54735857,0.744141252 C1.56483662,0.481861958 1.58231467,0.225682183 1.59979272,0 L1.59979272,0 Z" id="Shape" fill="#4665D3" fill-rule="nonzero"></path>
                    </g>
                    <ellipse id="Oval" fill="#E8EDEC" fill-rule="nonzero" transform="translate(20.873052, 16.507237) rotate(-87.940000) translate(-20.873052, -16.507237) " cx="20.8730523" cy="16.5072375" rx="13.5341899" ry="14.0553755"></ellipse>
                    <path d="M19,30.2952685 C28.1907494,31.2308913 34.6411895,25.8188458 34.9513068,17.2189598 C35.2388701,9.25215989 28.3542658,2.6747878 19.9359904,3.05575995 C27.232205,3.90734475 32.7635701,9.98048899 32.5098378,17.1349218 C32.2561054,24.3341749 27.5423223,30.0711673 19,30.2952685 Z" id="Path" fill="#D0DBE2" fill-rule="nonzero"></path>
                    <path d="M27.36,4.19961862 C27.36,4.19961862 27.0614531,3.27218782 26.2784714,2.76126785 C25.2870703,2.11151094 20.8820946,0.401039763 17.1305425,2.62798438 C13.3339266,4.88269639 13.6888032,8.87564697 13.6888032,8.87564697 L20.6736751,9.12 C22.3748293,4.10520949 27.36,4.19961862 27.36,4.19961862 Z" id="Path" fill="#FFD31F" fill-rule="nonzero"></path>
                    <path d="M27.36,4.60427826 C27.36,4.60427826 27.0739205,3.6109913 26.3236364,3.0637913 C26.3128409,3.05784348 26.3020455,3.05189565 26.29125,3.04 C24.2832955,3.14706087 21.4764773,4.27714783 19.9327273,9.24358261 C19.8679545,9.4458087 19.8139773,9.64208696 19.76,9.83241739 L20.9475,9.88 C22.5830114,4.50316522 27.36,4.60427826 27.36,4.60427826 L27.36,4.60427826 Z" id="Path" fill="#D7AF0E" fill-rule="nonzero"></path>
                    <path d="M30.1463897,14.8484393 C28.6593574,9.77598794 24.1982605,7.38174636 17.1472033,7.61560251 C12.6422087,7.76593861 9.54742563,8.79045129 8.03844451,13.4397344 C7.0891582,16.3629363 6.58982263,26.9087352 18.6616716,27.3486075 C29.0544361,27.7272318 31.2383434,18.5678657 30.1463897,14.8484393 L30.1463897,14.8484393 Z" id="Path" fill="#0A236F" fill-rule="nonzero"></path>
                    <path d="M19.685558,27.80591 C17.5512089,27.4577453 17.8241436,25.9018841 15.8480966,25.8420433 C14.0794799,25.7876425 14.8764491,26.8375768 14.4615884,26.8375768 C12.2944872,26.848457 15.1548425,28.5566402 16.7433223,28.7905634 C19.489045,29.1876888 21.8253658,28.1540747 19.685558,27.80591 L19.685558,27.80591 Z" id="Path" fill="#E8EDEC" fill-rule="nonzero"></path>
                    <ellipse id="Oval" fill="#FFD31F" fill-rule="nonzero" transform="translate(33.545704, 18.414280) rotate(-87.940000) translate(-33.545704, -18.414280) " cx="33.5457044" cy="18.4142801" rx="4.85700548" ry="2.84988678"></ellipse>
                    <ellipse id="Oval" fill="#D7AF0E" fill-rule="nonzero" transform="translate(34.349358, 18.443685) rotate(-87.940000) translate(-34.349358, -18.443685) " cx="34.3493583" cy="18.4436852" rx="4.08631626" ry="2.17899904"></ellipse>
                    <g id="Group" stroke-width="1" fill="none" fill-rule="evenodd" transform="translate(7.600000, 10.634983)">
                        <ellipse id="Oval" fill="#0E34A9" fill-rule="nonzero" transform="translate(2.337137, 1.049575) rotate(-71.350000) translate(-2.337137, -1.049575) " cx="2.33713727" cy="1.04957477" rx="1" ry="1"></ellipse>
                        <path d="M1.65854629,2.16503673 C1.32922519,2.01264635 0.932923531,2.14870919 0.776635552,2.47526001 L0.776635552,2.48070252 C-0.780662527,5.69722806 0.140320208,10.4975251 2.32835192,12.7071856 C2.41765933,12.7942658 2.55720217,12.679973 2.49022161,12.5820078 C2.50138504,12.5983353 1.84274284,11.7601882 1.4129509,10.2798245 C0.748726984,7.99396881 0.815707546,5.1529767 1.96554054,3.05760896 C2.14415537,2.72017312 1.9934491,2.32286962 1.65854629,2.16503673 L1.65854629,2.16503673 Z M18.3478698,11.8254984 C18.1915818,12.0159864 18.2194904,12.2989971 18.4148504,12.4513875 C18.6102103,12.6037778 18.9004594,12.5765653 19.0567474,12.3860773 C19.0288388,12.4187324 19.8772593,11.4662925 20.5303198,9.98592879 C20.9042946,9.13145416 21.1610534,8.23888192 21.2782694,7.32453964 C21.306178,7.11772412 20.9880203,7.05785647 20.9377849,7.26467199 C20.9489483,7.2320169 20.720098,8.38582979 19.960985,9.71380311 C19.2241988,11.0145639 18.4204321,11.7329757 18.3478698,11.8254984 Z M18.1413464,13.2296669 C18.1971635,12.9303287 17.9962218,12.6418754 17.6836459,12.5874503 C17.3766516,12.5330252 17.0808208,12.7289557 17.0250037,13.0337364 C16.9691865,13.3330747 17.1701282,13.6215279 17.4827042,13.675953 C17.7896984,13.7303782 18.0855293,13.5344477 18.1413464,13.2296669 Z" id="Shape" fill="#0E34A9" fill-rule="nonzero"></path>
                    </g>
                    <path d="M10.6029739,14.7282042 C9.90175121,14.2440358 9.12501224,14.3375683 7.75493098,15.256388 C6.39024375,16.1807095 5.39234993,17.2150693 4.71809734,18.3374598 C4.1840893,19.2232679 4.10317899,19.9440186 3.54759486,20.6317579 C2.99201073,21.3194971 2.28,21.9852287 2.28,22.8270215 C2.28,23.4157263 3.20237754,24.5601244 5.24131735,24.9562622 C7.28025717,25.3468981 8.03002604,24.714178 8.24039285,24.4170746 C8.45075965,24.1254732 8.62336831,22.3593588 8.77979491,22.2383167 C8.93622151,22.1227765 9.72374853,21.8641866 10.6083679,20.7087847 C11.4929873,19.5533827 11.8220226,17.941322 10.6083679,17.9248162 C10.6029739,17.9248162 11.7950525,15.5479894 10.6029739,14.7282042 L10.6029739,14.7282042 Z" id="Path" fill="#FFD31F" fill-rule="nonzero"></path>
                    <path d="M4.69874478,22.0390202 C4.95825983,22.0186228 5.21777488,21.9982253 5.47728992,21.9676292 C5.71373697,21.9421324 5.94441701,21.9064369 6.16933005,21.8299466 C6.59032113,21.6820653 6.95940919,21.4423955 7.28812825,21.1721297 C7.42653628,21.0599438 7.21892424,20.8814664 7.08628322,20.9936522 C6.78639916,21.2384213 6.4576801,21.462793 6.07129103,21.5953762 C5.86367899,21.6667672 5.64453295,21.7024627 5.42538691,21.7228601 C5.18317287,21.7483569 4.94672583,21.7687543 4.70451178,21.7891517 C4.62954077,21.7942511 4.56033676,21.8452447 4.56033676,21.9166356 C4.55456976,21.9778279 4.62377377,22.0492189 4.69874478,22.0390202 L4.69874478,22.0390202 Z M10.6329889,18.24 C10.6329889,18.24 10.2812018,18.8213266 10.0793568,19.1680828 C10.0793568,19.1680828 10.8290669,18.6326504 11.4,18.6326504 C11.28466,18.3929807 11.0366789,18.2450994 10.6329889,18.24 L10.6329889,18.24 Z" id="Shape" fill="#D7AF0E" fill-rule="nonzero"></path>
                </g>
            </g>
        </g>
    </g>
</svg>