<?xml version="1.0" encoding="UTF-8"?>
<svg width="42px" height="42px" viewBox="0 0 42 42" version="1.1" xmlns="http://www.w3.org/2000/svg" xmlns:xlink="http://www.w3.org/1999/xlink">
    <title>Group 2</title>
    <defs>
        <circle id="path-1" cx="21" cy="21" r="21"></circle>
    </defs>
    <g id="Page-1" stroke="none" stroke-width="1" fill="none" fill-rule="evenodd">
        <g id="Group-2">
            <mask id="mask-2" fill="white">
                <use xlink:href="#path-1"></use>
            </mask>
            <use id="Oval" fill="#4421DB" xlink:href="#path-1"></use>
            <g id="Group" mask="url(#mask-2)">
                <g transform="translate(24.000000, 26.000000) scale(-1, 1) translate(-24.000000, -26.000000) translate(3.000000, 2.000000)">
                    <path d="M24.683926,48 C20.8397926,48 14.9221568,47.0658507 13.850459,43.2822521 C12.9010745,42.6712362 12.2370878,41.7194614 12.0215833,40.6384333 C9.89566105,40.2741738 8.20074765,38.823011 7.15234761,36.9605875 C6.6805676,36.6550796 6.33692536,36.2203182 6.09229869,35.8208078 C4.39156085,35.3331701 3.68680304,33.7351285 3.38975636,31.9902081 C2.93544968,31.9432069 2.46949411,31.8785802 2.13167632,31.796328 C0.0756473547,31.2851897 0.0115784635,29.3992656 0.00575401881,29.3933905 C-0.0874370957,27.9657283 0.960962943,26.7554468 2.45202077,26.573317 C3.20337414,26.4851897 4.65366086,26.4675643 6.33110092,26.4616891 C6.37769647,26.2149327 6.43594092,25.9564259 6.5116587,25.7037944 C7.12322539,23.7121175 8.48614544,23.4947368 9.04529213,23.4947368 C10.1868833,23.4947368 11.1479166,24.19388 11.4857344,25.4335373 C11.6662922,26.1091799 11.63717,26.8083231 11.6255211,27.4663403 C11.95169,28.0068543 12.7787612,28.9821297 12.9243723,30.4744186 C13.0059145,30.5566707 13.0874567,30.6389229 13.1573501,30.7152999 C13.7630923,29.8575275 14.3863079,29.1407589 14.9279812,28.570869 C5.98163424,21.9613219 7.15817206,7.07955936 18.5041903,2.43231334 C20.1350348,0.916523868 22.3483237,0 24.9169038,0 C27.5961484,0 29.7977884,0.975275398 30.5899129,1.48641371 C31.3179685,1.95642595 31.7722752,2.60856793 32.0460241,3.1255814 C35.8901576,5.19363525 38.6742421,8.73635251 39.7051688,12.8842105 C40.1070555,13.2719706 40.4565222,13.7537332 40.74192,14.3177479 C42.15726,16.5738066 42.0174733,20.4925337 40.4332244,22.6428397 C39.7575888,23.7591187 38.9654643,24.3231334 38.2898288,24.5992656 C40.4856444,25.7742962 42,28.1126071 42,30.8093023 L42,38.6173807 C42,42.4949816 38.8722732,45.6440636 35.0339642,45.6440636 L33.1643175,45.6440636 C30.997624,47.7532436 26.6059928,48 24.683926,48 Z" id="Path" fill="#FFFFFF" fill-rule="nonzero"></path>
                    <path d="M15.856675,36.4507937 L19,28.9777778 L17.2971113,28 C17.2971113,28 14.4040317,29.8798942 12.4570013,33.3021164 C12.4570013,33.3021164 11.5536768,32.6502646 10.7907339,32.237037 L7.00043327,35.4148148 C6.96991555,35.5486772 8.55073335,39 11.9992355,39 C15.4477376,39 15.856675,36.4507937 15.856675,36.4507937 L15.856675,36.4507937 Z" id="Path" fill="#E8EDEC" fill-rule="nonzero"></path>
                    <path d="M17.9986289,29 C17.9986289,29 17.1466335,29.6287425 16.089938,30.8143713 C15.9848217,31.6107784 15.9350298,32.9221557 16.1507948,35 C16.1507948,35 17.5670988,31.3353293 19,29.6526946 L17.9986289,29 Z" id="Path" fill="#F7343E" fill-rule="nonzero"></path>
                    <path d="M17.467033,27 L17.4615385,27.007109 C17.3901099,27.07109 16.7912088,27.6184834 16,28.6066351 C16.7747253,29.1682464 17.5934066,29.6303318 18.4395604,30 L19,28.1943128 L17.467033,27 Z" id="Path" fill="#C61E36" fill-rule="nonzero"></path>
                    <path d="M17.3546983,37.0053883 C16.8085906,37.3933439 16.0184774,37.6900158 14.891404,37.6900158 C12.2596297,37.6900158 10.7723576,35.5106181 10.3017754,34.5863708 L9.00041241,35.7103011 C8.97136413,35.8415214 10.4760651,39.2247227 13.758521,39.2247227 C16.3496278,39.2247227 17.1339314,37.6614897 17.3546983,37.0053883 L17.3546983,37.0053883 Z M35.6957837,43.9942948 C38.6238505,43.9942948 41,41.6608558 41,38.78542 L41,31.2088748 C41,28.333439 38.6238505,26 35.6957837,26 L33.8657419,26 C30.9376751,26 28.5615256,28.333439 28.5615256,31.2088748 L28.5615256,38.7911252 C28.5615256,41.666561 30.9376751,44 33.8657419,44 L35.6957837,44 L35.6957837,43.9942948 Z" id="Shape" fill="#D0DBE2" fill-rule="nonzero"></path>
                    <path d="M32.0298926,43.9942948 C35.3255488,43.9942948 38,41.6608558 38,38.78542 L38,31.2088748 C38,28.333439 35.3255488,26 32.0298926,26 L29.9701074,26 C26.6744512,26 24,28.333439 24,31.2088748 L24,38.7911252 C24,41.666561 26.6744512,44 29.9701074,44 L32.0298926,44 L32.0298926,43.9942948 Z" id="Path" fill="#BEC9CE" fill-rule="nonzero"></path>
                    <path d="M39,33.9999758 C39,33.4486378 38.5506329,33 38,33 C37.4493671,33 37,33.4486378 37,33.9999758 C37,34.5513139 37.4493671,34.9999517 38,34.9999517 C38.556962,35.0053569 39,34.5567191 39,33.9999758 Z" id="Path" fill="#F7343E" fill-rule="nonzero"></path>
                    <path d="M37.6233766,34.4518072 C37.3896104,34.4518072 37.1753247,34.3674699 37,34.2228916 C37.1298701,34.6746988 37.5194805,35 37.974026,35 C38.538961,35 39,34.5 39,33.8855422 C39,33.5240964 38.8441558,33.2048193 38.5974026,33 C38.6298701,33.1084337 38.6428571,33.2228916 38.6428571,33.3373494 C38.6428571,33.9518072 38.1883117,34.4518072 37.6233766,34.4518072 L37.6233766,34.4518072 Z" id="Path" fill="#C61E36" fill-rule="nonzero"></path>
                    <path d="M40.3301887,39 C40.6981132,39 41,38.8466454 41,38.6597444 L41,36.3402556 C41,36.1533546 40.6981132,36 40.3301887,36 L39.6698113,36 C39.3018868,36 39,36.1533546 39,36.3402556 L39,38.6597444 C39,38.8466454 39.3018868,39 39.6698113,39 L40.3301887,39 Z" id="Path" fill="#FCA800" fill-rule="nonzero"></path>
                    <path d="M38.1125,39 C38.6,39 39,38.8300885 39,38.6230088 L39,36.0530973 C39,36.0371681 39,36.0212389 38.9875,36.0106195 C38.9125,36 38.8375,36 38.7625,36 L37.8875,36 C37.4,36 37,36.1699115 37,36.3769912 L37,38.9469027 C37,38.9628319 37,38.9787611 37.0125,38.9893805 C37.0875,39 37.1625,39 37.2375,39 L38.1125,39 Z" id="Path" fill="#FDCC00" fill-rule="nonzero"></path>
                    <path d="M32.2811944,44.2629676 C34.5540836,39.2266496 30.7103114,27 30.7103114,27 L18.7244172,27.3579736 C18.7244172,27.3641455 13.5514364,36.9615409 15.3985186,43.4544411 C16.6241525,47.774812 30.4743913,48.2685686 32.2811944,44.2629676 Z" id="Path" fill="#E8EDEC" fill-rule="nonzero"></path>
                    <path d="M31,29.9026549 C30.5865922,28.1520515 30.2513966,27 30.2513966,27 L21.8882682,27.2703138 L18.4636872,27.6693484 C18.2793296,28.0619469 17.9329609,28.8213998 17.5251397,29.8382944 C19.6256983,30.9195495 21.9497207,31.4344328 24.3631285,31.4344328 C26.8156425,31.4344328 29.0502793,30.9131134 31,29.9026549 Z M15.2681564,40.850362 C15.2793296,39.769107 15.3687151,38.687852 15.5195531,37.619469 C15.6703911,36.531778 15.8882682,35.456959 16.150838,34.4014481 C16.2960894,33.8157683 16.4581006,33.2429606 16.6368715,32.6701529 C16.6592179,32.5929204 16.6089385,32.5028158 16.547486,32.4835076 C16.4748603,32.4577635 16.4078212,32.5092518 16.3854749,32.5864843 C16.0614525,33.616251 15.7932961,34.6653258 15.575419,35.7272727 C15.3575419,36.8085278 15.1899441,37.9090909 15.0949721,39.0225261 C15.0391061,39.6275141 15.0111732,40.2389381 15,40.850362 C15.0055866,41.0498793 15.2681564,41.0498793 15.2681564,40.850362 Z" id="Shape" fill="#BEC9CE" fill-rule="nonzero"></path>
                    <path d="M22.801102,40.9917438 C23.750074,41.0785397 24.5998071,40.4709688 24.699046,39.6409837 L24.9905602,37.1347541 C25.0897991,36.3047689 24.3951268,35.5615796 23.4461548,35.4747838 L18.198898,35.0082562 C17.249926,34.9214603 16.4001929,35.5290312 16.300954,36.3590163 L16.0094398,38.8652459 C15.9102009,39.6952311 16.6048732,40.4384204 17.5538452,40.5252162 L22.801102,40.9917438 Z" id="Path" fill="#BEC9CE" fill-rule="nonzero"></path>
                    <path d="M22.3047452,40.9929869 C23.0031528,41.066736 23.6286832,40.5504919 23.7015605,39.8375833 L23.9930698,36.9552202 C24.0659471,36.2484574 23.5558059,35.6154437 22.8513251,35.5416946 L17.6952548,35.0070131 C16.9968472,34.933264 16.3713168,35.4495081 16.2984395,36.1624167 L16.0069302,39.0447798 C15.9340529,39.7515426 16.4441941,40.3845563 17.1486749,40.4583054 L22.3047452,40.9929869 Z" id="Path" fill="#D0DBE2" fill-rule="nonzero"></path>
                    <ellipse id="Oval" fill="#F7343E" fill-rule="nonzero" transform="translate(18.500395, 36.428140) rotate(-84.150000) translate(-18.500395, -36.428140) " cx="18.5003953" cy="36.42814" rx="1.0869033" ry="1"></ellipse>
                    <path d="M18.5812878,37.398715 C18.3513278,37.373849 18.1533067,37.2681683 18,37.1003225 C18.0830411,37.5727773 18.4215933,37.945768 18.8687378,37.9955001 C19.4244744,38.0514487 19.9227211,37.5789938 19.9929866,36.9511262 C20.0313133,36.5781355 19.9099455,36.2362274 19.6927611,36 C19.7119244,36.1118972 19.7183122,36.2300109 19.7055366,36.3543411 C19.6352711,36.9884253 19.1370244,37.4546636 18.5812878,37.398715 L18.5812878,37.398715 Z" id="Path" fill="#C61E36" fill-rule="nonzero"></path>
                    <path d="M21.4994523,35.9960948 C21.7453743,36.0371709 21.9597678,35.7496383 21.9849906,35.3491466 L21.997602,35.1437663 C22.0228248,34.7432745 21.8462654,34.3941279 21.6003434,34.3530518 L19.5005477,34.0039052 C19.2546257,33.9628291 19.0402322,34.2503617 19.0150094,34.6508534 L19.002398,34.8562337 C18.9771752,35.2567255 19.1537346,35.6058721 19.3996566,35.6469482 L21.4994523,35.9960948 Z" id="Path" fill="#A0CF30" fill-rule="nonzero"></path>
                    <path d="M21.4994523,38.9960948 C21.7453743,39.0371709 21.9597678,38.7496383 21.9849906,38.3491466 L21.997602,38.1437663 C22.0228248,37.7432745 21.8462654,37.3941279 21.6003434,37.3530518 L19.5005477,37.0039052 C19.2546257,36.9628291 19.0402322,37.2503617 19.0150094,37.6508534 L19.002398,37.8562337 C18.9771752,38.2567255 19.1537346,38.6058721 19.3996566,38.6469482 L21.4994523,38.9960948 Z" id="Path" fill="#FDCC00" fill-rule="nonzero"></path>
                    <path d="M21.6219691,37.996838 C21.7912046,38.0342788 21.9479042,37.734753 21.9667082,37.3353854 L21.9980481,36.786255 C22.0168521,36.3868874 21.8977604,36.0374407 21.7285248,36 L21.7034529,36.474249 C21.6846489,36.8736166 21.5279493,37.1731423 21.3587138,37.1357016 L19.0082199,36.6614526 L19.0019519,36.736334 C18.9831479,37.1357016 19.1022396,37.4851483 19.2714752,37.522589 L21.6219691,37.996838 Z" id="Path" fill="#89A520" fill-rule="nonzero"></path>
                    <path d="M21.6219691,38.996838 C21.7912046,39.0342788 21.9479042,38.734753 21.9667082,38.3353854 L21.9980481,37.786255 C22.0168521,37.3868874 21.8977604,37.0374407 21.7285248,37 L21.7034529,37.474249 C21.6846489,37.8736166 21.5279493,38.1731423 21.3587138,38.1357016 L19.0082199,37.6614526 L19.0019519,37.736334 C18.9831479,38.1357016 19.1022396,38.4851483 19.2714752,38.522589 L21.6219691,38.996838 Z" id="Path" fill="#FCA800" fill-rule="nonzero"></path>
                    <path d="M15.3230721,41.9746246 C16.9849466,42.1677492 18.5143128,41.2554017 18.9836129,39.3441337 C19.0388246,39.1243711 18.9504858,38.8912897 18.7793293,38.7980571 C18.2603386,38.5116998 17.5149796,38.3851699 16.9739042,38.4251267 C16.8358748,38.4384457 16.7088877,38.5316782 16.6371124,38.6781866 C16.2009393,39.5638962 15.0194073,39.6571288 14.4065566,39.1376901 C14.4341625,38.1054721 14.544586,37 14.544586,37 C12.0987043,37.792477 12.7060339,41.6682889 15.3230721,41.9746246 L15.3230721,41.9746246 Z" id="Path" fill="#5B79FD" fill-rule="nonzero"></path>
                    <path d="M18.9820475,39.6299394 C19.0425333,39.4338262 18.945756,39.2258273 18.75825,39.1426278 C18.6372783,39.0891424 18.5042095,39.0415998 18.3650921,39 C18.2441205,40.8541614 15.0141778,42.2388396 13,41.002732 C13.4294493,41.5138149 14.1008419,41.8941557 14.9778863,41.9773553 C16.7985094,42.1496972 18.4739666,41.3355302 18.9820475,39.6299394 Z" id="Path" fill="#4665D3" fill-rule="nonzero"></path>
                    <g id="Group" stroke-width="1" fill="none" fill-rule="evenodd" transform="translate(13.000000, 39.000000)">
                        <path d="M6,1.85308848 C5.58727163,1.19198664 4.8216306,0.711185309 3.97822915,0.475792988 C3.96028444,0.49081803 3.9483213,0.510851419 3.93635816,0.525876461 C3.83467146,0.666110184 3.7030769,0.78130217 3.5415745,0.871452421 C4.40890223,1.05676127 5.27024839,1.5475793 5.58727163,2.24373957 C5.7368109,2.12353923 5.87438702,1.9933222 6,1.85308848 L6,1.85308848 Z M3.4398878,0.921535893 C3.26642225,1.0066778 3.06304885,1.05676127 2.85967546,1.08681135 C3.35614581,1.54257095 3.67316905,2.33388982 3.69111376,2.97996661 C3.88850559,2.95492487 4.07991585,2.9148581 4.26534454,2.86978297 C4.22347354,2.24373957 3.94233973,1.47245409 3.4398878,0.921535893 L3.4398878,0.921535893 Z M2.45292866,3 C2.75200719,2.42904841 2.8716386,1.67779633 2.7699519,1.09682805 C2.57256007,1.11686144 2.37516824,1.11185309 2.18375798,1.08681135 C2.29740782,1.56761269 2.20170269,2.34390651 1.86673474,2.89983306 C2.05216343,2.94490818 2.24955526,2.97996661 2.45292866,3 Z M2.058145,1.06677796 C1.86075317,1.02671119 1.67532448,0.961602671 1.52578522,0.876460768 C1.32839339,1.35225376 0.927628164,1.78297162 0.455084089,2.06844741 C0.56275236,2.19866444 0.694346912,2.31385643 0.843886176,2.42404007 C1.40615381,2.06844741 1.84280846,1.57262104 2.058145,1.06677796 L2.058145,1.06677796 Z M1.57961936,0 C1.08913057,0.270450751 0.580697071,0.470784641 0.0363741502,0.606010017 C0.000484726798,0.771285476 -0.0114784143,0.941569282 0.0124478679,1.11185309 C0.544807648,0.991652755 1.05324115,0.816360601 1.53176679,0.585976628 C1.54372993,0.380634391 1.56167464,0.180300501 1.57961936,0 Z" id="Shape" fill="#4665D3" fill-rule="nonzero"></path>
                    </g>
                    <path d="M30.8497566,36.6868174 L27.0006421,40.0491324 C26.9593172,40.1685752 28.9074887,44.5461541 34.3800795,43.9429679 C39.8585739,43.3397817 39.7405029,36.9197309 37.7332959,31.9389658 C35.7260889,26.9582008 33.7011713,27 33.7011713,27 L30.4837365,28.9708121 C30.0881987,28.9708121 31.6172181,34.3039334 32.9986488,37.0511179 C32.9986488,37.0511179 31.6703501,37.1108394 30.8497566,36.6868174 L30.8497566,36.6868174 Z" id="Path" fill="#E8EDEC" fill-rule="nonzero"></path>
                    <path d="M36,26.2727232 C35.5932307,25.7832828 35.059346,25.2863126 34.5000381,25.0754767 C34.2775862,24.9926484 34.1631823,25.0001782 34.1568265,25.0001782 L30.6992873,27.4774996 C30.1463353,27.7033951 29.3073736,29.337373 31.0234316,30 C32.9174513,29.1415969 34.5890189,27.8916414 36,26.2727232 Z" id="Path" fill="#BEC9CE" fill-rule="nonzero"></path>
                    <path d="M33.4172185,27 L31.0001086,29.176427 C30.9857779,31.726464 32.3949625,35 32.3949625,35 C32.2468787,30.3091179 33.4745413,28.0852483 34,27.2905856 C33.7324938,27.1008154 33.5318641,27.0296516 33.4172185,27 L33.4172185,27 Z" id="Path" fill="#F7343E" fill-rule="nonzero"></path>
                    <path d="M34,25.3875969 C33.9665101,25.3565891 33.9330201,25.3255814 33.9043145,25.3023256 C33.8181975,25.2248062 33.741649,25.1705426 33.6698849,25.124031 C33.6651006,25.1162791 33.655532,25.1162791 33.6507477,25.1085271 C33.6411792,25.1007752 33.6316106,25.1007752 33.6220421,25.0930233 C33.6076893,25.0852713 33.5885521,25.0775194 33.5741993,25.0697674 C33.5646308,25.0620155 33.5550622,25.0620155 33.5454936,25.0542636 C33.5359251,25.0465116 33.5263565,25.0465116 33.516788,25.0387597 C33.5072194,25.0310078 33.4928666,25.0310078 33.483298,25.0232558 C33.4785138,25.0232558 33.4689452,25.0155039 33.4641609,25.0155039 C33.4498081,25.0077519 33.4402395,25.0077519 33.430671,25 L33.4211024,25 L31.0002581,27.8449612 C30.9954738,28.5348837 31.0576694,29.2713178 31.1485707,30 C31.7800953,29.5813953 32.37813,29.0930233 32.9426747,28.5193798 C33.2967112,26.8914729 33.7368647,25.9069767 34,25.3875969 Z" id="Path" fill="#C61E36" fill-rule="nonzero"></path>
                    <path d="M34.5569192,43.9413223 C37.0897775,43.6535998 38.4499043,42.1274192 39,40.0570677 C37.0172374,43.4096611 30.5913941,43.4221707 27.9618156,39 L27.0006594,39.8631677 C26.9583443,39.9882645 28.9471519,44.5668062 34.5569192,43.9413223 Z" id="Path" fill="#D0DBE2" fill-rule="nonzero"></path>
                    <g id="Group" stroke-width="1" fill="none" fill-rule="evenodd" transform="translate(27.000000, 39.000000)">
                        <path d="M0.303498339,0.166808483 L0.303498339,0.233475149 C0.303498339,0.166808483 0.288498339,0.300141816 0.288498339,0.300141816 C0.303498339,0.266808483 0.303498339,0.233475149 0.303498339,0.200141816 L0.303498339,0.166808483 C0.303498339,0.183475149 0.303498339,0.183475149 0.303498339,0.166808483 L0.303498339,0.166808483 Z M0.379980115,0.354706757 C0.379980115,0.338040091 0.379980115,0.338040091 0.364980115,0.338040091 C0.349980115,0.271373424 0.409980115,0.438040091 0.379980115,0.354706757 Z M1.79067783,1.87020984 L1.77567783,1.85354318 L1.79067783,1.87020984 Z" id="Shape" fill="#BEC9CE" fill-rule="nonzero"></path>
                        <path d="M0.502971249,1.34158673 C0.709545488,1.70069397 0.939728212,2.03867726 1.1876173,2.3555366 C1.4945276,2.74280911 1.83685062,3.10191636 2.19688001,3.41173437 C2.61593061,3.77788294 3.07039394,4.07361831 3.54846575,4.32006446 C4.09736301,4.59467588 4.681673,4.78479148 5.27188511,4.89041126 C5.98013965,5.017155 6.70019842,5.03123763 7.41435508,4.94674181 C8.14031598,4.86224599 8.84857051,4.66508907 9.50370595,4.27781655 C10.0585053,3.94687458 10.5601856,3.48214756 10.9556277,2.91180076 C11.3510699,2.34145396 11.6461759,1.67957002 11.8527502,0.982479484 C11.9058692,0.806446521 11.9530862,0.630413558 11.9944011,0.447339277 C12.041618,0.243141039 11.7760226,0.151603899 11.7288056,0.355802136 C11.5694483,1.04585135 11.3392656,1.70773529 10.9969426,2.29920605 C10.6723259,2.86955285 10.2473732,3.36244514 9.75159504,3.72859371 C9.19089353,4.15107282 8.55346445,4.40456028 7.90423113,4.53834534 C7.20187872,4.67917171 6.47591782,4.70733698 5.76766329,4.62988248 C5.17154905,4.56651061 4.58133694,4.41864292 4.01473331,4.17923809 C3.5366615,3.97503985 3.07039394,3.70746975 2.63363697,3.36948646 C2.2499991,3.07375108 1.93128456,2.77097439 1.60076578,2.38370187 C1.45911487,2.22175154 1.32336608,2.04571858 1.19351942,1.86968562 C1.13449821,1.7851898 1.075477,1.70773529 1.01645579,1.62323947 C1.00465154,1.60211551 0.992847302,1.58803288 0.98104306,1.56690892 C0.975140939,1.55282628 0.969238817,1.54578497 0.957434575,1.53170233 L0.963336696,1.53874365 C0.963336696,1.53874365 0.945630333,1.51057837 0.957434575,1.52466101 L0.951532454,1.51761969 C0.92792397,1.47537178 0.904315485,1.44016519 0.87480488,1.39791728 C0.715447609,1.13738849 0.56199246,0.862777069 0.438047917,0.581124328 C0.396733069,0.489587188 0.355418221,0.391008728 0.320005495,0.292430269 C0.320005495,0.285388951 0.314103373,0.278347632 0.314103373,0.271306314 C0.325907616,0.306512906 0.302299131,0.236099721 0.308201252,0.264264995 C0.308201252,0.264264995 0.308201252,0.271306314 0.314103373,0.271306314 C0.308201252,0.257223677 0.302299131,0.243141039 0.29639701,0.222017084 L0.278690647,0.158645217 C0.278690647,0.172727854 0.278690647,0.186810491 0.272788526,0.200893128 C0.272788526,0.200893128 0.278690647,0.137521262 0.278690647,0.172727854 L0.278690647,0.14456258 C0.272788526,0.130479943 0.278690647,0.137521262 0.278690647,0.14456258 L0.278690647,0.158645217 C0.284592768,-0.0103464272 0.0544100443,-0.0737182939 0.00719307535,0.116397306 C-0.010513288,0.179769173 0.00719307535,0.243141039 0.0308015598,0.299471588 C0.0603121654,0.391008728 0.089822771,0.475504551 0.125235498,0.567041691 C0.237375799,0.848694432 0.367222464,1.09514058 0.502971249,1.34158673 L0.502971249,1.34158673 Z" id="Path" fill="#BEC9CE" fill-rule="nonzero"></path>
                    </g>
                    <g id="Group" stroke-width="1" fill="none" fill-rule="evenodd" transform="translate(31.000000, 36.000000)">
                        <path d="M0.366580075,0.343626566 C0.351580075,0.343626566 0.351580075,0.323626566 0.336580075,0.323626566 C0.321580075,0.303626566 0.321580075,0.303626566 0.366580075,0.343626566 Z" id="Path" fill="#BEC9CE" fill-rule="nonzero"></path>
                        <path d="M0.033211044,0.130583465 C-0.00602981698,0.279821712 -0.0158400322,0.596952985 0.033211044,0.746191231 C0.136218304,1.0633225 0.263751102,1.23121553 0.386378793,1.361799 C0.562962667,1.56700159 0.744451649,1.69758505 0.925940631,1.79085896 C1.37721053,2.03337111 1.83338554,2.08933545 2.28465544,1.82816852 C2.5151955,1.69758505 2.74083045,1.47372768 2.94193986,1.04466772 C3.07437777,0.783500793 2.95665519,0.0186547808 2.82421728,0.279821712 C2.66725384,0.596952985 2.49066996,0.783500793 2.30427587,0.914084258 C2.10316646,1.04466772 1.89224683,1.10063207 1.68623231,1.10063207 C1.2938237,1.10063207 0.906320201,0.95139382 0.528626914,0.578298204 C0.450145192,0.503679081 0.376568578,0.410405177 0.302991963,0.298476493 L0.293181748,0.279821712 C0.298086856,0.279821712 0.298086856,0.298476493 0.302991963,0.298476493 C0.28827664,0.261166931 0.28827664,0.279821712 0.293181748,0.279821712 C0.28827664,0.279821712 0.283371533,0.261166931 0.278466425,0.261166931 C0.263751102,0.24251215 0.253940887,0.205202589 0.239225564,0.186547808 C0.229415349,0.167893027 0.214700026,0.130583465 0.204889811,0.111928685 C0.195079596,0.0932739039 0.160743842,-0.0186547808 0.195079596,0.0932739039 C0.146028519,-0.0186547808 0.0822621202,-0.0559643423 0.033211044,0.130583465 L0.033211044,0.130583465 Z" id="Path" fill="#BEC9CE" fill-rule="nonzero"></path>
                    </g>
                    <ellipse id="Oval" fill="#E8EDEC" fill-rule="nonzero" transform="translate(24.423142, 16.442245) rotate(-87.880000) translate(-24.423142, -16.442245) " cx="24.4231419" cy="16.4422451" rx="13.5187271" ry="14.0416157"></ellipse>
                    <path d="M22,29.8934624 C31.7730661,30.8314406 38.6402823,25.4966896 38.9900016,17.0138493 C39.3079283,9.15828186 32.0019733,2.65105812 23.049158,3.01452467 C30.806569,3.86456741 36.681854,9.86762787 36.39572,16.9259138 C36.1032274,24.0310986 31.0799859,29.6882796 22,29.8934624 L22,29.8934624 Z" id="Path" fill="#D0DBE2" fill-rule="nonzero"></path>
                    <path d="M32,3.83223082 C32,3.83223082 31.6945073,2.85940137 30.9002261,2.31412117 C29.8859902,1.62632456 25.3830271,-0.176817927 21.5399283,2.15921202 C17.6540606,4.52002744 18.0084322,8.7273599 18.0084322,8.7273599 L25.1508526,9 C26.8921613,3.7268926 32,3.83223082 32,3.83223082 Z" id="Path" fill="#F7343E" fill-rule="nonzero"></path>
                    <path d="M30,4.38077634 C30,4.38077634 29.6987952,3.51016636 28.9156627,3.02218115 C28.9036145,3.01663586 28.8915663,3.01109057 28.8855422,3 C26.7710843,3.09426987 23.8192771,4.08133087 22.186747,8.43992606 C22.1204819,8.61737523 22.060241,8.78927911 22,8.95563771 L23.253012,9 C24.9638554,4.28650647 30,4.38077634 30,4.38077634 L30,4.38077634 Z" id="Path" fill="#C61E36" fill-rule="nonzero"></path>
                    <path d="M32.7488151,14.3514091 C31.2577892,9.21918364 26.7612308,6.78750055 19.6465717,7.0145373 C15.1030519,7.15792893 11.9801158,8.19154361 10.4479986,12.8935942 C9.48528895,15.8510466 8.96284287,26.5217739 21.1434678,26.9877967 C31.6217404,27.3821237 33.8406687,18.1154395 32.7488151,14.3514091 L32.7488151,14.3514091 Z" id="Path" fill="#2A0E59" fill-rule="nonzero"></path>
                    <path d="M23.0263068,27.9420468 C20.5260539,27.5950471 20.8512901,26.0648349 18.5407583,26.0022612 C16.4741536,25.9453759 17.4024317,26.9806868 16.9145775,26.9806868 C14.3804458,26.9863753 17.7208921,28.6758661 19.5842242,28.9090954 C22.7891555,29.3072919 25.5265597,28.2890466 23.0263068,27.9420468 Z" id="Path" fill="#E8EDEC" fill-rule="nonzero"></path>
                    <ellipse id="Oval" fill="#F7343E" fill-rule="nonzero" transform="translate(37.070486, 18.361489) rotate(-87.880000) translate(-37.070486, -18.361489) " cx="37.0704857" cy="18.3614894" rx="4.85287638" ry="2.8494492"></ellipse>
                    <ellipse id="Oval" fill="#C61E36" fill-rule="nonzero" transform="translate(37.873211, 18.396354) rotate(-87.880000) translate(-37.873211, -18.396354) " cx="37.8732108" cy="18.3963542" rx="4.08323133" ry="2.17380661"></ellipse>
                    <g id="Group" stroke-width="1" fill="none" fill-rule="evenodd" transform="translate(12.000000, 10.002184)">
                        <ellipse id="Oval" fill="#5F30B2" fill-rule="nonzero" transform="translate(2.309501, 0.901810) rotate(-86.160000) translate(-2.309501, -0.901810) " cx="2.30950128" cy="0.901809814" rx="1" ry="1"></ellipse>
                        <path d="M1.64330103,2.05263467 C1.31613388,1.89732458 0.924701761,2.03471428 0.772802729,2.36922832 C-0.769556668,5.69047488 0.13015298,10.6663713 2.29179305,12.9601818 C2.3794271,13.0497838 2.51964159,12.936288 2.44953435,12.8287656 C2.46121889,12.846686 1.81272687,11.9745601 1.3920834,10.445353 C0.743591377,8.07388743 0.813698622,5.1409161 1.94709909,2.97254829 C2.1223672,2.62608731 1.97631044,2.20794476 1.64330103,2.05263467 L1.64330103,2.05263467 Z M18.0951346,12.0701355 C17.9373933,12.2672599 17.9666047,12.5599597 18.1652418,12.7152698 C18.3580368,12.8765533 18.644308,12.846686 18.7962071,12.6435882 C18.772838,12.6734555 19.6082826,11.6938072 20.2567747,10.1586267 C20.6248377,9.2745539 20.8818976,8.34866682 20.998743,7.40485935 C21.0221121,7.1898146 20.7124718,7.13007995 20.6657336,7.34512469 C20.6715759,7.3092839 20.4495696,8.50397691 19.701759,9.87787387 C18.9656329,11.2398239 18.1710841,11.9745601 18.0951346,12.0701355 L18.0951346,12.0701355 Z M17.8906551,13.527661 C17.9490778,13.2170408 17.7445984,12.9183676 17.4408003,12.8586329 C17.1370022,12.7988983 16.8448887,13.0079696 16.786466,13.3185897 C16.7280433,13.6292099 16.9325228,13.9278832 17.2363208,13.9876178 C17.5459612,14.0473525 17.8380747,13.8382812 17.8906551,13.527661 Z" id="Shape" fill="#5F30B2" fill-rule="nonzero"></path>
                    </g>
                    <g id="Group" stroke-width="1" fill="none" fill-rule="evenodd" transform="translate(1.000000, 25.000000)">
                        <path d="M4.72240642,6.64735805 C4.72240642,6.5669009 4.64194928,6.48644376 4.64194928,6.40598662 C4.64194928,6.48644376 4.64194928,6.5669009 4.72240642,6.64735805 Z M4.481035,6.16461519 C4.481035,6.08415805 4.481035,6.08415805 4.40057785,6.0037009 C4.481035,6.0037009 4.481035,6.08415805 4.481035,6.16461519 Z M4.32012071,5.52095805 L4.32012071,5.60141519 L4.32012071,5.52095805 Z" id="Shape" fill="#F7343E" fill-rule="nonzero"></path>
                        <path d="M7.66252126,0.00108692713 C6.36036521,-0.0661540278 6.39636953,3.00859146 6.31836018,3.06360678 C6.24035083,3.11862211 2.24387189,3.04526834 1.03172663,3.19197588 C-0.252427261,3.35090905 -0.432448835,4.99525603 1.03172663,5.25810704 C2.4959021,5.52095805 4.32012071,5.52095805 4.32012071,5.52095805 L4.32012071,5.52707086 C4.32012071,5.52707086 4.32012071,5.53318367 4.32612143,5.53929649 C4.32612143,5.5454093 4.33212215,5.55152212 4.33212215,5.55763493 C4.33212215,5.56374774 4.33812287,5.56986056 4.33812287,5.57597337 C4.34412359,5.59431181 4.35012431,5.61265026 4.35012431,5.61876307 L4.35012431,5.62487589 C4.44013509,5.88772689 4.73417033,6.73740805 5.56827029,9.18253368 C5.56827029,9.18253368 6.01832422,10.5762553 6.65440045,10.8880088 C7.29047668,11.1997623 8.40661043,10.8513319 9.48073916,9.95886107 C10.4588564,9.1458568 11.1009333,8.41843192 10.9869197,7.61154046 C10.9209117,7.17141785 10.2668334,6.60292614 9.92479237,6.33396232 C10.1168154,4.40231307 8.57463057,3.49150377 8.57463057,2.5929201 C8.58063129,1.57208015 8.77865502,0.0561022539 7.66252126,0.00108692713 L7.66252126,0.00108692713 Z" id="Path" fill="#F7343E" fill-rule="nonzero"></path>
                        <path d="M4.56149214,6.09027086 C4.56149214,6.170728 4.64194928,6.25118515 4.64194928,6.33164229 C4.64194928,6.41209943 4.72240642,6.49255657 4.72240642,6.57301372 C4.64194928,6.57301372 4.64194928,6.33164229 4.56149214,6.09027086 L4.56149214,6.09027086 Z M4.481035,6.09027086 C4.481035,6.170728 4.56149214,6.25118515 4.56149214,6.33164229 C4.56149214,6.25118515 4.56149214,6.170728 4.481035,6.09027086 Z M4.32012071,5.52707086 C4.32012071,5.607528 4.40057785,5.68798515 4.40057785,5.76844229 C4.40057785,5.76844229 4.32012071,5.607528 4.32012071,5.52707086 Z" id="Shape" fill="#F7343E" fill-rule="nonzero"></path>
                        <path d="M4.36383176,5.55587527 C4.36383176,5.57158956 4.37954605,5.60301813 4.37954605,5.61873242 L4.37954605,5.60301813 C4.37954605,5.58730385 4.36383176,5.57158956 4.36383176,5.55587527 Z" id="Path" fill="#F7343E" fill-rule="nonzero"></path>
                    </g>
                    <path d="M10,35.5595359 C8.9689441,34.4750156 8.92546584,33.9820518 8.92546584,33.9820518 L7.11180124,34.1463731 L6.75776398,34.3709455 C6.75776398,34.3709455 7.22360248,35.619787 7.88198758,35.8991332 C8.37888199,36.1127508 9.16770186,35.9812938 10,35.5595359 L10,35.5595359 Z M5.46583851,31.0954751 L5.7826087,31.604871 C6.58385093,31.1119072 6.96273292,30.6298982 5.30434783,30.6408529 C3,30.6518077 1.62732919,30.262914 1,30 C1.0310559,30.3834163 1.36645963,30.7558778 2.0621118,30.8654253 C3.57763975,31.0954751 5.46583851,31.0954751 5.46583851,31.0954751 L5.46583851,31.0954751 Z" id="Shape" fill="#C61E36" fill-rule="nonzero"></path>
                    <path d="M8.47201102,34.9491328 C8.98884055,34.5372714 9.11804793,33.8418334 8.89552411,32.7277822 C8.49354559,30.7494974 7.51013385,29.9932929 5.8878634,30 C4.86138254,30 4.11485101,30.1755922 4,31.0938405 C4.2368802,31.1005923 4.38044396,31.1005923 4.38044396,31.1005923 L6.59132581,34.8546072 C6.598504,34.8546072 7.4814211,35.1044247 8.47201102,34.9491328 L8.47201102,34.9491328 Z" id="Path" fill="#C61E36" fill-rule="nonzero"></path>
                    <path d="M6.56778133,34.9981195 C8.55819763,34.9177049 9.29565403,34.3115023 8.89470686,32.4990803 C8.4937597,30.6866582 7.51287109,29.9938553 5.89476287,30 C4.67044205,30 3.83990863,30.2227277 4.02606267,31.5835906 C4.20505694,32.9320821 4.57736503,35.0723484 6.56778133,34.9981195 L6.56778133,34.9981195 Z" id="Path" fill="#F7343E" fill-rule="nonzero"></path>
                    <g id="Group" stroke-width="1" fill="none" fill-rule="evenodd" transform="translate(4.000000, 30.000000)">
                        <path d="M4.25577873,4.40017711 C4.25577873,4.41684378 4.25577873,4.41684378 4.25577873,4.40017711 L4.23911207,4.41684378 C4.23911207,4.41684378 4.25577873,4.41684378 4.25577873,4.40017711 Z M3.92293029,4.57091607 C3.92293029,4.58758274 3.92293029,4.58758274 3.92293029,4.57091607 C3.92293029,4.58758274 3.90626362,4.58758274 3.92293029,4.57091607 C3.88959696,4.58758274 3.88959696,4.58758274 3.92293029,4.57091607 Z M4.47039532,4.2191096 L4.45372865,4.23577627 L4.47039532,4.2191096 Z M4.60252255,4.00256877 C4.61918921,3.96923544 4.61918921,3.98590211 4.60252255,4.00256877 C4.60252255,4.01923544 4.60252255,4.03590211 4.60252255,4.00256877 Z" id="Shape" fill="#C61E36" fill-rule="nonzero"></path>
                        <path d="M1.11588584,4.51500595 C1.30367536,4.68439169 1.53170548,4.8187321 1.78656268,4.90050452 C2.06824695,4.99395872 2.37005153,5.01148138 2.6718561,4.99395872 C3.21510434,4.96475428 3.81200673,4.90050452 4.28148051,4.63766459 C4.67717985,4.41571087 4.90520997,4.05941674 4.97227765,3.65055462 C5.01251826,3.39355557 5.0058115,3.13655653 4.97227765,2.87955748 C4.92533028,2.55246779 4.85826259,2.23121898 4.7509543,1.91581106 C4.58328509,1.41349475 4.31501435,0.911178433 3.85895411,0.56072519 C3.44313447,0.233635496 2.91329977,0.0700906487 2.36334476,0.0175226622 C2.22250262,0.00584088739 2.08166049,0 1.93411158,0 C2.13531463,0 2.13531463,0.274521707 1.93411158,0.274521707 C2.21579585,0.274521707 2.46394628,0.29204437 2.73221702,0.350453243 C2.85293885,0.373816793 2.96695391,0.408862117 3.08096897,0.449748329 C3.15474343,0.473111879 3.28217203,0.53736164 3.37606678,0.584088739 C3.57726983,0.6950656 3.75164581,0.835246897 3.90590148,1.00463263 C3.9662624,1.06888239 4.04674362,1.17985925 4.10710453,1.27331345 C4.17417222,1.37844942 4.2412399,1.49526717 4.29489405,1.60624403 C4.42232265,1.88076574 4.51621741,2.17281011 4.58328509,2.46485448 C4.643646,2.72769441 4.69059338,2.99637523 4.69059338,3.27089694 C4.69059338,3.48700977 4.67717985,3.65639551 4.60340539,3.86082657 C4.59669863,3.88419012 4.58328509,3.90755366 4.57657832,3.93091721 C4.57657832,3.93091721 4.56987155,3.94259899 4.56987155,3.94843988 C4.56987155,3.94259899 4.57657832,3.9367581 4.56987155,3.94843988 C4.56316478,3.96012165 4.56987155,3.95428076 4.56987155,3.94843988 C4.56987155,3.95428076 4.56316478,3.96596254 4.56316478,3.96596254 C4.54304448,4.00684875 4.51621741,4.04773496 4.48939033,4.08862117 L4.44914972,4.14118916 C4.44244295,4.14703005 4.42232265,4.17623448 4.41561588,4.17623448 L4.42232265,4.1703936 L4.40890911,4.17623448 C4.38208204,4.21127981 4.3485482,4.24048425 4.31501435,4.26968868 C4.28148051,4.29889312 4.24794667,4.32809756 4.20770606,4.35146111 L4.21441283,4.35146111 L4.20770606,4.35730199 C4.20770606,4.35730199 4.21441283,4.35730199 4.21441283,4.35146111 C4.20770606,4.35730199 4.19429252,4.36314288 4.18758576,4.36898377 C4.16746545,4.38066554 4.14063838,4.39818821 4.12051807,4.40986998 C4.08027746,4.43323353 4.03333008,4.45659708 3.9863827,4.47411974 L3.90590148,4.50916507 C3.89248795,4.51500595 3.88578118,4.51500595 3.87236764,4.52084684 C3.85895411,4.52668773 3.85895411,4.52668773 3.86566087,4.52084684 C3.85895411,4.52668773 3.85224734,4.52668773 3.8388338,4.53252862 C3.60409691,4.60846015 3.34253294,4.66102814 3.10779605,4.69023258 C2.81940501,4.7252779 2.51089366,4.75448234 2.22250262,4.71943701 C2.00117927,4.69607346 1.77985591,4.62014193 1.57865286,4.50332418 C1.49146487,4.45075619 1.40427688,4.38650643 1.32379566,4.30473401 C1.2299009,4.2171207 1.17624676,4.15871182 1.10917907,4.06525762 C0.968336938,3.87834923 0.861028644,3.67391817 0.773840655,3.475328 C0.586051141,3.02557967 0.478742847,2.55246779 0.404968395,2.07935591 C0.391554858,1.97421994 0.371434553,1.88076574 0.358021016,1.76394799 C0.337900711,1.62960758 0.324487174,1.50110806 0.317780406,1.36676765 C0.311073638,1.24410901 0.317780406,1.12145038 0.344607479,1.01047352 C0.358021016,0.957905532 0.371434553,0.905337546 0.391554858,0.858610446 C0.411675163,0.800201573 0.418381931,0.794360685 0.451915773,0.735951811 C0.46532931,0.718429149 0.472036078,0.700906487 0.485449615,0.683383825 C0.492156384,0.67170205 0.498863152,0.665861163 0.50556992,0.654179388 C0.50556992,0.654179388 0.512276689,0.642497613 0.518983457,0.636656726 C0.518983457,0.636656726 0.518983457,0.642497613 0.512276689,0.642497613 C0.525690225,0.630815838 0.518983457,0.630815838 0.518983457,0.636656726 C0.552517299,0.601611401 0.586051141,0.572406964 0.626291751,0.53736164 L0.646412056,0.519838978 C0.646412056,0.519838978 0.653118824,0.519838978 0.653118824,0.51399809 C0.632998519,0.525679865 0.673239129,0.502316316 0.653118824,0.51399809 L0.659825593,0.508157203 L0.720186508,0.473111879 C0.767133887,0.449748329 0.814081265,0.42638478 0.861028644,0.408862117 C0.867735412,0.408862117 0.867735412,0.408862117 0.867735412,0.40302123 C0.847615107,0.408862117 0.887855717,0.397180343 0.867735412,0.40302123 L0.874442181,0.40302123 C0.887855717,0.397180343 0.901269254,0.391339455 0.914682791,0.391339455 C0.934803096,0.385498568 0.961630169,0.37965768 0.981750475,0.367975906 C1.04211139,0.350453243 1.10247231,0.338771469 1.16283322,0.327089694 C1.29696859,0.303726144 1.37744981,0.29204437 1.51829194,0.286203482 C1.65242731,0.280362595 1.79326945,0.274521707 1.92740481,0.274521707 C1.72620176,0.274521707 1.72620176,0 1.92740481,0 C1.41098365,0 0.814081265,0.0233635496 0.404968395,0.338771469 C-0.0510918545,0.683383825 -0.0309715493,1.26163168 0.0360961344,1.73474356 C0.103163818,2.23121898 0.190351807,2.72769441 0.344607479,3.20664718 C0.498863152,3.68559994 0.720186508,4.16455271 1.11588584,4.51500595 L1.11588584,4.51500595 Z" id="Path" fill="#C61E36" fill-rule="nonzero"></path>
                        <path d="M2.02505055,0.73703471 C2.23918331,0.73703471 2.23918331,0.0118295489 2.02505055,0.0118295489 C1.80378003,-0.00360034817 1.80378003,0.73703471 2.02505055,0.73703471 Z M0.561126479,1.68536985 C0.561126479,1.66870319 0.561126479,1.66870319 0.561126479,1.68536985 C0.577793146,1.65203652 0.594459812,1.65203652 0.561126479,1.68536985 Z" id="Shape" fill="#C61E36" fill-rule="nonzero"></path>
                    </g>
                    <path d="M28.8222701,28.001478 C27.4891914,27.92148 27.5308501,31.1152489 27.4475327,31.1706322 C27.3701665,31.2260154 23.2876129,31.1521711 22.0497541,31.3060135 C21.3415561,31.3921653 20.9666277,31.9275369 21.0023351,32.4444475 C21.0380426,33.004434 21.5081909,33.3428873 22.0497541,33.4413465 C22.8353184,33.5828815 23.7577612,33.6567259 24.5492767,33.6936481 C24.5254718,34.0874847 24.4004956,36.9612614 26.4358212,37.619707 C26.578651,37.964314 26.8405058,38.5304542 27.0607018,38.8319853 C27.3761178,39.2688978 29.2745647,38.8319853 30.5957409,37.7735494 C31.8990634,36.7274209 32.1252107,35.6935997 31.9466734,35.1397669 C31.8335997,34.7828525 31.2741828,34.6413175 30.9528156,34.3336326 C31.059938,32.4690623 29.7506642,31.5275466 29.7506642,30.6783364 C29.7566155,29.6260541 29.9827627,28.0691687 28.8222701,28.001478 L28.8222701,28.001478 Z" id="Path" fill="#F7343E" fill-rule="nonzero"></path>
                    <path d="M24.8076923,37.6871731 C24.9615385,38.0148656 25.2435897,38.5532176 25.4807692,38.8399486 C25.7307692,39.1383828 26.8589744,39.0096465 28,38.5356627 C27.3782051,38.1670086 26.7948718,36.8913485 26.7948718,36.8913485 C23.5897436,37.219041 23.7564103,34.0825556 23.5641026,33.6319784 C23.2820513,32.9707417 22.2371795,33.403764 19,33 C19.1474359,33.3979123 19.5833333,33.6436817 20.0833333,33.7256048 C20.9294872,33.8601928 21.9230769,33.9304126 22.775641,33.9655226 C22.7435897,34.328325 22.6089744,37.0610464 24.8076923,37.6871731 L24.8076923,37.6871731 Z" id="Path" fill="#C61E36" fill-rule="nonzero"></path>
                </g>
            </g>
        </g>
    </g>
</svg>