<?xml version="1.0" encoding="UTF-8"?>
<svg width="143px" height="167px" viewBox="0 0 174 174" version="1.1"
  xmlns="http://www.w3.org/2000/svg" xmlns:xlink="http://www.w3.org/1999/xlink">
  <title>Group</title>
  <path
    fill="#5A65EA"
    d="M47.2533103,0 L74.2078213,26.9541712 L66.1860338,45.375126 L174,153.189432 L153.201666,173.987766 L45.3873595,66.1738003 L26.9664047,74.1955878 L0.0122335148,47.2410768 L8.29398324,23.8805006 L25.6659141,41.2524315 L41.264665,25.6536806 L23.8927341,8.28174972 L47.2533103,0 Z M58.977775,94.1987438 L79.7730511,114.99402 L20.7956159,173.972135 L0,153.176859 L58.977775,94.1987438 Z M109.189217,44.0025936 L129.984493,64.7978697 L114.99436,79.7880032 L94.1990837,58.9927271 L109.189217,44.0025936 Z M107.982857,0.508370505 L146.96903,21.8099782 L174,48.8406089 L151.235468,71.605141 L94.060777,14.4304502 L107.982857,0.508370505 Z"></path>
</svg>