<?xml version="1.0" encoding="UTF-8"?>
<svg width="302px" height="302px" viewBox="0 0 302 302" version="1.1" xmlns="http://www.w3.org/2000/svg" xmlns:xlink="http://www.w3.org/1999/xlink">
    <title>Combined Shape</title>
    <g id="Page-1" stroke="none" stroke-width="1" fill="none" fill-rule="evenodd">
        <g id="Group" transform="translate(0.823277, 0.746679)" fill="#FFFFFF" fill-rule="nonzero">
            <path d="M75.12,112.68 L75.12,150.24 C75.12,191.312754 108.083085,224.686567 148.997753,225.349936 L150.24,225.36 C191.725343,225.354479 225.354479,191.725343 225.36,150.24 L225.36,112.68 L300.47,112.68 L300.47,150.24 C300.47,190.083473 284.642242,228.295062 256.468652,256.468652 C228.576798,284.360506 190.846701,300.15221 151.434806,300.465255 L150.24,300.47 C110.394794,300.472652 72.1806367,284.646065 44.0048837,256.472187 C15.8291307,228.29831 5.68434189e-14,190.085206 5.68434189e-14,150.24 L5.68434189e-14,112.68 L75.12,112.68 Z M300.47,-4.26325641e-14 L300.47,75.12 L187.8,75.12 L187.8,150.24 C187.8,170.776377 171.318457,187.463284 150.861123,187.794968 L150.24,187.8 C129.496185,187.8 112.68,170.983815 112.68,150.24 L112.68,75.12 L5.68434189e-14,75.12 L5.68434189e-14,-4.26325641e-14 L300.47,-4.26325641e-14 Z" id="Combined-Shape" transform="translate(150.235000, 150.235000) rotate(-90.000000) translate(-150.235000, -150.235000) "></path>
        </g>
    </g>
</svg>