<?xml version="1.0" encoding="UTF-8"?>
<svg width="126px" height="111px" viewBox="0 0 126 111" version="1.1" xmlns="http://www.w3.org/2000/svg" xmlns:xlink="http://www.w3.org/1999/xlink">
    <title>Group</title>
    <g id="Page-1" stroke="none" stroke-width="1" fill="none" fill-rule="evenodd">
        <g id="Group">
            <path d="M43.8965382,97.4382357 C66.8108191,97.4382357 107.705334,104.978663 107.705334,94.3517505 C107.705334,83.7248376 74.6864417,69.7782518 51.7721607,69.7782518 C28.8578797,69.7782518 10.2821848,78.3930668 10.2821848,89.0199797 C10.2821848,99.6468927 20.9822572,97.4382357 43.8965382,97.4382357 Z" id="Oval" fill-opacity="0.117214816" fill="#000000" transform="translate(58.993759, 84.905689) rotate(13.000000) translate(-58.993759, -84.905689) "></path>
            <path d="M119.245198,28.0333548 C117.403965,29.2726889 115.434394,30.2927356 113.373663,31.0742402 C106.487492,33.66432 98.8115297,30.6655697 95.2717656,24.0024137 L94,21.626072 L122.766317,5 L124.105123,7.49593876 C127.924819,14.6060897 125.802253,23.5757783 119.245198,28.0333548 L119.245198,28.0333548 Z" id="Path" fill="#01A27E" fill-rule="nonzero"></path>
            <path d="M21.5745512,58.3058277 C27.8626494,48.3656145 42.7369141,37.2335798 58.8418832,25.9298505 C58.8418832,25.9298505 61.8652246,10.8689214 41.4712815,16.1061085 C41.4712815,16.1061085 26.3175915,21.1264182 20.4825322,30.6850878 C18.1469941,34.4141158 14.9261903,37.5379569 11.0930178,39.7919296 C7.95847202,41.5711993 5.15331847,43.8543101 2.79552241,46.5452502 C-1.53571566,51.9145125 -0.750846615,59.6694739 4.57274997,64.1052894 C6.76235375,65.8282269 9.44759875,66.8401901 12.2538659,67 C15.1621498,62.6202818 16.5962594,58.812879 21.5745512,58.3058277 L21.5745512,58.3058277 Z" id="Path" fill="#F38D01" fill-rule="nonzero"></path>
            <path d="M21.3012275,58.2631884 C26.1461684,51.9880554 51.0491444,50.207111 69.5882195,47 L116.043675,61.5136387 L122,85.4419926 C121.454523,88.4868331 120.65878,93.7379482 120.429965,94 C86.2521951,79.3031601 49.869347,70.2178266 12.7206869,67.1034054 C11.1549088,66.9709136 9.75991668,66.0748617 9.00347415,64.7157102 L5.84399653,59.0150755 C4.96061072,57.4214817 4.7612537,55.5450716 5.29049681,53.8053648 C5.81973993,52.065658 7.03344329,50.6077493 8.66025252,49.7575914 C11.9300177,48.0483441 15.9843097,49.1966962 17.837345,52.3569437 L21.3012275,58.2631884 Z" id="Path" fill="#F2B906" fill-rule="nonzero"></path>
            <path d="M120.118347,93 C120.72499,91.2925172 119.472273,84.4455112 112.643501,88.8729137 C109.66792,90.2981596 105.491187,89.798972 103.877518,86.9424537 C102.518639,84.5429382 103.384116,81.4232667 102.276993,78.9002097 C100.760387,75.4340197 96.1094619,74.4446841 92.4150095,75.3516587 C88.720557,76.2586334 85.5255736,78.5305899 81.9676157,79.8714661 C78.4096578,81.2123423 73.9073599,81.3861038 71.2725096,78.6491093 C69.5536893,76.8532392 69.0552315,74.2297421 67.7843156,72.0853446 C65.4942404,68.1973058 60.8079276,66.2417358 56.29653,65.8289268 C51.7851324,65.4161177 47.2494692,66.2748811 42.7400937,66.7087826 C39.9090957,66.9870019 36.6352487,66.9096629 34.8213878,64.7361378 C33.8396382,63.5650055 33.5069959,62.0071785 32.9003535,60.6040294 C31.5040648,57.4512127 25.3971976,58.1121089 22,57.386931 C28.447598,42.2817347 42.3225215,32.7188266 58.669513,25 C58.669513,25 124.591324,49.9091607 122.079824,69.2067295 C122.079824,69.2067295 120.71589,75.2009985 123.385117,78.3839473 C128.405083,84.3521019 120.118347,93 120.118347,93 Z" id="Path" fill="#FECB00" fill-rule="nonzero"></path>
            <path d="M120.118675,93 C120.725319,91.2925172 119.472598,84.4455112 112.643804,88.8729137 C109.668213,90.2981596 105.491466,89.798972 103.877791,86.9424537 C102.518908,84.5429382 103.384387,81.4232667 102.277261,78.9002097 C100.76065,75.4340197 96.1097091,74.4446841 92.4152444,75.3516587 C88.7207796,76.2586334 85.5257855,78.5305899 81.9678157,79.8714661 C78.409846,81.2123423 73.907533,81.3861038 71.2726739,78.6491093 C69.553848,76.8532392 69.0553885,74.2297421 67.7844683,72.0853446 C65.4943855,68.1973058 60.808057,66.2417358 56.2966444,65.8289268 C51.7852318,65.4161177 47.2495534,66.2748811 42.7401629,66.7087826 C39.9091555,66.9870019 36.6352975,66.9096629 34.8214306,64.7361378 C33.8396777,63.5650055 33.5070343,62.0071785 32.9003898,60.6040294 C31.5040965,57.4512127 25.397209,58.1121089 22,57.386931 C28.4476195,42.2817347 42.3225893,32.7188266 58.6696353,25 C71.6613486,30.0337631 84.2885501,35.9506385 96.4615629,42.7086054 C101.937541,45.7571296 107.149922,49.2509999 112.045248,53.1543824 C118.557576,58.509852 122.753534,64.0611799 122.083192,69.2027119 C121.941357,69.8909316 121.843425,70.5873641 121.78998,71.2878497 C121.621131,73.3227674 121.731338,76.3972408 123.388488,78.3799297 C124.526419,79.7185186 125.098878,81.4425585 124.985985,83.1910136 C124.777704,88.1427137 120.118675,93 120.118675,93 L120.118675,93 Z" id="Path" fill="#FECB00" fill-rule="nonzero"></path>
            <ellipse id="Oval" fill="#F93030" fill-rule="nonzero" transform="translate(62.124846, 37.572409) rotate(-81.105000) translate(-62.124846, -37.572409) " cx="62.1248463" cy="37.5724091" rx="7.41664572" ry="12.1535063"></ellipse>
            <ellipse id="Oval" fill="#F93030" fill-rule="nonzero" transform="translate(86.098663, 60.808727) rotate(-81.105000) translate(-86.098663, -60.808727) " cx="86.0986634" cy="60.8087267" rx="6.02088196" ry="9.8668511"></ellipse>
            <path d="M124.9862,83.864744 C123.559325,84.061274 122.110967,84.0435418 120.689362,83.812138 C115.412893,82.9892998 111.541159,79.7187911 112.043917,76.5127993 C112.528755,73.4298858 116.844509,71.5281272 121.839234,72.101831 C121.672976,74.112772 121.781492,77.15102 123.413215,79.1103475 C124.533686,80.4331642 125.097361,82.1368904 124.9862,83.864744 Z" id="Path" fill="#F93030" fill-rule="nonzero"></path>
            <ellipse id="Oval" fill="#F93030" fill-rule="nonzero" transform="translate(42.857257, 52.143602) rotate(-81.105000) translate(-42.857257, -52.143602) " cx="42.8572574" cy="52.1436017" rx="6.31547548" ry="10.349375"></ellipse>
            <path d="M112,53.3221769 C110.090285,55.2377347 106.030437,55.5851157 101.988109,53.9901409 C97.1213533,52.0805381 94.1039646,48.0628293 95.2388921,45.0287048 C95.5838742,44.1694641 96.2037501,43.4544809 96.9977377,43 C102.269408,46.0124524 107.287317,49.4649813 112,53.3221769 Z" id="Path" fill="#F93030" fill-rule="nonzero"></path>
            <path d="M70.283085,48.0304621 C71.3182459,48.9934292 70.9441878,49.729214 70.0740525,50.5990568 C69.831782,50.8398061 69.6930111,51.1692409 69.6883209,51.5147629 C69.6836307,51.860285 69.8134063,52.193536 70.0490486,52.4410769 L72.1493751,54.6596878 C72.640223,55.2105115 72.640223,56.0532187 72.1493751,56.6040424 L71.7923196,57.0062168 C71.3020144,57.5577339 70.4818003,57.6362454 69.9000254,57.1873488 L67.5466596,55.2532276 C66.9981124,54.8077236 66.2008987,54.8991695 65.7623823,55.4578966 C65.0002638,56.4280272 64.3191579,56.8803454 63.283997,55.9173782 C61.4837171,54.2401166 61.5897336,51.1168691 63.5190335,48.9432854 C65.4483334,46.7697016 68.4778044,46.3532004 70.283085,48.0304621 L70.283085,48.0304621 Z M79.7955637,75.9851642 C78.7544018,76.1018255 78.5373681,75.5205658 78.4953616,74.5903456 C78.4662845,74.0566381 78.0231365,73.6460945 77.501207,73.6693355 L75.2418558,73.77167 C74.6962653,73.7818667 74.2330806,73.3647427 74.1736898,72.8097262 L74.1306831,72.4055051 C74.0717968,71.8505675 74.4360588,71.3412005 74.9708137,71.2307056 L77.1981599,70.8336479 C77.7159284,70.7415147 78.0631166,70.2379558 77.9742806,69.7079689 C77.8212568,68.7869589 77.9112708,68.1729522 78.9524326,68.0583376 C80.7667147,67.8536687 82.4229721,69.4695297 82.6530079,71.6543702 C82.8830436,73.8392107 81.6108459,75.782542 79.7955637,75.9851642 L79.7955637,75.9851642 Z M108.974099,69.4664596 C108.832077,70.5348313 108.225983,70.6115821 107.326843,70.4304502 C106.809131,70.3268724 106.306709,70.6700433 106.201668,71.1989819 L105.754599,73.4820635 C105.631833,74.0295763 105.121502,74.3911422 104.577416,74.3160893 L104.177354,74.2608287 C103.632771,74.1851478 103.234546,73.6969085 103.259211,73.1351497 L103.421236,70.813181 C103.457389,70.2744803 103.062276,69.8067108 102.536099,69.7652762 C101.622957,69.6956888 101.057869,69.4582729 101.199891,68.3878545 C101.445929,66.5253675 103.388231,65.2625604 105.530564,65.5593303 C107.672897,65.8561002 109.221138,67.5978325 108.974099,69.4664596 L108.974099,69.4664596 Z" id="Shape" fill="#FFE9B5" fill-rule="nonzero"></path>
            <path d="M85.2676104,50.4529424 C83.1706991,51.1699122 80.882955,50.070495 80.1576939,47.9972786 C79.4324327,45.9240623 80.5442748,43.6620707 82.6411097,42.9448828 C84.7379447,42.227695 87.0258057,43.3268743 87.7512875,45.4000152 C88.4744562,47.473321 87.3632236,49.7340727 85.2676104,50.4529424 L85.2676104,50.4529424 Z M83.4492946,45.2533789 C82.6429933,45.5291803 82.2154132,46.3989533 82.4941977,47.1962141 C82.7729821,47.9934749 83.6525928,48.416408 84.4590076,48.140931 C85.2654225,47.865454 85.6933604,46.995853 85.4149041,46.1984801 C85.1349283,45.4018409 84.2559506,44.9792122 83.4492946,45.2533789 L83.4492946,45.2533789 Z M112.295502,63.7807788 C110.198591,64.4977486 107.910847,63.3983313 107.185586,61.325115 C106.460325,59.2518987 107.572167,56.989907 109.669002,56.2727192 C111.765837,55.5555314 114.053698,56.6547107 114.77918,58.7278515 C115.502348,60.8011573 114.391116,63.0619091 112.295502,63.7807788 L112.295502,63.7807788 Z M110.477187,58.5832239 C109.886445,58.7850257 109.476855,59.3188391 109.439455,59.935688 C109.402054,60.5525368 109.744211,61.1309071 110.306338,61.4010407 C110.868466,61.6711744 111.53983,61.5798575 112.0073,61.1696811 C112.47477,60.7595047 112.646258,60.1112701 112.44178,59.5273209 C112.162281,58.7308179 111.28332,58.3084281 110.477187,58.5832239 L110.477187,58.5832239 Z M45.3317082,42.7274174 C43.234797,43.4443872 40.9470529,42.3449699 40.2217917,40.2717536 C39.4965306,38.1985373 40.6083726,35.9365456 42.7052076,35.2193578 C44.8020426,34.50217 47.0899036,35.6013493 47.8153853,37.6744902 C48.5379502,39.7477599 47.4269198,42.0081005 45.3317082,42.7274174 L45.3317082,42.7274174 Z M43.5133925,37.5288582 C42.7070738,37.8048572 42.2796924,38.6748512 42.558786,39.4720918 C42.8378796,40.2693325 43.7177718,40.6919512 44.5241285,40.4160605 C45.3304851,40.1401698 45.757986,39.2702332 45.479002,38.4729551 C45.199058,37.6763195 44.3197937,37.2540023 43.5133925,37.5288582 L43.5133925,37.5288582 Z M56.1877642,63.414188 C54.9137868,63.8500053 53.4997279,63.4841141 52.6049983,62.4871384 C51.7102687,61.4901627 51.5110824,60.0584538 52.100325,58.8596529 C52.6895676,57.6608521 53.9511897,56.9310593 55.2968655,57.0105951 C56.6425413,57.0901308 57.8072444,57.9633309 58.2478449,59.2230003 C58.8469733,60.9426699 57.9255034,62.8173797 56.1877642,63.414188 L56.1877642,63.414188 Z M54.6792733,59.1024772 C54.1880167,59.268385 53.8464517,59.7108426 53.8141705,60.2231169 C53.7818893,60.7353913 54.0652651,61.2163462 54.5318937,61.4412613 C54.9985224,61.6661763 55.5562795,61.5906474 55.9445597,61.2499646 C56.3328398,60.9092818 56.4749865,60.3707046 56.3045834,59.8858768 C56.0726005,59.2275153 55.3467265,58.8776441 54.6792733,59.1024772 L54.6792733,59.1024772 Z" id="Shape" fill="#435761" fill-rule="nonzero"></path>
            <path d="M85.1458516,60.4437812 C84.9965111,60.4205508 84.8622012,60.3385454 84.7720155,60.2155286 L83.1368623,57.9854384 C83.0030732,57.8184488 82.9702386,57.5904718 83.0513351,57.3916063 C83.1324317,57.1927408 83.3144097,57.0549871 83.5253497,57.0327869 C83.7362896,57.0105867 83.9422481,57.1075124 84.0618281,57.2852579 L85.6979944,59.5153481 C85.7903128,59.6400833 85.8298178,59.7970255 85.8077594,59.9514135 C85.785701,60.1058016 85.7038999,60.2448929 85.5804741,60.3378802 C85.4558296,60.4317182 85.298889,60.4699587 85.1458516,60.4437812 L85.1458516,60.4437812 Z M89.1861186,65.9475492 C89.0367781,65.9243188 88.9024682,65.8423134 88.8122825,65.7192966 L87.1751031,63.4881782 C87.041314,63.3211887 87.0084794,63.0932117 87.0895759,62.8943462 C87.1706725,62.6954806 87.3526505,62.5577269 87.5635905,62.5355267 C87.7745304,62.5133266 87.9804888,62.6102523 88.1000689,62.7879978 L89.7372483,65.0191161 C89.8295667,65.1438514 89.8690717,65.3007935 89.8470133,65.4551815 C89.8249549,65.6095696 89.7431538,65.7486609 89.619728,65.8416482 C89.4953443,65.93521 89.3388272,65.9734364 89.1861186,65.9475492 L89.1861186,65.9475492 Z M81.9940786,64.3158512 C81.7469723,64.2760187 81.5532515,64.0792193 81.5142528,63.8283996 C81.475254,63.57758 81.5998499,63.3298047 81.8228637,63.2146863 L84.3343537,61.9253672 C84.6171219,61.7907328 84.9541233,61.9086758 85.0950114,62.1915804 C85.2358995,62.4744851 85.1296049,62.8198037 84.8550902,62.9710112 L82.3436002,64.2603302 C82.2357711,64.3157608 82.1134399,64.3351929 81.9940786,64.3158512 Z M88.1892223,61.1347082 C87.9421159,61.0948758 87.7483952,60.8980763 87.7093964,60.6472567 C87.6703976,60.3964371 87.7949935,60.1486618 88.0180073,60.0335433 L90.5325366,58.7431961 C90.7174072,58.6413661 90.9422138,58.6496068 91.1193638,58.7647072 C91.2965137,58.8798076 91.3979835,59.0835599 91.3842369,59.2965751 C91.3704904,59.5095902 91.243702,59.6981711 91.0532731,59.78884 L88.5417832,61.0791873 C88.4331145,61.1354099 88.3095694,61.1548656 88.1892223,61.1347082 Z M61.0562155,35.9282115 C60.907063,35.9044546 60.7729353,35.8225604 60.6823793,35.6999589 L58.6693376,32.9557861 C58.5355485,32.7887966 58.5027139,32.5608196 58.5838104,32.361954 C58.664907,32.1630885 58.846885,32.0253348 59.057825,32.0031346 C59.2687649,31.9809344 59.4747234,32.0778601 59.5943034,32.2556056 L61.6083583,34.9997784 C61.7469573,35.1905269 61.758464,35.4472935 61.6374984,35.6500225 C61.5165328,35.8527515 61.2869974,35.961384 61.0562155,35.925127 L61.0562155,35.9282115 Z M66.0255008,42.698679 C65.8762734,42.6751314 65.7420735,42.5931931 65.6516646,42.4704263 L63.6376097,39.7262536 C63.454235,39.4666085 63.5095349,39.1057509 63.7619478,38.9148884 C64.0143608,38.7240259 64.3708935,38.7734757 64.5635887,39.0260731 L66.5776436,41.7733304 C66.669855,41.8981926 66.7091943,42.0552193 66.6869446,42.2096159 C66.6646948,42.3640125 66.5826932,42.5030294 66.4591102,42.5958625 C66.33427,42.6883416 66.1777938,42.7254449 66.0255008,42.698679 L66.0255008,42.698679 Z M57.1800717,40.6896443 C56.9329653,40.6498119 56.7392446,40.4530124 56.7002458,40.2021928 C56.6612471,39.9513732 56.7858429,39.7035979 57.0088567,39.5884794 L60.096804,38.0020206 C60.3795722,37.8673862 60.7165737,37.9853292 60.8574618,38.2682338 C60.9983499,38.5511385 60.8920553,38.8964571 60.6175406,39.0476646 L57.5295933,40.6341234 C57.4217641,40.6895539 57.2994329,40.708986 57.1800717,40.6896443 L57.1800717,40.6896443 Z M64.7996424,36.7764478 C64.552536,36.7366153 64.3588153,36.5398159 64.3198166,36.2889963 C64.2808178,36.0381766 64.4054137,35.7904013 64.6284275,35.6752829 L67.7173879,34.0888241 C68.0001561,33.9541897 68.3371575,34.0721326 68.4780456,34.3550373 C68.6189337,34.637942 68.5126391,34.9832606 68.2381244,35.134468 L65.149164,36.7209269 C65.0413348,36.7763574 64.9190036,36.7957895 64.7996424,36.7764478 Z M42.2468882,51.3794773 C42.0977357,51.3557204 41.963608,51.2738262 41.873052,51.1512247 L40.4405201,49.1977109 C40.2571454,48.9380658 40.3124452,48.5772082 40.5648582,48.3863457 C40.8172711,48.1954832 41.1738038,48.244933 41.366499,48.4975304 L42.799031,50.4510442 C42.8915104,50.5758086 42.9310147,50.7329114 42.9087528,50.8873922 C42.8864909,51.041873 42.8043098,51.1809147 42.6804976,51.2735763 C42.5561645,51.3672479 42.3996009,51.4054857 42.2468882,51.3794773 L42.2468882,51.3794773 Z M45.7826284,56.1974592 C45.6334305,56.1731327 45.4993852,56.0909202 45.4087922,55.9681784 L43.9762602,54.0146646 C43.7928855,53.7550195 43.8481854,53.3941619 44.1005983,53.2032994 C44.3530113,53.0124369 44.709544,53.0618867 44.9022392,53.3144841 L46.3347712,55.2679979 C46.4712265,55.4591422 46.4816152,55.7146357 46.3611417,55.9165399 C46.2406683,56.1184442 46.0127626,56.2274923 45.7826284,56.1933465 L45.7826284,56.1974592 Z M39.4892135,54.7693378 C39.241264,54.7304089 39.0464538,54.5334499 39.0071568,54.281964 C38.9678597,54.0304781 39.0930686,53.7820155 39.3169854,53.6671448 L41.5144125,52.5361631 C41.7971807,52.4015287 42.1341821,52.5194717 42.2750702,52.8023763 C42.4159583,53.085281 42.3096638,53.4305996 42.035149,53.5818071 L39.8377219,54.7127887 C39.7301718,54.7679548 39.6083508,54.7877215 39.4892135,54.7693378 Z M44.9113571,51.9840384 C44.6634077,51.9451095 44.4685975,51.7481505 44.4293005,51.4966646 C44.3900034,51.2451787 44.5152123,50.9967162 44.7391291,50.8818454 L46.9375693,49.7508637 C47.2203375,49.6162293 47.5573389,49.7341723 47.698227,50.0170769 C47.8391151,50.2999816 47.7328205,50.6453002 47.4583058,50.7965077 L45.2598656,51.9274893 C45.1523577,51.9827875 45.030495,52.002561 44.9113571,51.9840384 L44.9113571,51.9840384 Z M120.216544,77.9287577 C120.125603,77.9153081 120.039128,77.8800628 119.964281,77.8259412 L118.029248,76.38651 C117.853413,76.2665666 117.756414,76.0585353 117.776522,75.8444928 C117.796631,75.6304504 117.930617,75.444769 118.125618,75.3607074 C118.320619,75.2766458 118.545321,75.3077032 118.711069,75.4416262 L120.646101,76.8810574 C120.861524,77.0402039 120.9414,77.328449 120.839294,77.5782217 C120.737188,77.8279944 120.47971,77.9742001 120.216544,77.9318422 L120.216544,77.9287577 Z M118.562142,81.9920663 C118.437643,81.9731474 118.32288,81.9127427 118.235922,81.8203627 C118.01755,81.5884754 118.024334,81.2212473 118.251119,80.9978306 L120.023041,79.2622879 C120.252446,79.0379911 120.61758,79.044896 120.838592,79.2777104 C121.059603,79.5105247 121.052799,79.8810865 120.823395,80.1053833 L119.051472,81.8398979 C118.92095,81.9657761 118.739747,82.0221253 118.562142,81.9920663 L118.562142,81.9920663 Z M99.5177743,50.4099176 C99.2651001,50.3703486 99.068294,50.166606 99.0343357,49.9094399 C99.0003774,49.6522739 99.1373808,49.4031322 99.3708739,49.2974429 L101.559183,48.3011509 C101.849855,48.1688442 102.191176,48.3007274 102.321545,48.5957202 C102.451914,48.890713 102.321963,49.2371077 102.03129,49.3694145 L99.8419683,50.3646783 C99.7404949,50.4112813 99.6278757,50.4269967 99.5177743,50.4099176 L99.5177743,50.4099176 Z M104.367513,52.8847111 C104.139303,52.8483061 103.954197,52.6778206 103.896419,52.4508254 L103.288555,50.0284683 C103.240059,49.7288136 103.425137,49.4411991 103.714986,49.365788 C104.004834,49.2903768 104.303432,49.4521513 104.402972,49.7385257 L105.010835,52.1608828 C105.0582,52.3512453 105.00814,52.5530219 104.877598,52.6979247 C104.747056,52.8428275 104.553504,52.9114615 104.362448,52.8805984 L104.367513,52.8847111 Z" id="Shape" fill="#ED0606" fill-rule="nonzero"></path>
            <ellipse id="Oval" fill="#F2F2F2" fill-rule="nonzero" transform="translate(108.501470, 14.085051) rotate(-29.081000) translate(-108.501470, -14.085051) " cx="108.50147" cy="14.0850511" rx="16.7085316" ry="3.88863441"></ellipse>
            <path d="M122,8 C120.409609,10.4487408 115.86109,14.096555 110.054174,17.3851531 L110.031312,17.3972956 C108.634662,18.1831844 107.579169,19.4747281 107.074179,21.0157654 C106.339617,23.2570715 105.47186,25.6865866 105.185589,26.3493656 C104.390394,28.122173 103.588571,29.894643 102.780123,31.6667758 C102.136014,33.0500107 101.289131,34.6072884 99.7981391,34.864305 C97.0099846,35.3560769 95.1482329,30.8582866 92.3600784,31.3804148 C90.981408,31.6263007 90.1255788,33.0500107 89.6832512,34.4028894 C89.4122508,35.8027141 88.8975444,37.1419285 88.1634337,38.3573022 C86.6715711,39.9682424 84.3449742,40.4484983 82.3545299,39.5563756 C79.4476343,38.3836078 77.680044,35.3661755 78.0482719,32.205214 C78.4164998,29.0442525 80.8283301,26.5313659 83.9240472,26.0832421 C85.9975197,25.7867624 88.1982235,26.4424582 90.1444647,25.6531947 C92.3889042,24.742506 93.516094,22.2209101 95.307272,20.5715517 C96.2014967,19.7546406 97.2643159,19.1522955 98.4174808,18.8088631 L98.4353727,18.8088631 C99.7183617,18.4397127 100.934175,17.8615336 102.035621,17.0967683 C103.913964,15.7555627 105.860598,14.516311 107.867386,13.384194 C113.677284,10.0905365 119.121392,8.08196198 122,8 L122,8 Z" id="Path" fill="#F93030" fill-rule="nonzero"></path>
            <path d="M82.4548912,13.9726492 L76.2861942,11.6393859 C76.1296801,11.5776982 76.0183937,11.4127793 76.0020626,11.2183223 C75.9857315,11.0238652 76.0674069,10.836201 76.2105927,10.7391861 L80.3303942,8.05786065 C80.4306847,7.99511702 80.5480707,7.98283666 80.6560901,8.02378791 C80.7641095,8.06473915 80.8536702,8.15547506 80.9045826,8.2755412 L82.9534781,13.29013 C83.0312984,13.4666938 83.0101388,13.6816665 82.9001147,13.8322793 C82.7900906,13.9828921 82.6135508,14.0385515 82.4548912,13.9726492 L82.4548912,13.9726492 Z" id="Path" fill="#FC4D92" fill-rule="nonzero"></path>
            <path d="M79.3409094,94.6391822 L78.0145808,89.618896 C77.9680793,89.4286366 78.0348913,89.2281228 78.1852259,89.1067615 C78.3355605,88.9854002 78.5414042,88.9658061 78.7109735,89.056716 L83.7364206,91.6709488 C83.8911584,91.7508674 83.9917548,91.9101717 83.9995171,92.0875877 C84.0072794,92.2650037 83.9209986,92.4328971 83.7738611,92.5266903 L80.0719346,94.9173942 C79.9434709,95.0049122 79.7819008,95.0241323 79.6372944,94.9690983 C79.4926879,94.9140643 79.3825119,94.7914237 79.3409094,94.6391822 L79.3409094,94.6391822 Z" id="Path" fill="#F93030" fill-rule="nonzero"></path>
            <path d="M42.9719814,82.1563082 L41.9174261,86.2914591 C41.789259,86.7891592 41.2658529,87.0940669 40.746153,86.9737786 C40.4941299,86.9186978 40.275951,86.7684264 40.1410386,86.557004 C40.0061261,86.3455817 39.9658973,86.0909005 40.0294649,85.8506512 L41.0829964,81.7155003 C41.1406763,81.4737621 41.2975942,81.2645476 41.5182421,81.1351986 C41.73889,81.0058495 42.0046169,80.9672996 42.2552933,81.028272 C42.5066757,81.0861697 42.7236291,81.2377472 42.8581374,81.4494574 C42.9926456,81.6611675 43.0336162,81.9155513 42.9719814,82.1563082 L42.9719814,82.1563082 Z" id="Path" fill="#BFF3FE" fill-rule="nonzero"></path>
            <circle id="Oval" fill="#C773ED" fill-rule="nonzero" cx="13" cy="78" r="2"></circle>
            <circle id="Oval" fill="#F93030" fill-rule="nonzero" cx="10.5" cy="22.5" r="2.5"></circle>
            <path d="M113.069407,43.4972903 C113.138246,43.3866821 113.252068,43.3058006 113.385783,43.2724743 C113.519498,43.2391481 113.66213,43.2561131 113.782237,43.3196299 C113.996908,43.4320851 114.169466,43.384835 114.574157,43.2326897 C115.093646,42.933626 115.749918,42.9220429 116.281492,43.2025555 C116.813066,43.4830681 117.133562,44.0100942 117.115283,44.5736476 C117.176911,44.9724385 117.217997,45.1330889 117.433694,45.2464891 C117.649392,45.3598894 117.819896,45.3116943 118.224587,45.159549 C118.743599,44.8599307 119.399917,44.8481286 119.931259,45.128859 C120.4626,45.4095894 120.782313,45.9370705 120.762632,46.5005069 C120.822206,46.8964628 120.865345,47.0580582 121.078989,47.1705134 C121.292632,47.2829687 121.465191,47.2357186 121.8668,47.0835732 C122.385585,46.7828281 123.04249,46.7702995 123.574376,47.0510059 C124.106262,47.3317123 124.426139,47.8597447 124.405872,48.4235862 C124.465446,48.8195421 124.508585,48.9811375 124.721202,49.0935927 C124.890375,49.1757334 124.997284,49.3363195 125,49.5122934 C125.002614,49.6882674 124.900608,49.8515311 124.733987,49.9379758 C124.567367,50.0244205 124.362735,50.0202433 124.200446,49.9270846 C123.689017,49.6289162 123.376311,49.1129034 123.369495,48.5558865 C123.309921,48.1589856 123.266782,47.9973903 123.054165,47.88588 C122.841549,47.7743698 122.667963,47.8206749 122.266354,47.9728202 C121.74741,48.273378 121.090521,48.2858323 120.558559,48.0051991 C120.026597,47.724566 119.706459,47.1966874 119.726255,46.6328072 C119.666681,46.2359063 119.623542,46.074311 119.410925,45.9618557 C119.198309,45.8494005 119.023696,45.8966506 118.622087,46.0487959 C118.102824,46.3489815 117.445967,46.3612881 116.913852,46.0808008 C116.381736,45.8003135 116.061075,45.2727404 116.079933,44.7087829 C116.019333,44.3109371 115.97722,44.1493417 115.762549,44.0359415 C115.547879,43.9225412 115.374293,43.9707363 114.97063,44.1228816 C114.443387,44.3978618 113.800858,44.4092369 113.262508,44.1531217 C113.142287,44.0897875 113.054376,43.985067 113.018153,43.8620436 C112.981931,43.7390202 113.00037,43.6077937 113.069407,43.4972903 L113.069407,43.4972903 Z" id="Path" fill="#BFF3FE" fill-rule="nonzero"></path>
            <path d="M110.246304,101.386084 C110.220966,101.294095 110.233853,101.195822 110.282061,101.1134 C111.547849,98.9156513 113.418435,97.5522331 114.831336,97.8045672 C115.444768,97.9222205 115.967789,98.3185403 116.245259,98.8759697 C116.914329,98.5999204 117.623447,98.4322913 118.34571,98.3794413 C119.218628,98.2037744 120.114909,98.5458496 120.646399,99.2575233 C121.863149,101.156134 119.570633,105.346101 119.305012,105.817193 C119.242051,105.92879 119.124094,105.998458 118.995574,105.999976 C118.867054,106.001446 118.747496,105.93454 118.681936,105.824437 C118.616377,105.714334 118.614776,105.577761 118.677737,105.466164 C119.339747,104.289961 120.88035,100.949586 120.039557,99.6441643 C119.762698,99.2107194 119.222261,99.0336786 118.404964,99.0947271 C117.762537,99.1408727 117.131687,99.2892714 116.536421,99.5342769 C116.625384,99.8024082 116.69369,100.076905 116.740745,100.35538 C117.202517,103.026255 116.229935,104.918761 115.052006,105.609628 C114.494208,106.003488 113.746816,106.001035 113.191636,105.603523 C112.436182,104.830713 112.233448,103.675783 112.680826,102.693541 C113.174888,101.199826 114.218928,99.9480599 115.60266,99.1903699 C115.423577,98.8426483 115.09739,98.5932128 114.71385,98.5106958 C113.629911,98.3194102 111.99634,99.592273 110.914444,101.470534 C110.841695,101.595919 110.700457,101.665527 110.556239,101.647072 C110.412021,101.628618 110.293039,101.525712 110.254477,101.386084 L110.246304,101.386084 Z M115.878497,99.8598693 C114.686497,100.529022 113.788661,101.617731 113.361225,102.912298 C113.024372,103.61601 113.130129,104.45069 113.631954,105.048998 C113.956785,105.250659 114.37308,105.2308 114.677072,104.999142 C115.637395,104.434443 116.426086,102.81869 116.023567,100.483582 C115.987715,100.271314 115.939273,100.061346 115.878497,99.8547819 L115.878497,99.8598693 Z M40.0517941,5.7758732 C40.0334668,5.70911882 40.020149,5.64109952 40.0119509,5.57237794 C39.8781186,4.49690552 40.8936092,3.20471065 41.7916135,2.29203444 C41.4894908,1.70535084 41.1392474,1.14451211 40.7444527,0.615233536 C40.6365919,0.434836432 40.6842205,0.202328211 40.8544156,0.0784289518 C41.0246107,-0.0454703073 41.2615085,-0.0200926781 41.4013545,0.137019687 C41.7720593,0.635729883 42.1072876,1.15965187 42.4045857,1.70495063 C42.7928014,1.35493879 43.0727254,1.13719886 43.08192,1.13007653 C43.7666241,0.597426682 44.665714,0.422804164 45.5011984,0.660200822 C46.3366828,0.89759748 47.0079098,1.51841382 47.3073416,2.33069853 C47.349228,2.44262092 47.3880496,2.55250836 47.4258495,2.65934337 C47.8344977,2.35410049 48.2860539,2.05699742 48.7703019,1.76803415 C49.4543079,1.23686872 50.3774683,1.12678956 51.1680448,1.48212332 C52.5339511,2.23709072 52.617724,4.66173668 52.6239176,4.9354378 C52.6278033,5.16021243 52.448047,5.34561705 52.2223569,5.3495506 C51.9966668,5.35348416 51.8105071,5.1744571 51.8065575,4.94968246 C51.7963413,4.3391967 51.5848659,2.64001132 50.7685912,2.18926933 C50.3803755,1.97458184 49.8491329,2.06717218 49.1840581,2.46297045 C48.6623083,2.77212165 48.1594659,3.11187926 47.6781898,3.48044672 C48.5312427,6.61529112 47.3298172,7.64294216 46.9027799,7.89934618 C46.3131472,8.27634325 45.5365501,8.17536545 45.0638634,7.66023926 C44.7031989,7.25834955 44.5490016,6.71315098 44.6460207,6.18286371 C44.987775,4.97880876 45.7288524,3.92549703 46.7485153,3.19453589 C46.6854759,2.99880872 46.6173449,2.80474453 46.5441912,2.61253946 C46.335034,2.04233333 45.8644457,1.60630162 45.2783305,1.43963445 C44.6922154,1.27296729 44.0614096,1.39580758 43.5814923,1.77006911 C43.3281305,1.96440708 43.0512713,2.20046157 42.7744122,2.45991802 C43.5467572,4.26593841 43.3659304,5.57034299 42.7979095,6.27647152 C42.4312034,6.72656733 41.8466128,6.94075064 41.2744581,6.83463633 C40.7023034,6.72852201 40.2343094,6.31912177 40.054859,5.76773339 L40.0517941,5.7758732 Z M42.1450941,3.09685817 C41.3727492,3.93220619 40.7424094,4.86523193 40.8169877,5.47775265 C40.8343553,5.62325176 40.9048471,5.84404411 41.3002141,6.01498012 C41.606058,6.15067375 41.9655634,6.05123992 42.1573536,5.77790815 C42.6046869,4.93757869 42.6000851,3.93004726 42.1450941,3.09380574 L42.1450941,3.09685817 Z M46.9865528,4.06549558 C46.2505487,4.63415174 45.7141266,5.42020591 45.4541223,6.31106572 C45.393439,6.60173533 45.4749586,6.90383366 45.6737707,7.12504674 C45.8897486,7.3469753 46.2348067,7.38177072 46.491067,7.20746231 C47.0315041,6.88593981 47.4023523,5.87762082 46.9865528,4.06244315 L46.9865528,4.06549558 Z" id="Shape" fill="#FC4D92" fill-rule="nonzero"></path>
        </g>
    </g>
</svg>