<?xml version="1.0" encoding="UTF-8"?>
<svg width="640px" height="64px" viewBox="0 0 640 64" version="1.1" xmlns="http://www.w3.org/2000/svg" xmlns:xlink="http://www.w3.org/1999/xlink">
    <title>stars</title>
    <g id="Page-1" stroke="none" stroke-width="1" fill="none" fill-rule="evenodd">
        <g id="stars" transform="translate(0.000000, -0.004872)" fill-rule="nonzero">
            <path d="M638.50383,16.3184381 C638.207891,15.1642731 634.503421,15.0754912 633.841909,14.598506 C633.363183,14.2538232 633.305736,13.5122331 633.14558,12.9760599 L632.484068,10.7721793 C632.330876,10.2603776 631.679808,9.23155183 631.018296,9.36733594 C630.569164,9.45785869 630.426416,10.0166625 630.37071,10.4710171 C630.231444,11.6338862 629.980766,12.7915328 629.846723,13.9474386 C629.766645,14.6298408 630.055621,15.4149515 629.536856,15.9633104 C628.857936,16.6822699 626.333744,17.3385598 625.677454,18.1201889 C625.386737,18.4666124 625.271842,19.0045264 625.538188,19.3718399 C626.24148,20.3414777 628.192942,19.4153604 629.146912,19.8331577 C631.542283,20.8880958 631.483095,24.6204181 631.927005,25.511719 C632.23513,26.1297108 633.035908,26.5910286 633.619084,26.225456 C634.022955,25.971296 634.146553,25.4507902 634.223149,24.9807683 C634.613093,22.5906197 633.63127,19.9950541 635.083115,18.58847 C635.706329,17.9844047 636.611557,17.8068409 637.433225,17.531791 C638.000733,17.3403006 638.6518,16.8946502 638.50383,16.3184381 L638.50383,16.3184381 Z" id="Path" fill="#6ADBC6" transform="translate(631.956740, 17.855106) rotate(4.000000) translate(-631.956740, -17.855106) "></path>
            <path d="M614.292196,50.1057539 C613.926624,48.6800207 609.350515,48.5703489 608.533352,47.9811319 C607.941985,47.5553473 607.871021,46.6392653 607.673182,45.9769338 L606.856019,43.254493 C606.666782,42.6222674 605.862522,41.351365 605.04536,41.5190983 C604.490549,41.6309205 604.314214,42.3212076 604.245401,42.8824691 C604.073367,44.3189544 603.763705,45.7489885 603.598122,47.1768721 C603.499202,48.0198396 603.856173,48.9896822 603.215346,49.6670668 C602.376679,50.5551932 599.25856,51.3659042 598.447849,52.331446 C598.088728,52.759381 597.9468,53.423863 598.275815,53.8776031 C599.144587,55.075391 601.555216,53.9313638 602.73365,54.4474663 C605.692638,55.7506252 605.619524,60.361141 606.167883,61.4621597 C606.548508,62.2255613 607.537705,62.7954245 608.258098,62.3438348 C608.756997,62.0298724 608.909677,61.3868947 609.004296,60.8062794 C609.485992,57.8537429 608.273151,54.647456 610.066607,52.9099109 C610.83646,52.1637127 611.954682,51.9443691 612.969684,51.6046016 C613.670723,51.3680546 614.474983,50.8175453 614.292196,50.1057539 L614.292196,50.1057539 Z" id="Path" fill="#628BF7" transform="translate(606.204615, 52.003991) rotate(9.000000) translate(-606.204615, -52.003991) "></path>
            <path d="M369.081549,6.53013071 C368.820425,5.51174985 365.551776,5.43341286 364.968089,5.01254355 C364.545683,4.70841171 364.494995,4.05406745 364.353681,3.58097348 L363.769994,1.63637292 C363.634824,1.18478322 363.060353,0.276995762 362.476665,0.396805274 C362.080372,0.476678283 361.954419,0.969740508 361.905266,1.37064157 C361.782384,2.39670252 361.561198,3.41815542 361.442924,4.4380723 C361.372267,5.0401919 361.627247,5.73293664 361.169513,6.21678275 C360.570465,6.85115876 358.343237,7.43023807 357.764158,8.11991078 C357.507643,8.42557864 357.406265,8.90020863 357.641276,9.22430872 C358.261828,10.0798715 359.983706,9.26270921 360.825444,9.63135386 C362.939007,10.5621816 362.886782,13.8554072 363.278467,14.6418491 C363.550343,15.187136 364.256912,15.5941811 364.771478,15.2716171 C365.127835,15.0473582 365.236892,14.5880884 365.304477,14.1733632 C365.648545,12.0644086 364.78223,9.77420367 366.063271,8.5331 C366.613165,8.00010127 367.411896,7.84342729 368.136897,7.60073623 C368.637639,7.43177409 369.21211,7.03855313 369.081549,6.53013071 L369.081549,6.53013071 Z" id="Path" fill="#FFD04D" transform="translate(363.304705, 7.886014) rotate(4.000000) translate(-363.304705, -7.886014) "></path>
            <path d="M27.7739832,35.750751 C27.309491,33.9333329 21.9567706,33.0891366 20.1172337,32.8126531 C16.9468897,32.3334151 17.2418054,31.3933712 16.4271008,28.6727737 L15.0262511,24.0057323 C14.7018438,22.9219171 13.3231128,20.7432272 11.9222631,21.03077 C10.9711599,21.2224652 10.6688713,22.4058145 10.550905,23.3679771 C10.2559892,25.8305234 9.72514094,28.2820103 9.44128456,30.7298108 C9.27170802,32.1748979 9.88365814,33.8374853 8.78509707,34.9987159 C7.32895069,36.5396506 2.03521345,37.8741442 0.612245089,39.5662232 C-0.00339148355,40.2998261 -0.246696955,41.438938 0.317329366,42.2167783 C1.80665377,44.270129 5.93916034,42.3089394 7.95933305,43.1936866 C13.0318835,45.4276732 12.9065443,53.3314146 13.8465882,55.2188752 C14.4990892,56.5275637 16.1948546,57.5044721 17.4298142,56.7303183 C18.2850698,56.1920971 18.5468075,55.0898496 18.7090112,54.094509 C19.5347752,49.0330179 17.4556193,43.5365261 20.5301158,40.5578773 C21.8498636,39.2786804 23.7668158,38.9026628 25.5068186,38.3202043 C26.7086002,37.9146952 28.0873312,36.9709648 27.7739832,35.750751 L27.7739832,35.750751 Z" id="Path" fill="#FF62A5"></path>
        </g>
    </g>
</svg>